  0
SECTION
  2
HEADER
  9
$ACADVER
  1
AC1014
  9
$HANDSEED
  5
FFFF
  9
$MEASUREMENT
 70
     1
  0
ENDSEC
  0
SECTION
  2
TABLES
  0
TABLE
  2
VPORT
  5
8
330
0
100
AcDbSymbolTable
 70
     4
  0
VPORT
  5
2E
330
8
100
AcDbSymbolTableRecord
100
AcDbViewportTableRecord
  2
*ACTIVE
 70
     0
 10
0.0
 20
0.0
 11
1.0
 21
1.0
 12
210.0
 22
148.5
 13
0.0
 23
0.0
 14
10.0
 24
10.0
 15
10.0
 25
10.0
 16
0.0
 26
0.0
 36
1.0
 17
0.0
 27
0.0
 37
0.0
 40
341.0
 41
1.24
 42
50.0
 43
0.0
 44
0.0
 50
0.0
 51
0.0
 71
     0
 72
   100
 73
     1
 74
     3
 75
     0
 76
     0
 77
     0
 78
     0
  0
ENDTAB
  0
TABLE
  2
LTYPE
  5
5
330
0
100
AcDbSymbolTable
 70
     1
  0
LTYPE
  5
14
330
5
100
AcDbSymbolTableRecord
100
AcDbLinetypeTableRecord
  2
BYBLOCK
 70
     0
  3

 72
    65
 73
     0
 40
0.0
  0
LTYPE
  5
15
330
5
100
AcDbSymbolTableRecord
100
AcDbLinetypeTableRecord
  2
BYLAYER
 70
     0
  3

 72
    65
 73
     0
 40
0.0
  0
LTYPE
  5
16
330
5
100
AcDbSymbolTableRecord
100
AcDbLinetypeTableRecord
  2
CONTINUOUS
 70
     0
  3
Solid line
 72
    65
 73
     0
 40
0.0
  0
ENDTAB
  0
TABLE
  2
LAYER
  5
2
100
AcDbSymbolTable
 70
2
  0
LAYER
  5
50
100
AcDbSymbolTableRecord
100
AcDbLayerTableRecord
  2
0
 70
0
  6
CONTINUOUS
  0
LAYER
  5
51
100
AcDbSymbolTableRecord
100
AcDbLayerTableRecord
  2
Layer_1
 70
0
  6
CONTINUOUS
  0
ENDTAB
  0
TABLE
  2
STYLE
  5
3
330
0
100
AcDbSymbolTable
 70
     1
  0
STYLE
  5
11
330
3
100
AcDbSymbolTableRecord
100
AcDbTextStyleTableRecord
  2
STANDARD
 70
     0
 40
0.0
 41
1.0
 50
0.0
 71
     0
 42
2.5
  3
txt
  4

  0
ENDTAB
  0
TABLE
  2
VIEW
  5
6
330
0
100
AcDbSymbolTable
 70
     0
  0
ENDTAB
  0
TABLE
  2
UCS
  5
7
330
0
100
AcDbSymbolTable
 70
     0
  0
ENDTAB
  0
TABLE
  2
APPID
  5
9
330
0
100
AcDbSymbolTable
 70
     2
  0
APPID
  5
12
330
9
100
AcDbSymbolTableRecord
100
AcDbRegAppTableRecord
  2
ACAD
 70
     0
  0
ENDTAB
  0
TABLE
  2
DIMSTYLE
  5
A
330
0
100
AcDbSymbolTable
 70
     1
  0
DIMSTYLE
105
27
330
A
100
AcDbSymbolTableRecord
100
AcDbDimStyleTableRecord
  2
ISO-25
 70
     0
  3

  4

  5

  6

  7

 40
1.0
 41
2.5
 42
0.625
 43
3.75
 44
1.25
 45
0.0
 46
0.0
 47
0.0
 48
0.0
140
2.5
141
2.5
142
0.0
143
0.03937007874016
144
1.0
145
0.0
146
1.0
147
0.625
 71
     0
 72
     0
 73
     0
 74
     0
 75
     0
 76
     0
 77
     1
 78
     8
170
     0
171
     3
172
     1
173
     0
174
     0
175
     0
176
     0
177
     0
178
     0
270
     2
271
     2
272
     2
273
     2
274
     3
340
11
275
     0
280
     0
281
     0
282
     0
283
     0
284
     8
285
     0
286
     0
287
     3
288
     0
  0
ENDTAB
  0
TABLE
  2
BLOCK_RECORD
  5
1
330
0
100
AcDbSymbolTable
 70
     1
  0
BLOCK_RECORD
  5
1F
330
1
100
AcDbSymbolTableRecord
100
AcDbBlockTableRecord
  2
*MODEL_SPACE
  0
BLOCK_RECORD
  5
1B
330
1
100
AcDbSymbolTableRecord
100
AcDbBlockTableRecord
  2
*PAPER_SPACE
  0
ENDTAB
  0
ENDSEC
  0
SECTION
  2
BLOCKS
  0
BLOCK
  5
20
330
1F
100
AcDbEntity
  8
0
100
AcDbBlockBegin
  2
*MODEL_SPACE
 70
     0
 10
0.0
 20
0.0
 30
0.0
  3
*MODEL_SPACE
  1

  0
ENDBLK
  5
21
330
1F
100
AcDbEntity
  8
0
100
AcDbBlockEnd
  0
BLOCK
  5
1C
330
1B
100
AcDbEntity
 67
     1
  8
0
100
AcDbBlockBegin
  2
*PAPER_SPACE
  1

  0
ENDBLK
  5
1D
330
1B
100
AcDbEntity
 67
     1
  8
0
100
AcDbBlockEnd
  0
ENDSEC
  0
SECTION
  2
ENTITIES
  0
LINE
  5
100
100
AcDbEntity
  8
Layer_1
 62
7
100
AcDbLine
 10
242.795374
 20
269.188559
 30
0.0
 11
242.795374
 21
269.188559
 31
0.0
  0
LINE
  5
101
100
AcDbEntity
  8
Layer_1
 62
7
100
AcDbLine
 10
261.336705
 20
224.848979
 30
0.0
 11
261.336705
 21
229.976604
 31
0.0
  0
LINE
  5
102
100
AcDbEntity
  8
Layer_1
 62
7
100
AcDbLine
 10
261.336705
 20
229.976674
 30
0.0
 11
244.744508
 21
229.976674
 31
0.0
  0
LINE
  5
103
100
AcDbEntity
  8
Layer_1
 62
7
100
AcDbLine
 10
244.744613
 20
229.976674
 30
0.0
 11
244.744613
 21
224.849049
 31
0.0
  0
LINE
  5
104
100
AcDbEntity
  8
Layer_1
 62
7
100
AcDbLine
 10
244.744613
 20
224.848979
 30
0.0
 11
261.336810
 21
224.848979
 31
0.0
  0
LINE
  5
105
100
AcDbEntity
  8
Layer_1
 62
7
100
AcDbLine
 10
228.152345
 20
224.848979
 30
0.0
 11
228.152345
 21
229.976604
 31
0.0
  0
LINE
  5
106
100
AcDbEntity
  8
Layer_1
 62
7
100
AcDbLine
 10
228.152345
 20
229.976674
 30
0.0
 11
211.559795
 21
229.976674
 31
0.0
  0
LINE
  5
107
100
AcDbEntity
  8
Layer_1
 62
7
100
AcDbLine
 10
211.559724
 20
229.976674
 30
0.0
 11
211.559724
 21
224.849049
 31
0.0
  0
LINE
  5
108
100
AcDbEntity
  8
Layer_1
 62
7
100
AcDbLine
 10
211.559724
 20
224.848979
 30
0.0
 11
228.152274
 21
224.848979
 31
0.0
  0
LINE
  5
109
100
AcDbEntity
  8
Layer_1
 62
7
100
AcDbLine
 10
228.152345
 20
297.755304
 30
0.0
 11
228.152345
 21
302.882929
 31
0.0
  0
LINE
  5
10a
100
AcDbEntity
  8
Layer_1
 62
7
100
AcDbLine
 10
228.152345
 20
302.882966
 30
0.0
 11
211.559795
 21
302.882966
 31
0.0
  0
LINE
  5
10b
100
AcDbEntity
  8
Layer_1
 62
7
100
AcDbLine
 10
211.559724
 20
302.882966
 30
0.0
 11
211.559724
 21
297.755341
 31
0.0
  0
LINE
  5
10c
100
AcDbEntity
  8
Layer_1
 62
7
100
AcDbLine
 10
211.559724
 20
297.755304
 30
0.0
 11
228.152274
 21
297.755304
 31
0.0
  0
LINE
  5
10d
100
AcDbEntity
  8
Layer_1
 62
7
100
AcDbLine
 10
261.336705
 20
297.755304
 30
0.0
 11
261.336705
 21
302.882929
 31
0.0
  0
LINE
  5
10e
100
AcDbEntity
  8
Layer_1
 62
7
100
AcDbLine
 10
261.336705
 20
302.882966
 30
0.0
 11
244.744508
 21
302.882966
 31
0.0
  0
LINE
  5
10f
100
AcDbEntity
  8
Layer_1
 62
7
100
AcDbLine
 10
244.744613
 20
302.882966
 30
0.0
 11
244.744613
 21
297.755341
 31
0.0
  0
LINE
  5
110
100
AcDbEntity
  8
Layer_1
 62
7
100
AcDbLine
 10
244.744613
 20
297.755304
 30
0.0
 11
261.336810
 21
297.755304
 31
0.0
  0
LINE
  5
111
100
AcDbEntity
  8
Layer_1
 62
7
100
AcDbLine
 10
278.608350
 20
238.977658
 30
0.0
 11
278.608350
 21
255.569856
 31
0.0
  0
LINE
  5
112
100
AcDbEntity
  8
Layer_1
 62
7
100
AcDbLine
 10
278.608350
 20
255.569926
 30
0.0
 11
273.481430
 21
255.569926
 31
0.0
  0
LINE
  5
113
100
AcDbEntity
  8
Layer_1
 62
7
100
AcDbLine
 10
273.481363
 20
255.569926
 30
0.0
 11
273.481363
 21
238.977729
 31
0.0
  0
LINE
  5
114
100
AcDbEntity
  8
Layer_1
 62
7
100
AcDbLine
 10
273.481363
 20
238.977658
 30
0.0
 11
278.608282
 21
238.977658
 31
0.0
  0
LINE
  5
115
100
AcDbEntity
  8
Layer_1
 62
7
100
AcDbLine
 10
199.415420
 20
238.977658
 30
0.0
 11
199.415420
 21
255.569856
 31
0.0
  0
LINE
  5
116
100
AcDbEntity
  8
Layer_1
 62
7
100
AcDbLine
 10
199.415420
 20
255.569926
 30
0.0
 11
194.287795
 21
255.569926
 31
0.0
  0
LINE
  5
117
100
AcDbEntity
  8
Layer_1
 62
7
100
AcDbLine
 10
194.287758
 20
255.569926
 30
0.0
 11
194.287758
 21
238.977729
 31
0.0
  0
LINE
  5
118
100
AcDbEntity
  8
Layer_1
 62
7
100
AcDbLine
 10
194.287758
 20
238.977658
 30
0.0
 11
199.415383
 21
238.977658
 31
0.0
  0
LINE
  5
119
100
AcDbEntity
  8
Layer_1
 62
7
100
AcDbLine
 10
278.608350
 20
272.162194
 30
0.0
 11
278.608350
 21
288.754391
 31
0.0
  0
LINE
  5
11a
100
AcDbEntity
  8
Layer_1
 62
7
100
AcDbLine
 10
278.608350
 20
288.754462
 30
0.0
 11
273.481430
 21
288.754462
 31
0.0
  0
LINE
  5
11b
100
AcDbEntity
  8
Layer_1
 62
7
100
AcDbLine
 10
273.481363
 20
288.754462
 30
0.0
 11
273.481363
 21
272.162264
 31
0.0
  0
LINE
  5
11c
100
AcDbEntity
  8
Layer_1
 62
7
100
AcDbLine
 10
273.481363
 20
272.162194
 30
0.0
 11
278.608282
 21
272.162194
 31
0.0
  0
LINE
  5
11d
100
AcDbEntity
  8
Layer_1
 62
7
100
AcDbLine
 10
199.415420
 20
272.162194
 30
0.0
 11
199.415420
 21
288.754391
 31
0.0
  0
LINE
  5
11e
100
AcDbEntity
  8
Layer_1
 62
7
100
AcDbLine
 10
199.415420
 20
288.754462
 30
0.0
 11
194.287795
 21
288.754462
 31
0.0
  0
LINE
  5
11f
100
AcDbEntity
  8
Layer_1
 62
7
100
AcDbLine
 10
194.287758
 20
288.754462
 30
0.0
 11
194.287758
 21
272.162264
 31
0.0
  0
LINE
  5
120
100
AcDbEntity
  8
Layer_1
 62
7
100
AcDbLine
 10
194.287758
 20
272.162194
 30
0.0
 11
199.415383
 21
272.162194
 31
0.0
  0
SPLINE
  5
121
100
AcDbEntity
  8
Layer_1
 62
7
100
AcDbSpline
 70
0
 71
3
 72
19
 73
15
 74
13
 40
0.000000
 40
0.000000
 40
0.000000
 40
0.000000
 40
3.318718
 40
6.538935
 40
9.857653
 40
13.176131
 40
16.396283
 40
19.714998
 40
23.033713
 40
26.253864
 40
29.572343
 40
32.891061
 40
36.111277
 40
39.429996
 40
39.429996
 40
39.429996
 40
39.429996
 10
242.795374
 20
269.188559
 30
0.0
 10
242.620936
 20
270.307479
 30
0.0
 10
242.277237
 20
272.512108
 30
0.0
 10
239.750304
 20
274.939229
 30
0.0
 10
236.454099
 20
275.838489
 30
0.0
 10
233.123329
 20
274.939193
 30
0.0
 10
230.698305
 20
272.512074
 30
0.0
 10
229.798406
 20
269.188559
 30
0.0
 10
230.698305
 20
265.865045
 30
0.0
 10
233.123329
 20
263.437926
 30
0.0
 10
236.454099
 20
262.538629
 30
0.0
 10
239.750304
 20
263.437890
 30
0.0
 10
242.277237
 20
265.865011
 30
0.0
 10
242.620936
 20
268.069640
 30
0.0
 10
242.795374
 20
269.188559
 30
0.0
 11
242.795374
 21
269.188559
 31
0.0
 11
241.928821
 21
272.392147
 31
0.0
 11
239.651784
 21
274.669184
 31
0.0
 11
236.448196
 21
275.535737
 31
0.0
 11
233.244857
 21
274.669184
 31
0.0
 11
230.967911
 21
272.392147
 31
0.0
 11
230.101371
 21
269.188559
 31
0.0
 11
230.967911
 21
265.984971
 31
0.0
 11
233.244857
 21
263.707935
 31
0.0
 11
236.448196
 21
262.841382
 31
0.0
 11
239.651784
 21
263.707935
 31
0.0
 11
241.928821
 21
265.984971
 31
0.0
 11
242.795374
 21
269.188559
 31
0.0
  0
LINE
  5
122
100
AcDbEntity
  8
Layer_1
 62
7
100
AcDbLine
 10
259.527342
 20
290.768648
 30
0.0
 11
259.527342
 21
290.768648
 31
0.0
  0
SPLINE
  5
123
100
AcDbEntity
  8
Layer_1
 62
7
100
AcDbSpline
 70
0
 71
3
 72
19
 73
15
 74
13
 40
0.000000
 40
0.000000
 40
0.000000
 40
0.000000
 40
0.783878
 40
1.544520
 40
2.328570
 40
3.112619
 40
3.873261
 40
4.657139
 40
5.441017
 40
6.201659
 40
6.985709
 40
7.769758
 40
8.530401
 40
9.314278
 40
9.314278
 40
9.314278
 40
9.314278
 10
259.527342
 20
290.768648
 30
0.0
 10
259.486153
 20
291.032935
 30
0.0
 10
259.404995
 20
291.553676
 30
0.0
 10
258.808132
 20
292.127074
 30
0.0
 10
258.029412
 20
292.339460
 30
0.0
 10
257.242520
 20
292.127074
 30
0.0
 10
256.669686
 20
291.553676
 30
0.0
 10
256.457193
 20
290.768648
 30
0.0
 10
256.669686
 20
289.983619
 30
0.0
 10
257.242520
 20
289.410222
 30
0.0
 10
258.029412
 20
289.197835
 30
0.0
 10
258.808132
 20
289.410222
 30
0.0
 10
259.404995
 20
289.983619
 30
0.0
 10
259.486153
 20
290.504360
 30
0.0
 10
259.527342
 20
290.768648
 30
0.0
 11
259.527342
 21
290.768648
 31
0.0
 11
259.322705
 21
291.525343
 31
0.0
 11
258.784888
 21
292.063238
 31
0.0
 11
258.028036
 21
292.267953
 31
0.0
 11
257.271184
 21
292.063238
 31
0.0
 11
256.733368
 21
291.525343
 31
0.0
 11
256.528731
 21
290.768648
 31
0.0
 11
256.733368
 21
290.011953
 31
0.0
 11
257.271184
 21
289.474058
 31
0.0
 11
258.028036
 21
289.269342
 31
0.0
 11
258.784888
 21
289.474058
 31
0.0
 11
259.322705
 21
290.011953
 31
0.0
 11
259.527342
 21
290.768648
 31
0.0
  0
LINE
  5
124
100
AcDbEntity
  8
Layer_1
 62
7
100
AcDbLine
 10
259.527342
 20
247.608649
 30
0.0
 11
259.527342
 21
247.608649
 31
0.0
  0
LINE
  5
125
100
AcDbEntity
  8
Layer_1
 62
7
100
AcDbLine
 10
199.985260
 20
208.205381
 30
0.0
 11
272.911483
 21
208.205381
 31
0.0
  0
SPLINE
  5
126
100
AcDbEntity
  8
Layer_1
 62
7
100
AcDbSpline
 70
0
 71
3
 72
19
 73
15
 74
13
 40
0.000000
 40
0.000000
 40
0.000000
 40
0.000000
 40
0.783878
 40
1.544520
 40
2.328570
 40
3.112619
 40
3.873261
 40
4.657139
 40
5.441168
 40
6.201755
 40
6.985784
 40
7.769813
 40
8.530400
 40
9.314429
 40
9.314429
 40
9.314429
 40
9.314429
 10
259.527342
 20
247.608649
 30
0.0
 10
259.486153
 20
247.872936
 30
0.0
 10
259.404995
 20
248.393677
 30
0.0
 10
258.808132
 20
248.967075
 30
0.0
 10
258.029412
 20
249.179461
 30
0.0
 10
257.242522
 20
248.967076
 30
0.0
 10
256.669679
 20
248.393675
 30
0.0
 10
256.457206
 20
247.608605
 30
0.0
 10
256.669622
 20
246.823512
 30
0.0
 10
257.242542
 20
246.250124
 30
0.0
 10
258.029412
 20
246.037885
 30
0.0
 10
258.808112
 20
246.250123
 30
0.0
 10
259.405054
 20
246.823513
 30
0.0
 10
259.486169
 20
247.344302
 30
0.0
 10
259.527342
 20
247.608649
 30
0.0
 11
259.527342
 21
247.608649
 31
0.0
 11
259.322705
 21
248.365344
 31
0.0
 11
258.784888
 21
248.903239
 31
0.0
 11
258.028036
 21
249.107954
 31
0.0
 11
257.271184
 21
248.903239
 31
0.0
 11
256.733368
 21
248.365344
 31
0.0
 11
256.528731
 21
247.608649
 31
0.0
 11
256.733368
 21
246.851797
 31
0.0
 11
257.271184
 21
246.313981
 31
0.0
 11
258.028036
 21
246.109343
 31
0.0
 11
258.784888
 21
246.313981
 31
0.0
 11
259.322705
 21
246.851797
 31
0.0
 11
259.527342
 21
247.608649
 31
0.0
  0
LINE
  5
127
100
AcDbEntity
  8
Layer_1
 62
7
100
AcDbLine
 10
187.291119
 20
308.880188
 30
0.0
 11
187.291119
 21
220.899527
 31
0.0
  0
SPLINE
  5
128
100
AcDbEntity
  8
Layer_1
 62
7
100
AcDbSpline
 70
0
 71
3
 72
10
 73
6
 74
4
 40
0.000000
 40
0.000000
 40
0.000000
 40
0.000000
 40
6.637193
 40
13.077497
 40
19.714690
 40
19.714690
 40
19.714690
 40
19.714690
 10
187.291119
 20
220.899527
 30
0.0
 10
187.640264
 20
218.675202
 30
0.0
 10
188.328196
 20
214.292536
 30
0.0
 10
193.378131
 20
209.242601
 30
0.0
 10
197.760797
 20
208.554669
 30
0.0
 10
199.985122
 20
208.205524
 30
0.0
 11
187.291119
 21
220.899527
 31
0.0
 11
189.024212
 21
214.492599
 31
0.0
 11
193.578194
 21
209.938617
 31
0.0
 11
199.985122
 21
208.205524
 31
0.0
  0
LINE
  5
129
100
AcDbEntity
  8
Layer_1
 62
7
100
AcDbLine
 10
284.605572
 20
309.879783
 30
0.0
 11
188.290536
 21
309.879783
 31
0.0
  0
SPLINE
  5
12a
100
AcDbEntity
  8
Layer_1
 62
7
100
AcDbSpline
 70
0
 71
3
 72
10
 73
6
 74
4
 40
0.000000
 40
0.000000
 40
0.000000
 40
0.000000
 40
0.522474
 40
1.029600
 40
1.552074
 40
1.552074
 40
1.552074
 40
1.552074
 10
188.290536
 20
309.879783
 30
0.0
 10
188.115447
 20
309.852266
 30
0.0
 10
187.770413
 20
309.798041
 30
0.0
 10
187.372859
 20
309.400486
 30
0.0
 10
187.318633
 20
309.055452
 30
0.0
 10
187.291116
 20
308.880363
 30
0.0
 11
188.290536
 21
309.879783
 31
0.0
 11
187.786207
 21
309.743284
 31
0.0
 11
187.427615
 21
309.384692
 31
0.0
 11
187.291116
 21
308.880363
 31
0.0
  0
LINE
  5
12b
100
AcDbEntity
  8
Layer_1
 62
7
100
AcDbLine
 10
285.605344
 20
220.899527
 30
0.0
 11
285.605344
 21
308.880188
 31
0.0
  0
SPLINE
  5
12c
100
AcDbEntity
  8
Layer_1
 62
7
100
AcDbSpline
 70
0
 71
3
 72
10
 73
6
 74
4
 40
0.000000
 40
0.000000
 40
0.000000
 40
0.000000
 40
0.522608
 40
1.029688
 40
1.552533
 40
1.552533
 40
1.552533
 40
1.552533
 10
285.605344
 20
308.880188
 30
0.0
 10
285.577871
 20
309.055338
 30
0.0
 10
285.523740
 20
309.400433
 30
0.0
 10
285.125975
 20
309.798052
 30
0.0
 10
284.780801
 20
309.852147
 30
0.0
 10
284.605572
 20
309.879608
 30
0.0
 11
285.605344
 21
308.880188
 31
0.0
 11
285.468911
 21
309.384674
 31
0.0
 11
285.110305
 21
309.743187
 31
0.0
 11
284.605572
 21
309.879608
 31
0.0
  0
SPLINE
  5
12d
100
AcDbEntity
  8
Layer_1
 62
7
100
AcDbSpline
 70
0
 71
3
 72
10
 73
6
 74
4
 40
0.000000
 40
0.000000
 40
0.000000
 40
0.000000
 40
6.637105
 40
13.077288
 40
19.714458
 40
19.714458
 40
19.714458
 40
19.714458
 10
272.911553
 20
208.205381
 30
0.0
 10
275.135854
 20
208.554520
 30
0.0
 10
279.518463
 20
209.242440
 30
0.0
 10
284.568219
 20
214.292445
 30
0.0
 10
285.256088
 20
218.675065
 30
0.0
 10
285.605203
 20
220.899383
 30
0.0
 11
272.911553
 21
208.205381
 31
0.0
 11
279.318389
 21
209.938473
 31
0.0
 11
283.872202
 21
214.492455
 31
0.0
 11
285.605203
 21
220.899383
 31
0.0
  0
LINE
  5
12e
100
AcDbEntity
  8
Layer_1
 62
7
100
AcDbLine
 10
216.367380
 20
247.608649
 30
0.0
 11
216.367380
 21
247.608649
 31
0.0
  0
SPLINE
  5
12f
100
AcDbEntity
  8
Layer_1
 62
7
100
AcDbSpline
 70
0
 71
3
 72
19
 73
15
 74
13
 40
0.000000
 40
0.000000
 40
0.000000
 40
0.000000
 40
0.783878
 40
1.544520
 40
2.328570
 40
3.112468
 40
3.873166
 40
4.657064
 40
5.441113
 40
6.201756
 40
6.985633
 40
7.769662
 40
8.530249
 40
9.314278
 40
9.314278
 40
9.314278
 40
9.314278
 10
216.367380
 20
247.608649
 30
0.0
 10
216.326190
 20
247.872937
 30
0.0
 10
216.245032
 20
248.393679
 30
0.0
 10
215.648171
 20
248.967068
 30
0.0
 10
214.869493
 20
249.179475
 30
0.0
 10
214.082668
 20
248.967011
 30
0.0
 10
213.509816
 20
248.393697
 30
0.0
 10
213.297196
 20
247.608605
 30
0.0
 10
213.509759
 20
246.823490
 30
0.0
 10
214.082688
 20
246.250188
 30
0.0
 10
214.869493
 20
246.037871
 30
0.0
 10
215.648151
 20
246.250130
 30
0.0
 10
216.245091
 20
246.823512
 30
0.0
 10
216.326207
 20
247.344302
 30
0.0
 10
216.367380
 20
247.608649
 30
0.0
 11
216.367380
 21
247.608649
 31
0.0
 11
216.162743
 21
248.365344
 31
0.0
 11
215.624926
 21
248.903239
 31
0.0
 11
214.868074
 21
249.107954
 31
0.0
 11
214.111379
 21
248.903239
 31
0.0
 11
213.573484
 21
248.365344
 31
0.0
 11
213.368769
 21
247.608649
 31
0.0
 11
213.573484
 21
246.851797
 31
0.0
 11
214.111379
 21
246.313981
 31
0.0
 11
214.868074
 21
246.109343
 31
0.0
 11
215.624926
 21
246.313981
 31
0.0
 11
216.162743
 21
246.851797
 31
0.0
 11
216.367380
 21
247.608649
 31
0.0
  0
LINE
  5
130
100
AcDbEntity
  8
Layer_1
 62
7
100
AcDbLine
 10
216.367380
 20
290.768648
 30
0.0
 11
216.367380
 21
290.768648
 31
0.0
  0
SPLINE
  5
131
100
AcDbEntity
  8
Layer_1
 62
7
100
AcDbSpline
 70
0
 71
3
 72
19
 73
15
 74
13
 40
0.000000
 40
0.000000
 40
0.000000
 40
0.000000
 40
0.783878
 40
1.544520
 40
2.328570
 40
3.112468
 40
3.873166
 40
4.657064
 40
5.440962
 40
6.201660
 40
6.985558
 40
7.769607
 40
8.530250
 40
9.314127
 40
9.314127
 40
9.314127
 40
9.314127
 10
216.367380
 20
290.768648
 30
0.0
 10
216.326190
 20
291.032936
 30
0.0
 10
216.245032
 20
291.553678
 30
0.0
 10
215.648171
 20
292.127067
 30
0.0
 10
214.869494
 20
292.339474
 30
0.0
 10
214.082666
 20
292.127010
 30
0.0
 10
213.509823
 20
291.553698
 30
0.0
 10
213.297182
 20
290.768648
 30
0.0
 10
213.509823
 20
289.983598
 30
0.0
 10
214.082666
 20
289.410286
 30
0.0
 10
214.869494
 20
289.197822
 30
0.0
 10
215.648171
 20
289.410229
 30
0.0
 10
216.245032
 20
289.983618
 30
0.0
 10
216.326190
 20
290.504360
 30
0.0
 10
216.367380
 20
290.768648
 30
0.0
 11
216.367380
 21
290.768648
 31
0.0
 11
216.162743
 21
291.525343
 31
0.0
 11
215.624926
 21
292.063238
 31
0.0
 11
214.868074
 21
292.267953
 31
0.0
 11
214.111379
 21
292.063238
 31
0.0
 11
213.573484
 21
291.525343
 31
0.0
 11
213.368769
 21
290.768648
 31
0.0
 11
213.573484
 21
290.011953
 31
0.0
 11
214.111379
 21
289.474058
 31
0.0
 11
214.868074
 21
289.269342
 31
0.0
 11
215.624926
 21
289.474058
 31
0.0
 11
216.162743
 21
290.011953
 31
0.0
 11
216.367380
 21
290.768648
 31
0.0
  0
LINE
  5
132
100
AcDbEntity
  8
Layer_1
 62
7
100
AcDbLine
 10
198.450818
 20
263.866060
 30
0.0
 11
198.450818
 21
263.866060
 31
0.0
  0
SPLINE
  5
133
100
AcDbEntity
  8
Layer_1
 62
7
100
AcDbSpline
 70
0
 71
3
 72
19
 73
15
 74
13
 40
0.000000
 40
0.000000
 40
0.000000
 40
0.000000
 40
0.836190
 40
1.647462
 40
2.483653
 40
3.319843
 40
4.131115
 40
4.967305
 40
5.803496
 40
6.614768
 40
7.450958
 40
8.287148
 40
9.098420
 40
9.934611
 40
9.934611
 40
9.934611
 40
9.934611
 10
198.450818
 20
263.866060
 30
0.0
 10
198.406888
 20
264.147989
 30
0.0
 10
198.320337
 20
264.703447
 30
0.0
 10
197.683664
 20
265.314988
 30
0.0
 10
196.853143
 20
265.541445
 30
0.0
 10
196.013908
 20
265.314988
 30
0.0
 10
195.402860
 20
264.703447
 30
0.0
 10
195.176235
 20
263.866060
 30
0.0
 10
195.402860
 20
263.028673
 30
0.0
 10
196.013908
 20
262.417132
 30
0.0
 10
196.853143
 20
262.190675
 30
0.0
 10
197.683664
 20
262.417132
 30
0.0
 10
198.320337
 20
263.028673
 30
0.0
 10
198.406888
 20
263.584130
 30
0.0
 10
198.450818
 20
263.866060
 30
0.0
 11
198.450818
 21
263.866060
 31
0.0
 11
198.232527
 21
264.673255
 31
0.0
 11
197.658871
 21
265.246911
 31
0.0
 11
196.851676
 21
265.465202
 31
0.0
 11
196.044482
 21
265.246911
 31
0.0
 11
195.470826
 21
264.673255
 31
0.0
 11
195.252535
 21
263.866060
 31
0.0
 11
195.470826
 21
263.058865
 31
0.0
 11
196.044482
 21
262.485209
 31
0.0
 11
196.851676
 21
262.266918
 31
0.0
 11
197.658871
 21
262.485209
 31
0.0
 11
198.232527
 21
263.058865
 31
0.0
 11
198.450818
 21
263.866060
 31
0.0
  0
LINE
  5
134
100
AcDbEntity
  8
Layer_1
 62
7
100
AcDbLine
 10
198.367421
 20
263.866060
 30
0.0
 11
198.367421
 21
263.866060
 31
0.0
  0
SPLINE
  5
135
100
AcDbEntity
  8
Layer_1
 62
7
100
AcDbSpline
 70
0
 71
3
 72
19
 73
15
 74
13
 40
0.000000
 40
0.000000
 40
0.000000
 40
0.000000
 40
0.792724
 40
1.561774
 40
2.354327
 40
3.146879
 40
3.915929
 40
4.708653
 40
5.501378
 40
6.270428
 40
7.062980
 40
7.855533
 40
8.624583
 40
9.417307
 40
9.417307
 40
9.417307
 40
9.417307
 10
198.367421
 20
263.866060
 30
0.0
 10
198.325766
 20
264.133335
 30
0.0
 10
198.243700
 20
264.659904
 30
0.0
 10
197.640131
 20
265.239544
 30
0.0
 10
196.852926
 20
265.454219
 30
0.0
 10
196.057460
 20
265.239544
 30
0.0
 10
195.478185
 20
264.659904
 30
0.0
 10
195.263301
 20
263.866060
 30
0.0
 10
195.478185
 20
263.072216
 30
0.0
 10
196.057460
 20
262.492576
 30
0.0
 10
196.852926
 20
262.277901
 30
0.0
 10
197.640131
 20
262.492576
 30
0.0
 10
198.243700
 20
263.072216
 30
0.0
 10
198.325766
 20
263.598784
 30
0.0
 10
198.367421
 20
263.866060
 30
0.0
 11
198.367421
 21
263.866060
 31
0.0
 11
198.160445
 21
264.631287
 31
0.0
 11
197.616606
 21
265.175048
 31
0.0
 11
196.851535
 21
265.381946
 31
0.0
 11
196.086465
 21
265.175048
 31
0.0
 11
195.542625
 21
264.631287
 31
0.0
 11
195.335649
 21
263.866060
 31
0.0
 11
195.542625
 21
263.100833
 31
0.0
 11
196.086465
 21
262.557071
 31
0.0
 11
196.851535
 21
262.350174
 31
0.0
 11
197.616606
 21
262.557071
 31
0.0
 11
198.160445
 21
263.100833
 31
0.0
 11
198.367421
 21
263.866060
 31
0.0
  0
LINE
  5
136
100
AcDbEntity
  8
Layer_1
 62
7
100
AcDbLine
 10
237.964328
 20
227.412827
 30
0.0
 11
237.964328
 21
227.412827
 31
0.0
  0
SPLINE
  5
137
100
AcDbEntity
  8
Layer_1
 62
7
100
AcDbSpline
 70
0
 71
3
 72
19
 73
15
 74
13
 40
0.000000
 40
0.000000
 40
0.000000
 40
0.000000
 40
0.792816
 40
1.562051
 40
2.354867
 40
3.147443
 40
3.916613
 40
4.709426
 40
5.501999
 40
6.271104
 40
7.063677
 40
7.856490
 40
8.625660
 40
9.418236
 40
9.418236
 40
9.418236
 40
9.418236
 10
237.964328
 20
227.412827
 30
0.0
 10
237.922667
 20
227.680131
 30
0.0
 10
237.840584
 20
228.206788
 30
0.0
 10
237.236929
 20
228.786599
 30
0.0
 10
236.449559
 20
229.001379
 30
0.0
 10
235.653959
 20
228.786563
 30
0.0
 10
235.074766
 20
228.206755
 30
0.0
 10
234.859837
 20
227.412905
 30
0.0
 10
235.074802
 20
226.619092
 30
0.0
 10
235.653993
 20
226.039434
 30
0.0
 10
236.449558
 20
225.824628
 30
0.0
 10
237.236896
 20
226.039399
 30
0.0
 10
237.840541
 20
226.619058
 30
0.0
 10
237.922656
 20
227.145607
 30
0.0
 10
237.964328
 20
227.412827
 30
0.0
 11
237.964328
 21
227.412827
 31
0.0
 11
237.757339
 21
228.178145
 31
0.0
 11
237.213408
 21
228.722076
 31
0.0
 11
236.448089
 21
228.929066
 31
0.0
 11
235.683019
 21
228.722076
 31
0.0
 11
235.139179
 21
228.178145
 31
0.0
 11
234.932203
 21
227.412827
 31
0.0
 11
235.139179
 21
226.647756
 31
0.0
 11
235.683019
 21
226.103917
 31
0.0
 11
236.448089
 21
225.896941
 31
0.0
 11
237.213408
 21
226.103917
 31
0.0
 11
237.757339
 21
226.647756
 31
0.0
 11
237.964328
 21
227.412827
 31
0.0
  0
LINE
  5
138
100
AcDbEntity
  8
Layer_1
 62
7
100
AcDbLine
 10
277.561060
 20
263.866060
 30
0.0
 11
277.561060
 21
263.866060
 31
0.0
  0
LINE
  5
139
100
AcDbEntity
  8
Layer_1
 62
7
100
AcDbLine
 10
139.529315
 20
50.600082
 30
0.0
 11
132.730934
 21
50.600082
 31
0.0
  0
LINE
  5
13a
100
AcDbEntity
  8
Layer_1
 62
7
100
AcDbLine
 10
139.529315
 20
55.727778
 30
0.0
 11
139.529315
 21
50.600153
 31
0.0
  0
LINE
  5
13b
100
AcDbEntity
  8
Layer_1
 62
7
100
AcDbLine
 10
139.529315
 20
55.727778
 30
0.0
 11
156.121865
 21
55.727778
 31
0.0
  0
LINE
  5
13c
100
AcDbEntity
  8
Layer_1
 62
7
100
AcDbLine
 10
180.390577
 20
50.600082
 30
0.0
 11
156.121935
 21
50.600082
 31
0.0
  0
LINE
  5
13d
100
AcDbEntity
  8
Layer_1
 62
7
100
AcDbLine
 10
180.390577
 20
22.612867
 30
0.0
 11
180.390577
 21
50.600139
 31
0.0
  0
SPLINE
  5
13e
100
AcDbEntity
  8
Layer_1
 62
7
100
AcDbSpline
 70
0
 71
3
 72
19
 73
15
 74
13
 40
0.000000
 40
0.000000
 40
0.000000
 40
0.000000
 40
0.792731
 40
1.561910
 40
2.354942
 40
3.147495
 40
3.916545
 40
4.709269
 40
5.501993
 40
6.271043
 40
7.063596
 40
7.856627
 40
8.625807
 40
9.418538
 40
9.418538
 40
9.418538
 40
9.418538
 10
277.561060
 20
263.866060
 30
0.0
 10
277.519402
 20
264.133343
 30
0.0
 10
277.437325
 20
264.659967
 30
0.0
 10
276.833447
 20
265.239631
 30
0.0
 10
276.046015
 20
265.454201
 30
0.0
 10
275.250394
 20
265.239560
 30
0.0
 10
274.671117
 20
264.659900
 30
0.0
 10
274.456234
 20
263.866060
 30
0.0
 10
274.671117
 20
263.072220
 30
0.0
 10
275.250394
 20
262.492560
 30
0.0
 10
276.046015
 20
262.277919
 30
0.0
 10
276.833447
 20
262.492489
 30
0.0
 10
277.437325
 20
263.072153
 30
0.0
 10
277.519402
 20
263.598777
 30
0.0
 10
277.561060
 20
263.866060
 30
0.0
 11
277.561060
 21
263.866060
 31
0.0
 11
277.354058
 21
264.631287
 31
0.0
 11
276.810035
 21
265.175048
 31
0.0
 11
276.044468
 21
265.381946
 31
0.0
 11
275.279398
 21
265.175048
 31
0.0
 11
274.735558
 21
264.631287
 31
0.0
 11
274.528582
 21
263.866060
 31
0.0
 11
274.735558
 21
263.100833
 31
0.0
 11
275.279398
 21
262.557071
 31
0.0
 11
276.044468
 21
262.350174
 31
0.0
 11
276.810035
 21
262.557071
 31
0.0
 11
277.354058
 21
263.100833
 31
0.0
 11
277.561060
 21
263.866060
 31
0.0
  0
LINE
  5
13f
100
AcDbEntity
  8
Layer_1
 62
7
100
AcDbLine
 10
83.075557
 20
21.613405
 30
0.0
 11
179.390946
 21
21.613405
 31
0.0
  0
SPLINE
  5
140
100
AcDbEntity
  8
Layer_1
 62
7
100
AcDbSpline
 70
0
 71
3
 72
10
 73
6
 74
4
 40
0.000000
 40
0.000000
 40
0.000000
 40
0.000000
 40
0.522865
 40
1.030000
 40
1.552457
 40
1.552457
 40
1.552457
 40
1.552457
 10
179.390805
 20
21.613405
 30
0.0
 10
179.566036
 20
21.640894
 30
0.0
 10
179.911228
 20
21.695046
 30
0.0
 10
180.308914
 20
22.092689
 30
0.0
 10
180.363087
 20
22.437734
 30
0.0
 10
180.390577
 20
22.612824
 30
0.0
 11
179.390805
 21
21.613405
 31
0.0
 11
179.895538
 21
21.749904
 31
0.0
 11
180.254144
 21
22.108496
 31
0.0
 11
180.390577
 21
22.612824
 31
0.0
  0
LINE
  5
141
100
AcDbEntity
  8
Layer_1
 62
7
100
AcDbLine
 10
82.076138
 20
50.600082
 30
0.0
 11
82.076138
 21
22.612810
 31
0.0
  0
LINE
  5
142
100
AcDbEntity
  8
Layer_1
 62
7
100
AcDbLine
 10
106.344779
 20
50.600082
 30
0.0
 11
82.076138
 21
50.600082
 31
0.0
  0
LINE
  5
143
100
AcDbEntity
  8
Layer_1
 62
7
100
AcDbLine
 10
106.344779
 20
55.727778
 30
0.0
 11
106.344779
 21
50.600153
 31
0.0
  0
LINE
  5
144
100
AcDbEntity
  8
Layer_1
 62
7
100
AcDbLine
 10
106.344779
 20
55.727778
 30
0.0
 11
122.936976
 21
55.727778
 31
0.0
  0
LINE
  5
145
100
AcDbEntity
  8
Layer_1
 62
7
100
AcDbLine
 10
122.937047
 20
55.727778
 30
0.0
 11
122.937047
 21
50.600153
 31
0.0
  0
LINE
  5
146
100
AcDbEntity
  8
Layer_1
 62
7
100
AcDbLine
 10
129.735605
 20
50.600082
 30
0.0
 11
122.937225
 21
50.600082
 31
0.0
  0
LINE
  5
147
100
AcDbEntity
  8
Layer_1
 62
7
100
AcDbLine
 10
129.735605
 20
50.600082
 30
0.0
 11
129.735605
 21
46.606991
 31
0.0
  0
LINE
  5
148
100
AcDbEntity
  8
Layer_1
 62
7
100
AcDbLine
 10
129.735605
 20
46.606892
 30
0.0
 11
128.376705
 21
46.606892
 31
0.0
  0
LINE
  5
149
100
AcDbEntity
  8
Layer_1
 62
7
100
AcDbLine
 10
128.376847
 20
46.606892
 30
0.0
 11
128.376847
 21
44.440836
 31
0.0
  0
LINE
  5
14a
100
AcDbEntity
  8
Layer_1
 62
7
100
AcDbLine
 10
128.376847
 20
44.440977
 30
0.0
 11
129.735747
 21
44.440977
 31
0.0
  0
LINE
  5
14b
100
AcDbEntity
  8
Layer_1
 62
7
100
AcDbLine
 10
129.735605
 20
44.440977
 30
0.0
 11
129.735605
 21
38.236675
 31
0.0
  0
LINE
  5
14c
100
AcDbEntity
  8
Layer_1
 62
7
100
AcDbLine
 10
129.735605
 20
38.236689
 30
0.0
 11
132.731042
 21
38.236689
 31
0.0
  0
LINE
  5
14d
100
AcDbEntity
  8
Layer_1
 62
7
100
AcDbLine
 10
132.731109
 20
38.236689
 30
0.0
 11
132.731109
 21
44.440992
 31
0.0
  0
LINE
  5
14e
100
AcDbEntity
  8
Layer_1
 62
7
100
AcDbLine
 10
132.731109
 20
44.440977
 30
0.0
 11
134.089656
 21
44.440977
 31
0.0
  0
LINE
  5
14f
100
AcDbEntity
  8
Layer_1
 62
7
100
AcDbLine
 10
134.089515
 20
44.440977
 30
0.0
 11
134.089515
 21
46.607033
 31
0.0
  0
LINE
  5
150
100
AcDbEntity
  8
Layer_1
 62
7
100
AcDbLine
 10
134.089515
 20
46.606892
 30
0.0
 11
132.730968
 21
46.606892
 31
0.0
  0
LINE
  5
151
100
AcDbEntity
  8
Layer_1
 62
7
100
AcDbLine
 10
132.731109
 20
46.606892
 30
0.0
 11
132.731109
 21
50.599984
 31
0.0
  0
SPLINE
  5
152
100
AcDbEntity
  8
Layer_1
 62
7
100
AcDbSpline
 70
0
 71
3
 72
10
 73
6
 74
4
 40
0.000000
 40
0.000000
 40
0.000000
 40
0.000000
 40
0.522454
 40
1.029524
 40
1.552149
 40
1.552149
 40
1.552149
 40
1.552149
 10
82.076138
 20
22.612867
 30
0.0
 10
82.103626
 20
22.437781
 30
0.0
 10
82.157794
 20
22.092764
 30
0.0
 10
82.555325
 20
21.695130
 30
0.0
 10
82.900409
 20
21.640948
 30
0.0
 10
83.075557
 20
21.613447
 30
0.0
 11
82.076138
 21
22.612867
 31
0.0
 11
82.212558
 21
22.108538
 31
0.0
 11
82.571072
 21
21.749946
 31
0.0
 11
83.075557
 21
21.613447
 31
0.0
  0
LINE
  5
153
100
AcDbEntity
  8
Layer_1
 62
7
100
AcDbLine
 10
172.428278
 20
37.106332
 30
0.0
 11
172.428278
 21
37.106332
 31
0.0
  0
SPLINE
  5
154
100
AcDbEntity
  8
Layer_1
 62
7
100
AcDbSpline
 70
0
 71
3
 72
19
 73
15
 74
13
 40
0.000000
 40
0.000000
 40
0.000000
 40
0.000000
 40
0.836190
 40
1.647462
 40
2.483653
 40
3.319843
 40
4.131115
 40
4.967305
 40
5.803496
 40
6.614768
 40
7.450958
 40
8.287148
 40
9.098420
 40
9.934611
 40
9.934611
 40
9.934611
 40
9.934611
 10
172.428278
 20
37.106332
 30
0.0
 10
172.384348
 20
37.388262
 30
0.0
 10
172.297797
 20
37.943719
 30
0.0
 10
171.661125
 20
38.555260
 30
0.0
 10
170.830603
 20
38.781717
 30
0.0
 10
169.991368
 20
38.555260
 30
0.0
 10
169.380320
 20
37.943719
 30
0.0
 10
169.153695
 20
37.106332
 30
0.0
 10
169.380320
 20
36.268945
 30
0.0
 10
169.991368
 20
35.657405
 30
0.0
 10
170.830603
 20
35.430948
 30
0.0
 10
171.661125
 20
35.657405
 30
0.0
 10
172.297797
 20
36.268945
 30
0.0
 10
172.384348
 20
36.824403
 30
0.0
 10
172.428278
 20
37.106332
 30
0.0
 11
172.428278
 21
37.106332
 31
0.0
 11
172.209987
 21
37.913527
 31
0.0
 11
171.636331
 21
38.487183
 31
0.0
 11
170.829137
 21
38.705474
 31
0.0
 11
170.021942
 21
38.487183
 31
0.0
 11
169.448286
 21
37.913527
 31
0.0
 11
169.229995
 21
37.106332
 31
0.0
 11
169.448286
 21
36.299138
 31
0.0
 11
170.021942
 21
35.725482
 31
0.0
 11
170.829137
 21
35.507191
 31
0.0
 11
171.636331
 21
35.725482
 31
0.0
 11
172.209987
 21
36.299138
 31
0.0
 11
172.428278
 21
37.106332
 31
0.0
  0
LINE
  5
155
100
AcDbEntity
  8
Layer_1
 62
7
100
AcDbLine
 10
93.236898
 20
37.106332
 30
0.0
 11
93.236898
 21
37.106332
 31
0.0
  0
LINE
  5
156
100
AcDbEntity
  8
Layer_1
 62
7
100
AcDbLine
 10
156.121935
 20
55.727778
 30
0.0
 11
156.121935
 21
50.600153
 31
0.0
  0
LINE
  5
157
100
AcDbEntity
  8
Layer_1
 62
7
100
AcDbLine
 10
7.525568
 20
25.509595
 30
0.0
 11
75.312171
 21
25.509595
 31
0.0
  0
LINE
  5
158
100
AcDbEntity
  8
Layer_1
 62
7
100
AcDbLine
 10
7.525568
 20
37.505423
 30
0.0
 11
7.525568
 21
25.509567
 31
0.0
  0
LINE
  5
159
100
AcDbEntity
  8
Layer_1
 62
7
100
AcDbLine
 10
11.518448
 20
37.505423
 30
0.0
 11
7.525710
 21
37.505423
 31
0.0
  0
LINE
  5
15a
100
AcDbEntity
  8
Layer_1
 62
7
100
AcDbLine
 10
11.518448
 20
36.146664
 30
0.0
 11
11.518448
 21
37.505564
 31
0.0
  0
LINE
  5
15b
100
AcDbEntity
  8
Layer_1
 62
7
100
AcDbLine
 10
13.684730
 20
36.146664
 30
0.0
 11
11.518321
 21
36.146664
 31
0.0
  0
LINE
  5
15c
100
AcDbEntity
  8
Layer_1
 62
7
100
AcDbLine
 10
13.684730
 20
37.505423
 30
0.0
 11
13.684730
 21
36.146523
 31
0.0
  0
LINE
  5
15d
100
AcDbEntity
  8
Layer_1
 62
7
100
AcDbLine
 10
19.888623
 20
37.505423
 30
0.0
 11
13.684673
 21
37.505423
 31
0.0
  0
LINE
  5
15e
100
AcDbEntity
  8
Layer_1
 62
7
100
AcDbLine
 10
19.888623
 20
40.500563
 30
0.0
 11
19.888623
 21
37.505479
 31
0.0
  0
LINE
  5
15f
100
AcDbEntity
  8
Layer_1
 62
7
100
AcDbLine
 10
13.684730
 20
40.500563
 30
0.0
 11
19.888680
 21
40.500563
 31
0.0
  0
LINE
  5
160
100
AcDbEntity
  8
Layer_1
 62
7
100
AcDbLine
 10
13.684730
 20
41.859321
 30
0.0
 11
13.684730
 21
40.500421
 31
0.0
  0
LINE
  5
161
100
AcDbEntity
  8
Layer_1
 62
7
100
AcDbLine
 10
11.518448
 20
41.859321
 30
0.0
 11
13.684857
 21
41.859321
 31
0.0
  0
LINE
  5
162
100
AcDbEntity
  8
Layer_1
 62
7
100
AcDbLine
 10
11.518448
 20
40.500563
 30
0.0
 11
11.518448
 21
41.859463
 31
0.0
  0
LINE
  5
163
100
AcDbEntity
  8
Layer_1
 62
7
100
AcDbLine
 10
7.525568
 20
40.500563
 30
0.0
 11
11.518307
 21
40.500563
 31
0.0
  0
LINE
  5
164
100
AcDbEntity
  8
Layer_1
 62
7
100
AcDbLine
 10
7.525568
 20
52.497095
 30
0.0
 11
7.525568
 21
40.500534
 31
0.0
  0
LINE
  5
165
100
AcDbEntity
  8
Layer_1
 62
7
100
AcDbLine
 10
16.530348
 20
52.497095
 30
0.0
 11
7.525695
 21
52.497095
 31
0.0
  0
LINE
  5
166
100
AcDbEntity
  8
Layer_1
 62
7
100
AcDbLine
 10
16.530348
 20
57.624763
 30
0.0
 11
16.530348
 21
52.497138
 31
0.0
  0
LINE
  5
167
100
AcDbEntity
  8
Layer_1
 62
7
100
AcDbLine
 10
16.530348
 20
57.624763
 30
0.0
 11
33.122545
 21
57.624763
 31
0.0
  0
LINE
  5
168
100
AcDbEntity
  8
Layer_1
 62
7
100
AcDbLine
 10
33.122630
 20
57.624763
 30
0.0
 11
33.122630
 21
52.497138
 31
0.0
  0
LINE
  5
169
100
AcDbEntity
  8
Layer_1
 62
7
100
AcDbLine
 10
39.921186
 20
52.497095
 30
0.0
 11
33.122805
 21
52.497095
 31
0.0
  0
LINE
  5
16a
100
AcDbEntity
  8
Layer_1
 62
7
100
AcDbLine
 10
39.921186
 20
48.503538
 30
0.0
 11
39.921186
 21
52.496983
 31
0.0
  0
LINE
  5
16b
100
AcDbEntity
  8
Layer_1
 62
7
100
AcDbLine
 10
38.562430
 20
48.503538
 30
0.0
 11
39.921330
 21
48.503538
 31
0.0
  0
LINE
  5
16c
100
AcDbEntity
  8
Layer_1
 62
7
100
AcDbLine
 10
38.562430
 20
46.337962
 30
0.0
 11
38.562430
 21
48.503665
 31
0.0
  0
LINE
  5
16d
100
AcDbEntity
  8
Layer_1
 62
7
100
AcDbLine
 10
39.921186
 20
46.337962
 30
0.0
 11
38.562286
 21
46.337962
 31
0.0
  0
LINE
  5
16e
100
AcDbEntity
  8
Layer_1
 62
7
100
AcDbLine
 10
39.921186
 20
40.133335
 30
0.0
 11
39.921186
 21
46.337991
 31
0.0
  0
LINE
  5
16f
100
AcDbEntity
  8
Layer_1
 62
7
100
AcDbLine
 10
42.916692
 20
40.133335
 30
0.0
 11
39.921256
 21
40.133335
 31
0.0
  0
LINE
  5
170
100
AcDbEntity
  8
Layer_1
 62
7
100
AcDbLine
 10
42.916692
 20
46.337962
 30
0.0
 11
42.916692
 21
40.133307
 31
0.0
  0
LINE
  5
171
100
AcDbEntity
  8
Layer_1
 62
7
100
AcDbLine
 10
44.275098
 20
46.337962
 30
0.0
 11
42.916551
 21
46.337962
 31
0.0
  0
LINE
  5
172
100
AcDbEntity
  8
Layer_1
 62
7
100
AcDbLine
 10
44.275098
 20
48.503538
 30
0.0
 11
44.275098
 21
46.337835
 31
0.0
  0
LINE
  5
173
100
AcDbEntity
  8
Layer_1
 62
7
100
AcDbLine
 10
42.916692
 20
48.503538
 30
0.0
 11
44.275240
 21
48.503538
 31
0.0
  0
LINE
  5
174
100
AcDbEntity
  8
Layer_1
 62
7
100
AcDbLine
 10
42.916692
 20
52.497095
 30
0.0
 11
42.916692
 21
48.503651
 31
0.0
  0
LINE
  5
175
100
AcDbEntity
  8
Layer_1
 62
7
100
AcDbLine
 10
49.714898
 20
52.497095
 30
0.0
 11
42.916517
 21
52.497095
 31
0.0
  0
LINE
  5
176
100
AcDbEntity
  8
Layer_1
 62
7
100
AcDbLine
 10
49.714898
 20
57.624763
 30
0.0
 11
49.714898
 21
52.497138
 31
0.0
  0
LINE
  5
177
100
AcDbEntity
  8
Layer_1
 62
7
100
AcDbLine
 10
49.714898
 20
57.624763
 30
0.0
 11
66.307095
 21
57.624763
 31
0.0
  0
LINE
  5
178
100
AcDbEntity
  8
Layer_1
 62
7
100
AcDbLine
 10
66.307166
 20
57.624763
 30
0.0
 11
66.307166
 21
52.497138
 31
0.0
  0
LINE
  5
179
100
AcDbEntity
  8
Layer_1
 62
7
100
AcDbLine
 10
75.312312
 20
52.497095
 30
0.0
 11
66.307307
 21
52.497095
 31
0.0
  0
LINE
  5
17a
100
AcDbEntity
  8
Layer_1
 62
7
100
AcDbLine
 10
75.312312
 20
40.500563
 30
0.0
 11
75.312312
 21
52.497124
 31
0.0
  0
LINE
  5
17b
100
AcDbEntity
  8
Layer_1
 62
7
100
AcDbLine
 10
71.319080
 20
40.500563
 30
0.0
 11
75.312171
 21
40.500563
 31
0.0
  0
LINE
  5
17c
100
AcDbEntity
  8
Layer_1
 62
7
100
AcDbLine
 10
71.319080
 20
41.859321
 30
0.0
 11
71.319080
 21
40.500421
 31
0.0
  0
LINE
  5
17d
100
AcDbEntity
  8
Layer_1
 62
7
100
AcDbLine
 10
69.152812
 20
41.859321
 30
0.0
 11
71.319221
 21
41.859321
 31
0.0
  0
LINE
  5
17e
100
AcDbEntity
  8
Layer_1
 62
7
100
AcDbLine
 10
69.152812
 20
40.500563
 30
0.0
 11
69.152812
 21
41.859463
 31
0.0
  0
LINE
  5
17f
100
AcDbEntity
  8
Layer_1
 62
7
100
AcDbLine
 10
62.948896
 20
40.500563
 30
0.0
 11
69.152846
 21
40.500563
 31
0.0
  0
LINE
  5
180
100
AcDbEntity
  8
Layer_1
 62
7
100
AcDbLine
 10
62.948896
 20
37.505423
 30
0.0
 11
62.948896
 21
40.500506
 31
0.0
  0
LINE
  5
181
100
AcDbEntity
  8
Layer_1
 62
7
100
AcDbLine
 10
69.152812
 20
37.505423
 30
0.0
 11
62.948862
 21
37.505423
 31
0.0
  0
LINE
  5
182
100
AcDbEntity
  8
Layer_1
 62
7
100
AcDbLine
 10
69.152812
 20
36.146664
 30
0.0
 11
69.152812
 21
37.505564
 31
0.0
  0
LINE
  5
183
100
AcDbEntity
  8
Layer_1
 62
7
100
AcDbLine
 10
71.319080
 20
36.146664
 30
0.0
 11
69.152671
 21
36.146664
 31
0.0
  0
LINE
  5
184
100
AcDbEntity
  8
Layer_1
 62
7
100
AcDbLine
 10
71.319080
 20
37.505423
 30
0.0
 11
71.319080
 21
36.146523
 31
0.0
  0
LINE
  5
185
100
AcDbEntity
  8
Layer_1
 62
7
100
AcDbLine
 10
75.312312
 20
37.505423
 30
0.0
 11
71.319221
 21
37.505423
 31
0.0
  0
LINE
  5
186
100
AcDbEntity
  8
Layer_1
 62
7
100
AcDbLine
 10
75.312312
 20
25.509595
 30
0.0
 11
75.312312
 21
37.505451
 31
0.0
  0
LINE
  5
187
100
AcDbEntity
  8
Layer_1
 62
7
100
AcDbLine
 10
182.734520
 20
441.061828
 30
0.0
 11
182.734520
 21
333.031747
 31
0.0
  0
SPLINE
  5
188
100
AcDbEntity
  8
Layer_1
 62
7
100
AcDbSpline
 70
0
 71
3
 72
19
 73
15
 74
13
 40
0.000000
 40
0.000000
 40
0.000000
 40
0.000000
 40
0.836190
 40
1.647462
 40
2.483653
 40
3.319843
 40
4.131115
 40
4.967305
 40
5.803496
 40
6.614768
 40
7.450958
 40
8.287148
 40
9.098420
 40
9.934611
 40
9.934611
 40
9.934611
 40
9.934611
 10
93.236898
 20
37.106332
 30
0.0
 10
93.192967
 20
37.388262
 30
0.0
 10
93.106416
 20
37.943719
 30
0.0
 10
92.469744
 20
38.555260
 30
0.0
 10
91.639223
 20
38.781717
 30
0.0
 10
90.799987
 20
38.555260
 30
0.0
 10
90.188939
 20
37.943719
 30
0.0
 10
89.962315
 20
37.106332
 30
0.0
 10
90.188939
 20
36.268945
 30
0.0
 10
90.799987
 20
35.657405
 30
0.0
 10
91.639223
 20
35.430948
 30
0.0
 10
92.469744
 20
35.657405
 30
0.0
 10
93.106416
 20
36.268945
 30
0.0
 10
93.192967
 20
36.824403
 30
0.0
 10
93.236898
 20
37.106332
 30
0.0
 11
93.236898
 21
37.106332
 31
0.0
 11
93.018607
 21
37.913527
 31
0.0
 11
92.444951
 21
38.487183
 31
0.0
 11
91.637756
 21
38.705474
 31
0.0
 11
90.830561
 21
38.487183
 31
0.0
 11
90.256905
 21
37.913527
 31
0.0
 11
90.038614
 21
37.106332
 31
0.0
 11
90.256905
 21
36.299138
 31
0.0
 11
90.830561
 21
35.725482
 31
0.0
 11
91.637756
 21
35.507191
 31
0.0
 11
92.444951
 21
35.725482
 31
0.0
 11
93.018607
 21
36.299138
 31
0.0
 11
93.236898
 21
37.106332
 31
0.0
  0
LINE
  5
189
100
AcDbEntity
  8
Layer_1
 62
7
100
AcDbLine
 10
368.098719
 20
453.755972
 30
0.0
 11
195.428814
 21
453.755972
 31
0.0
  0
SPLINE
  5
18a
100
AcDbEntity
  8
Layer_1
 62
7
100
AcDbSpline
 70
0
 71
3
 72
10
 73
6
 74
4
 40
0.000000
 40
0.000000
 40
0.000000
 40
0.000000
 40
6.637193
 40
13.077497
 40
19.714690
 40
19.714690
 40
19.714690
 40
19.714690
 10
195.428622
 20
453.755972
 30
0.0
 10
193.204297
 20
453.406827
 30
0.0
 10
188.821630
 20
452.718895
 30
0.0
 10
183.771695
 20
447.668960
 30
0.0
 10
183.083763
 20
443.286294
 30
0.0
 10
182.734619
 20
441.061969
 30
0.0
 11
195.428622
 21
453.755972
 31
0.0
 11
189.021694
 21
452.022879
 31
0.0
 11
184.467712
 21
447.468897
 31
0.0
 11
182.734619
 21
441.061969
 31
0.0
  0
LINE
  5
18b
100
AcDbEntity
  8
Layer_1
 62
7
100
AcDbLine
 10
380.792860
 20
333.031888
 30
0.0
 11
380.792860
 21
441.061969
 31
0.0
  0
SPLINE
  5
18c
100
AcDbEntity
  8
Layer_1
 62
7
100
AcDbSpline
 70
0
 71
3
 72
10
 73
6
 74
4
 40
0.000000
 40
0.000000
 40
0.000000
 40
0.000000
 40
6.637193
 40
13.077497
 40
19.714690
 40
19.714690
 40
19.714690
 40
19.714690
 10
380.792860
 20
441.061828
 30
0.0
 10
380.443716
 20
443.286153
 30
0.0
 10
379.755784
 20
447.668819
 30
0.0
 10
374.705849
 20
452.718754
 30
0.0
 10
370.323182
 20
453.406686
 30
0.0
 10
368.098857
 20
453.755831
 30
0.0
 11
380.792860
 21
441.061828
 31
0.0
 11
379.059767
 21
447.468756
 31
0.0
 11
374.505785
 21
452.022738
 31
0.0
 11
368.098857
 21
453.755831
 31
0.0
  0
LINE
  5
18d
100
AcDbEntity
  8
Layer_1
 62
7
100
AcDbLine
 10
195.428622
 20
320.337742
 30
0.0
 11
368.098527
 21
320.337742
 31
0.0
  0
SPLINE
  5
18e
100
AcDbEntity
  8
Layer_1
 62
7
100
AcDbSpline
 70
0
 71
3
 72
10
 73
6
 74
4
 40
0.000000
 40
0.000000
 40
0.000000
 40
0.000000
 40
6.637193
 40
13.077497
 40
19.714690
 40
19.714690
 40
19.714690
 40
19.714690
 10
368.098719
 20
320.337742
 30
0.0
 10
370.323044
 20
320.686886
 30
0.0
 10
374.705710
 20
321.374818
 30
0.0
 10
379.755646
 20
326.424753
 30
0.0
 10
380.443577
 20
330.807419
 30
0.0
 10
380.792722
 20
333.031744
 30
0.0
 11
368.098719
 21
320.337742
 31
0.0
 11
374.505647
 21
322.070834
 31
0.0
 11
379.059629
 21
326.624817
 31
0.0
 11
380.792722
 21
333.031744
 31
0.0
  0
LINE
  5
18f
100
AcDbEntity
  8
Layer_1
 62
7
100
AcDbLine
 10
194.859013
 20
357.620217
 30
0.0
 11
194.859013
 21
416.473076
 31
0.0
  0
LINE
  5
190
100
AcDbEntity
  8
Layer_1
 62
7
100
AcDbLine
 10
194.859013
 20
416.473146
 30
0.0
 11
189.731388
 21
416.473146
 31
0.0
  0
LINE
  5
191
100
AcDbEntity
  8
Layer_1
 62
7
100
AcDbLine
 10
189.731317
 20
416.473146
 30
0.0
 11
189.731317
 21
357.620288
 31
0.0
  0
LINE
  5
192
100
AcDbEntity
  8
Layer_1
 62
7
100
AcDbLine
 10
189.731317
 20
357.620217
 30
0.0
 11
194.858942
 21
357.620217
 31
0.0
  0
SPLINE
  5
193
100
AcDbEntity
  8
Layer_1
 62
7
100
AcDbSpline
 70
0
 71
3
 72
10
 73
6
 74
4
 40
0.000000
 40
0.000000
 40
0.000000
 40
0.000000
 40
6.637193
 40
13.077497
 40
19.714690
 40
19.714690
 40
19.714690
 40
19.714690
 10
182.734520
 20
333.031888
 30
0.0
 10
183.083665
 20
330.807563
 30
0.0
 10
183.771596
 20
326.424897
 30
0.0
 10
188.821532
 20
321.374962
 30
0.0
 10
193.204198
 20
320.687030
 30
0.0
 10
195.428523
 20
320.337886
 30
0.0
 11
182.734520
 21
333.031888
 31
0.0
 11
184.467613
 21
326.624961
 31
0.0
 11
189.021595
 21
322.070978
 31
0.0
 11
195.428523
 21
320.337886
 31
0.0
  0
LINE
  5
194
100
AcDbEntity
  8
Layer_1
 62
7
100
AcDbLine
 10
223.850530
 20
444.200314
 30
0.0
 11
223.850530
 21
444.200314
 31
0.0
  0
SPLINE
  5
195
100
AcDbEntity
  8
Layer_1
 62
7
100
AcDbSpline
 70
0
 71
3
 72
19
 73
15
 74
13
 40
0.000000
 40
0.000000
 40
0.000000
 40
0.000000
 40
0.784049
 40
1.544692
 40
2.328570
 40
3.112447
 40
3.873090
 40
4.657139
 40
5.441037
 40
6.201735
 40
6.985633
 40
7.769531
 40
8.530229
 40
9.314127
 40
9.314127
 40
9.314127
 40
9.314127
 10
223.850530
 20
444.200314
 30
0.0
 10
223.809329
 20
444.464664
 30
0.0
 10
223.728157
 20
444.985473
 30
0.0
 10
223.131191
 20
445.558768
 30
0.0
 10
222.352601
 20
445.771105
 30
0.0
 10
221.565837
 20
445.558768
 30
0.0
 10
220.992910
 20
444.985475
 30
0.0
 10
220.780346
 20
444.200358
 30
0.0
 10
220.992967
 20
443.415264
 30
0.0
 10
221.565817
 20
442.841959
 30
0.0
 10
222.352601
 20
442.629475
 30
0.0
 10
223.131211
 20
442.841959
 30
0.0
 10
223.728098
 20
443.415262
 30
0.0
 10
223.809313
 20
443.936023
 30
0.0
 10
223.850530
 20
444.200314
 30
0.0
 11
223.850530
 21
444.200314
 31
0.0
 11
223.645815
 21
444.957166
 31
0.0
 11
223.107920
 21
445.494982
 31
0.0
 11
222.351225
 21
445.699619
 31
0.0
 11
221.594529
 21
445.494982
 31
0.0
 11
221.056635
 21
444.957166
 31
0.0
 11
220.851919
 21
444.200314
 31
0.0
 11
221.056635
 21
443.443619
 31
0.0
 11
221.594529
 21
442.905724
 31
0.0
 11
222.351225
 21
442.701008
 31
0.0
 11
223.107920
 21
442.905724
 31
0.0
 11
223.645815
 21
443.443619
 31
0.0
 11
223.850530
 21
444.200314
 31
0.0
  0
LINE
  5
196
100
AcDbEntity
  8
Layer_1
 62
7
100
AcDbLine
 10
342.675292
 20
444.200314
 30
0.0
 11
342.675292
 21
444.200314
 31
0.0
  0
LINE
  5
197
100
AcDbEntity
  8
Layer_1
 62
7
100
AcDbLine
 10
311.189878
 20
441.631635
 30
0.0
 11
311.189878
 21
446.759260
 31
0.0
  0
LINE
  5
198
100
AcDbEntity
  8
Layer_1
 62
7
100
AcDbLine
 10
311.189878
 20
446.759152
 30
0.0
 11
252.337372
 21
446.759152
 31
0.0
  0
LINE
  5
199
100
AcDbEntity
  8
Layer_1
 62
7
100
AcDbLine
 10
252.337336
 20
446.759152
 30
0.0
 11
252.337336
 21
441.631527
 31
0.0
  0
LINE
  5
19a
100
AcDbEntity
  8
Layer_1
 62
7
100
AcDbLine
 10
252.337336
 20
441.631635
 30
0.0
 11
311.189841
 21
441.631635
 31
0.0
  0
SPLINE
  5
19b
100
AcDbEntity
  8
Layer_1
 62
7
100
AcDbSpline
 70
0
 71
3
 72
19
 73
15
 74
13
 40
0.000000
 40
0.000000
 40
0.000000
 40
0.000000
 40
0.784029
 40
1.544616
 40
2.328645
 40
3.112523
 40
3.873165
 40
4.657215
 40
5.441113
 40
6.201811
 40
6.985709
 40
7.769758
 40
8.530401
 40
9.314278
 40
9.314278
 40
9.314278
 40
9.314278
 10
342.675292
 20
444.200314
 30
0.0
 10
342.634119
 20
444.464661
 30
0.0
 10
342.553003
 20
444.985451
 30
0.0
 10
341.956063
 20
445.558832
 30
0.0
 10
341.177406
 20
445.771091
 30
0.0
 10
340.390600
 20
445.558775
 30
0.0
 10
339.817671
 20
444.985473
 30
0.0
 10
339.605108
 20
444.200358
 30
0.0
 10
339.817728
 20
443.415266
 30
0.0
 10
340.390580
 20
442.841952
 30
0.0
 10
341.177405
 20
442.629488
 30
0.0
 10
341.956083
 20
442.841895
 30
0.0
 10
342.552944
 20
443.415284
 30
0.0
 10
342.634102
 20
443.936026
 30
0.0
 10
342.675292
 20
444.200314
 30
0.0
 11
342.675292
 21
444.200314
 31
0.0
 11
342.470655
 21
444.957166
 31
0.0
 11
341.932838
 21
445.494982
 31
0.0
 11
341.175986
 21
445.699619
 31
0.0
 11
340.419291
 21
445.494982
 31
0.0
 11
339.881396
 21
444.957166
 31
0.0
 11
339.676681
 21
444.200314
 31
0.0
 11
339.881396
 21
443.443619
 31
0.0
 11
340.419291
 21
442.905724
 31
0.0
 11
341.175986
 21
442.701008
 31
0.0
 11
341.932838
 21
442.905724
 31
0.0
 11
342.470655
 21
443.443619
 31
0.0
 11
342.675292
 21
444.200314
 31
0.0
  0
LINE
  5
19c
100
AcDbEntity
  8
Layer_1
 62
7
100
AcDbLine
 10
193.789475
 20
337.629712
 30
0.0
 11
193.789475
 21
337.629712
 31
0.0
  0
SPLINE
  5
19d
100
AcDbEntity
  8
Layer_1
 62
7
100
AcDbSpline
 70
0
 71
3
 72
19
 73
15
 74
13
 40
0.000000
 40
0.000000
 40
0.000000
 40
0.000000
 40
0.784049
 40
1.544692
 40
2.328570
 40
3.112447
 40
3.873090
 40
4.657139
 40
5.441189
 40
6.201831
 40
6.985709
 40
7.769586
 40
8.530229
 40
9.314278
 40
9.314278
 40
9.314278
 40
9.314278
 10
193.789475
 20
337.629712
 30
0.0
 10
193.748274
 20
337.894062
 30
0.0
 10
193.667101
 20
338.414871
 30
0.0
 10
193.070135
 20
338.988166
 30
0.0
 10
192.291545
 20
339.200502
 30
0.0
 10
191.504783
 20
338.988166
 30
0.0
 10
190.931847
 20
338.414871
 30
0.0
 10
190.719304
 20
337.629712
 30
0.0
 10
190.931847
 20
336.844553
 30
0.0
 10
191.504783
 20
336.271258
 30
0.0
 10
192.291545
 20
336.058921
 30
0.0
 10
193.070135
 20
336.271258
 30
0.0
 10
193.667101
 20
336.844553
 30
0.0
 10
193.748274
 20
337.365361
 30
0.0
 10
193.789475
 20
337.629712
 30
0.0
 11
193.789475
 21
337.629712
 31
0.0
 11
193.584759
 21
338.386564
 31
0.0
 11
193.046865
 21
338.924380
 31
0.0
 11
192.290169
 21
339.129017
 31
0.0
 11
191.533474
 21
338.924380
 31
0.0
 11
190.995580
 21
338.386564
 31
0.0
 11
190.790864
 21
337.629712
 31
0.0
 11
190.995580
 21
336.872860
 31
0.0
 11
191.533474
 21
336.335043
 31
0.0
 11
192.290169
 21
336.130406
 31
0.0
 11
193.046865
 21
336.335043
 31
0.0
 11
193.584759
 21
336.872860
 31
0.0
 11
193.789475
 21
337.629712
 31
0.0
  0
LINE
  5
19e
100
AcDbEntity
  8
Layer_1
 62
7
100
AcDbLine
 10
193.789475
 20
436.464002
 30
0.0
 11
193.789475
 21
436.464002
 31
0.0
  0
SPLINE
  5
19f
100
AcDbEntity
  8
Layer_1
 62
7
100
AcDbSpline
 70
0
 71
3
 72
19
 73
15
 74
13
 40
0.000000
 40
0.000000
 40
0.000000
 40
0.000000
 40
0.783898
 40
1.544596
 40
2.328494
 40
3.112392
 40
3.873090
 40
4.656988
 40
5.440886
 40
6.201584
 40
6.985482
 40
7.769380
 40
8.530078
 40
9.313976
 40
9.313976
 40
9.313976
 40
9.313976
 10
193.789475
 20
436.464002
 30
0.0
 10
193.748258
 20
436.728293
 30
0.0
 10
193.667042
 20
437.249053
 30
0.0
 10
193.070155
 20
437.822357
 30
0.0
 10
192.291546
 20
438.034841
 30
0.0
 10
191.504760
 20
437.822357
 30
0.0
 10
190.931919
 20
437.249053
 30
0.0
 10
190.719277
 20
436.464002
 30
0.0
 10
190.931919
 20
435.678950
 30
0.0
 10
191.504760
 20
435.105647
 30
0.0
 10
192.291546
 20
434.893162
 30
0.0
 10
193.070155
 20
435.105647
 30
0.0
 10
193.667042
 20
435.678950
 30
0.0
 10
193.748258
 20
436.199710
 30
0.0
 10
193.789475
 20
436.464002
 30
0.0
 11
193.789475
 21
436.464002
 31
0.0
 11
193.584759
 21
437.220697
 31
0.0
 11
193.046865
 21
437.758592
 31
0.0
 11
192.290169
 21
437.963307
 31
0.0
 11
191.533474
 21
437.758592
 31
0.0
 11
190.995580
 21
437.220697
 31
0.0
 11
190.790864
 21
436.464002
 31
0.0
 11
190.995580
 21
435.707306
 31
0.0
 11
191.533474
 21
435.169412
 31
0.0
 11
192.290169
 21
434.964696
 31
0.0
 11
193.046865
 21
435.169412
 31
0.0
 11
193.584759
 21
435.707306
 31
0.0
 11
193.789475
 21
436.464002
 31
0.0
  0
LINE
  5
1a0
100
AcDbEntity
  8
Layer_1
 62
7
100
AcDbLine
 10
372.736511
 20
436.464002
 30
0.0
 11
372.736511
 21
436.464002
 31
0.0
  0
LINE
  5
1a1
100
AcDbEntity
  8
Layer_1
 62
7
100
AcDbLine
 10
346.190336
 20
365.056807
 30
0.0
 11
368.668630
 21
365.056807
 31
0.0
  0
LINE
  5
1a2
100
AcDbEntity
  8
Layer_1
 62
7
100
AcDbLine
 10
368.668560
 20
365.056807
 30
0.0
 11
368.668560
 21
357.620251
 31
0.0
  0
LINE
  5
1a3
100
AcDbEntity
  8
Layer_1
 62
7
100
AcDbLine
 10
368.668560
 20
357.620217
 30
0.0
 11
373.796185
 21
357.620217
 31
0.0
  0
LINE
  5
1a4
100
AcDbEntity
  8
Layer_1
 62
7
100
AcDbLine
 10
373.796221
 20
357.620217
 30
0.0
 11
373.796221
 21
416.473076
 31
0.0
  0
LINE
  5
1a5
100
AcDbEntity
  8
Layer_1
 62
7
100
AcDbLine
 10
373.796221
 20
416.473146
 30
0.0
 11
368.668596
 21
416.473146
 31
0.0
  0
LINE
  5
1a6
100
AcDbEntity
  8
Layer_1
 62
7
100
AcDbLine
 10
368.668560
 20
416.473146
 30
0.0
 11
368.668560
 21
409.036591
 31
0.0
  0
LINE
  5
1a7
100
AcDbEntity
  8
Layer_1
 62
7
100
AcDbLine
 10
368.668560
 20
409.036732
 30
0.0
 11
346.190265
 21
409.036732
 31
0.0
  0
LINE
  5
1a8
100
AcDbEntity
  8
Layer_1
 62
7
100
AcDbLine
 10
346.190336
 20
409.036732
 30
0.0
 11
346.190336
 21
365.056985
 31
0.0
  0
SPLINE
  5
1a9
100
AcDbEntity
  8
Layer_1
 62
7
100
AcDbSpline
 70
0
 71
3
 72
19
 73
15
 74
13
 40
0.000000
 40
0.000000
 40
0.000000
 40
0.000000
 40
0.783878
 40
1.544520
 40
2.328570
 40
3.112468
 40
3.873166
 40
4.657064
 40
5.440962
 40
6.201660
 40
6.985558
 40
7.769607
 40
8.530250
 40
9.314127
 40
9.314127
 40
9.314127
 40
9.314127
 10
372.736511
 20
436.464002
 30
0.0
 10
372.695321
 20
436.728290
 30
0.0
 10
372.614163
 20
437.249032
 30
0.0
 10
372.017302
 20
437.822421
 30
0.0
 10
371.238625
 20
438.034828
 30
0.0
 10
370.451797
 20
437.822364
 30
0.0
 10
369.878954
 20
437.249052
 30
0.0
 10
369.666313
 20
436.464002
 30
0.0
 10
369.878954
 20
435.678952
 30
0.0
 10
370.451797
 20
435.105640
 30
0.0
 10
371.238625
 20
434.893176
 30
0.0
 10
372.017302
 20
435.105583
 30
0.0
 10
372.614163
 20
435.678972
 30
0.0
 10
372.695321
 20
436.199714
 30
0.0
 10
372.736511
 20
436.464002
 30
0.0
 11
372.736511
 21
436.464002
 31
0.0
 11
372.531874
 21
437.220697
 31
0.0
 11
371.994057
 21
437.758592
 31
0.0
 11
371.237205
 21
437.963307
 31
0.0
 11
370.480510
 21
437.758592
 31
0.0
 11
369.942615
 21
437.220697
 31
0.0
 11
369.737900
 21
436.464002
 31
0.0
 11
369.942615
 21
435.707306
 31
0.0
 11
370.480510
 21
435.169412
 31
0.0
 11
371.237205
 21
434.964696
 31
0.0
 11
371.994057
 21
435.169412
 31
0.0
 11
372.531874
 21
435.707306
 31
0.0
 11
372.736511
 21
436.464002
 31
0.0
  0
LINE
  5
1aa
100
AcDbEntity
  8
Layer_1
 62
7
100
AcDbLine
 10
372.736511
 20
337.629712
 30
0.0
 11
372.736511
 21
337.629712
 31
0.0
  0
SPLINE
  5
1ab
100
AcDbEntity
  8
Layer_1
 62
7
100
AcDbSpline
 70
0
 71
3
 72
19
 73
15
 74
13
 40
0.000000
 40
0.000000
 40
0.000000
 40
0.000000
 40
0.784029
 40
1.544616
 40
2.328645
 40
3.112523
 40
3.873165
 40
4.657215
 40
5.441264
 40
6.201906
 40
6.985784
 40
7.769813
 40
8.530400
 40
9.314429
 40
9.314429
 40
9.314429
 40
9.314429
 10
372.736511
 20
337.629712
 30
0.0
 10
372.695338
 20
337.894059
 30
0.0
 10
372.614222
 20
338.414849
 30
0.0
 10
372.017282
 20
338.988230
 30
0.0
 10
371.238624
 20
339.200489
 30
0.0
 10
370.451821
 20
338.988173
 30
0.0
 10
369.878883
 20
338.414869
 30
0.0
 10
369.666340
 20
337.629712
 30
0.0
 10
369.878883
 20
336.844555
 30
0.0
 10
370.451821
 20
336.271251
 30
0.0
 10
371.238624
 20
336.058934
 30
0.0
 10
372.017282
 20
336.271193
 30
0.0
 10
372.614222
 20
336.844575
 30
0.0
 10
372.695338
 20
337.365365
 30
0.0
 10
372.736511
 20
337.629712
 30
0.0
 11
372.736511
 21
337.629712
 31
0.0
 11
372.531874
 21
338.386564
 31
0.0
 11
371.994057
 21
338.924380
 31
0.0
 11
371.237205
 21
339.129017
 31
0.0
 11
370.480510
 21
338.924380
 31
0.0
 11
369.942615
 21
338.386564
 31
0.0
 11
369.737900
 21
337.629712
 31
0.0
 11
369.942615
 21
336.872860
 31
0.0
 11
370.480510
 21
336.335043
 31
0.0
 11
371.237205
 21
336.130406
 31
0.0
 11
371.994057
 21
336.335043
 31
0.0
 11
372.531874
 21
336.872860
 31
0.0
 11
372.736511
 21
337.629712
 31
0.0
  0
LINE
  5
1ac
100
AcDbEntity
  8
Layer_1
 62
7
100
AcDbLine
 10
342.675292
 20
329.893399
 30
0.0
 11
342.675292
 21
329.893399
 31
0.0
  0
LINE
  5
1ad
100
AcDbEntity
  8
Layer_1
 62
7
100
AcDbLine
 10
311.189878
 20
332.462082
 30
0.0
 11
252.337372
 21
332.462082
 31
0.0
  0
LINE
  5
1ae
100
AcDbEntity
  8
Layer_1
 62
7
100
AcDbLine
 10
252.337336
 20
332.462082
 30
0.0
 11
252.337336
 21
327.334457
 31
0.0
  0
LINE
  5
1af
100
AcDbEntity
  8
Layer_1
 62
7
100
AcDbLine
 10
252.337336
 20
327.334383
 30
0.0
 11
311.189841
 21
327.334383
 31
0.0
  0
LINE
  5
1b0
100
AcDbEntity
  8
Layer_1
 62
7
100
AcDbLine
 10
311.189878
 20
327.334383
 30
0.0
 11
311.189878
 21
332.462008
 31
0.0
  0
SPLINE
  5
1b1
100
AcDbEntity
  8
Layer_1
 62
7
100
AcDbSpline
 70
0
 71
3
 72
19
 73
15
 74
13
 40
0.000000
 40
0.000000
 40
0.000000
 40
0.000000
 40
0.783878
 40
1.544520
 40
2.328570
 40
3.112468
 40
3.873166
 40
4.657064
 40
5.441113
 40
6.201756
 40
6.985633
 40
7.769662
 40
8.530249
 40
9.314278
 40
9.314278
 40
9.314278
 40
9.314278
 10
342.675292
 20
329.893399
 30
0.0
 10
342.634102
 20
330.157687
 30
0.0
 10
342.552944
 20
330.678430
 30
0.0
 10
341.956083
 20
331.251819
 30
0.0
 10
341.177405
 20
331.464225
 30
0.0
 10
340.390580
 20
331.251762
 30
0.0
 10
339.817728
 20
330.678448
 30
0.0
 10
339.605108
 20
329.893355
 30
0.0
 10
339.817671
 20
329.108241
 30
0.0
 10
340.390600
 20
328.534939
 30
0.0
 10
341.177406
 20
328.322622
 30
0.0
 10
341.956063
 20
328.534881
 30
0.0
 10
342.553003
 20
329.108262
 30
0.0
 10
342.634119
 20
329.629052
 30
0.0
 10
342.675292
 20
329.893399
 30
0.0
 11
342.675292
 21
329.893399
 31
0.0
 11
342.470655
 21
330.650095
 31
0.0
 11
341.932838
 21
331.187989
 31
0.0
 11
341.175986
 21
331.392705
 31
0.0
 11
340.419291
 21
331.187989
 31
0.0
 11
339.881396
 21
330.650095
 31
0.0
 11
339.676681
 21
329.893399
 31
0.0
 11
339.881396
 21
329.136547
 31
0.0
 11
340.419291
 21
328.598731
 31
0.0
 11
341.175986
 21
328.394094
 31
0.0
 11
341.932838
 21
328.598731
 31
0.0
 11
342.470655
 21
329.136547
 31
0.0
 11
342.675292
 21
329.893399
 31
0.0
  0
LINE
  5
1b2
100
AcDbEntity
  8
Layer_1
 62
7
100
AcDbLine
 10
223.850530
 20
329.893399
 30
0.0
 11
223.850530
 21
329.893399
 31
0.0
  0
LINE
  5
1b3
100
AcDbEntity
  8
Layer_1
 62
7
100
AcDbLine
 10
253.102124
 20
338.019706
 30
0.0
 11
253.102124
 21
436.074289
 31
0.0
  0
LINE
  5
1b4
100
AcDbEntity
  8
Layer_1
 62
7
100
AcDbLine
 10
253.102124
 20
436.074185
 30
0.0
 11
212.720710
 21
436.074185
 31
0.0
  0
LINE
  5
1b5
100
AcDbEntity
  8
Layer_1
 62
7
100
AcDbLine
 10
212.720640
 20
436.074185
 30
0.0
 11
212.720640
 21
338.019602
 31
0.0
  0
LINE
  5
1b6
100
AcDbEntity
  8
Layer_1
 62
7
100
AcDbLine
 10
212.720640
 20
338.019706
 30
0.0
 11
253.102054
 21
338.019706
 31
0.0
  0
LINE
  5
1b7
100
AcDbEntity
  8
Layer_1
 62
7
100
AcDbLine
 10
336.313582
 20
365.056807
 30
0.0
 11
336.313582
 21
409.036554
 31
0.0
  0
LINE
  5
1b8
100
AcDbEntity
  8
Layer_1
 62
7
100
AcDbLine
 10
336.313582
 20
409.036732
 30
0.0
 11
292.333835
 21
409.036732
 31
0.0
  0
LINE
  5
1b9
100
AcDbEntity
  8
Layer_1
 62
7
100
AcDbLine
 10
292.333835
 20
409.036732
 30
0.0
 11
292.333835
 21
365.056985
 31
0.0
  0
LINE
  5
1ba
100
AcDbEntity
  8
Layer_1
 62
7
100
AcDbLine
 10
292.333835
 20
365.056807
 30
0.0
 11
336.313582
 21
365.056807
 31
0.0
  0
SPLINE
  5
1bb
100
AcDbEntity
  8
Layer_1
 62
7
100
AcDbSpline
 70
0
 71
3
 72
19
 73
15
 74
13
 40
0.000000
 40
0.000000
 40
0.000000
 40
0.000000
 40
0.783898
 40
1.544596
 40
2.328494
 40
3.112392
 40
3.873090
 40
4.656988
 40
5.441038
 40
6.201680
 40
6.985558
 40
7.769435
 40
8.530078
 40
9.314127
 40
9.314127
 40
9.314127
 40
9.314127
 10
223.850530
 20
329.893399
 30
0.0
 10
223.809313
 20
330.157691
 30
0.0
 10
223.728098
 20
330.678451
 30
0.0
 10
223.131211
 20
331.251754
 30
0.0
 10
222.352601
 20
331.464239
 30
0.0
 10
221.565817
 20
331.251755
 30
0.0
 10
220.992967
 20
330.678449
 30
0.0
 10
220.780346
 20
329.893355
 30
0.0
 10
220.992910
 20
329.108239
 30
0.0
 10
221.565837
 20
328.534946
 30
0.0
 10
222.352601
 20
328.322609
 30
0.0
 10
223.131191
 20
328.534945
 30
0.0
 10
223.728157
 20
329.108241
 30
0.0
 10
223.809329
 20
329.629049
 30
0.0
 10
223.850530
 20
329.893399
 30
0.0
 11
223.850530
 21
329.893399
 31
0.0
 11
223.645815
 21
330.650095
 31
0.0
 11
223.107920
 21
331.187989
 31
0.0
 11
222.351225
 21
331.392705
 31
0.0
 11
221.594529
 21
331.187989
 31
0.0
 11
221.056635
 21
330.650095
 31
0.0
 11
220.851919
 21
329.893399
 31
0.0
 11
221.056635
 21
329.136547
 31
0.0
 11
221.594529
 21
328.598731
 31
0.0
 11
222.351225
 21
328.394094
 31
0.0
 11
223.107920
 21
328.598731
 31
0.0
 11
223.645815
 21
329.136547
 31
0.0
 11
223.850530
 21
329.893399
 31
0.0
  0
LINE
  5
1bc
100
AcDbEntity
  8
Layer_1
 62
7
100
AcDbLine
 10
282.921862
 20
374.082979
 30
0.0
 11
282.921862
 21
400.010734
 31
0.0
  0
SPLINE
  5
1bd
100
AcDbEntity
  8
Layer_1
 62
7
100
AcDbSpline
 70
0
 71
3
 72
10
 73
6
 74
4
 40
0.000000
 40
0.000000
 40
0.000000
 40
0.000000
 40
0.522498
 40
1.029744
 40
1.552306
 40
1.552306
 40
1.552306
 40
1.552306
 10
281.922409
 20
373.083207
 30
0.0
 10
282.097505
 20
373.110753
 30
0.0
 10
282.442584
 20
373.165041
 30
0.0
 10
282.840070
 20
373.562775
 30
0.0
 10
282.894307
 20
373.907867
 30
0.0
 10
282.921829
 20
374.082979
 30
0.0
 11
281.922409
 21
373.083207
 31
0.0
 11
282.426738
 21
373.219797
 31
0.0
 11
282.785330
 21
373.578559
 31
0.0
 11
282.921829
 21
374.082979
 31
0.0
  0
LINE
  5
1be
100
AcDbEntity
  8
Layer_1
 62
7
100
AcDbLine
 10
281.922409
 20
401.010329
 30
0.0
 11
277.224820
 21
401.010329
 31
0.0
  0
SPLINE
  5
1bf
100
AcDbEntity
  8
Layer_1
 62
7
100
AcDbSpline
 70
0
 71
3
 72
10
 73
6
 74
4
 40
0.000000
 40
0.000000
 40
0.000000
 40
0.000000
 40
0.522625
 40
1.029696
 40
1.552149
 40
1.552149
 40
1.552149
 40
1.552149
 10
282.921862
 20
400.010734
 30
0.0
 10
282.894362
 20
400.185883
 30
0.0
 10
282.840179
 20
400.530966
 30
0.0
 10
282.442546
 20
400.928497
 30
0.0
 10
282.097529
 20
400.982665
 30
0.0
 10
281.922443
 20
401.010154
 30
0.0
 11
282.921862
 21
400.010734
 31
0.0
 11
282.785364
 21
400.515220
 31
0.0
 11
282.426771
 21
400.873733
 31
0.0
 11
281.922443
 21
401.010154
 31
0.0
  0
LINE
  5
1c0
100
AcDbEntity
  8
Layer_1
 62
7
100
AcDbLine
 10
276.224941
 20
400.010734
 30
0.0
 11
276.224941
 21
374.082979
 31
0.0
  0
SPLINE
  5
1c1
100
AcDbEntity
  8
Layer_1
 62
7
100
AcDbSpline
 70
0
 71
3
 72
10
 73
6
 74
4
 40
0.000000
 40
0.000000
 40
0.000000
 40
0.000000
 40
0.522714
 40
1.029904
 40
1.552382
 40
1.552382
 40
1.552382
 40
1.552382
 10
277.224679
 20
401.010329
 30
0.0
 10
277.049507
 20
400.982823
 30
0.0
 10
276.704366
 20
400.928629
 30
0.0
 10
276.306656
 20
400.531065
 30
0.0
 10
276.252425
 20
400.186002
 30
0.0
 10
276.224907
 20
400.010909
 30
0.0
 11
277.224679
 21
401.010329
 31
0.0
 11
276.720102
 21
400.873830
 31
0.0
 11
276.361419
 21
400.515238
 31
0.0
 11
276.224907
 21
400.010909
 31
0.0
  0
LINE
  5
1c2
100
AcDbEntity
  8
Layer_1
 62
7
100
AcDbLine
 10
277.224679
 20
373.083207
 30
0.0
 11
281.922268
 21
373.083207
 31
0.0
  0
SPLINE
  5
1c3
100
AcDbEntity
  8
Layer_1
 62
7
100
AcDbSpline
 70
0
 71
3
 72
10
 73
6
 74
4
 40
0.000000
 40
0.000000
 40
0.000000
 40
0.000000
 40
0.522566
 40
1.029876
 40
1.552614
 40
1.552614
 40
1.552614
 40
1.552614
 10
276.224941
 20
374.082979
 30
0.0
 10
276.252464
 20
373.907863
 30
0.0
 10
276.306706
 20
373.562742
 30
0.0
 10
276.704347
 20
373.164999
 30
0.0
 10
277.049534
 20
373.110742
 30
0.0
 10
277.224713
 20
373.083207
 30
0.0
 11
276.224941
 21
374.082979
 31
0.0
 11
276.361453
 21
373.578559
 31
0.0
 11
276.720136
 21
373.219797
 31
0.0
 11
277.224713
 21
373.083207
 31
0.0
  0
LINE
  5
1c4
100
AcDbEntity
  8
Layer_1
 62
7
100
AcDbLine
 10
355.209241
 20
423.122866
 30
0.0
 11
355.209241
 21
423.122866
 31
0.0
  0
SPLINE
  5
1c5
100
AcDbEntity
  8
Layer_1
 62
7
100
AcDbSpline
 70
0
 71
3
 72
19
 73
15
 74
13
 40
0.000000
 40
0.000000
 40
0.000000
 40
0.000000
 40
1.659273
 40
3.269381
 40
4.928826
 40
6.588032
 40
8.198075
 40
9.857345
 40
11.516615
 40
13.126658
 40
14.785864
 40
16.445309
 40
18.055417
 40
19.714690
 40
19.714690
 40
19.714690
 40
19.714690
 10
355.209241
 20
423.122866
 30
0.0
 10
355.122028
 20
423.682295
 30
0.0
 10
354.950186
 20
424.784576
 30
0.0
 10
353.686771
 20
425.998183
 30
0.0
 10
352.038642
 20
426.447847
 30
0.0
 10
350.373249
 20
425.998147
 30
0.0
 10
349.160864
 20
424.784543
 30
0.0
 10
348.710945
 20
423.122866
 30
0.0
 10
349.160864
 20
421.461190
 30
0.0
 10
350.373249
 20
420.247585
 30
0.0
 10
352.038642
 20
419.797886
 30
0.0
 10
353.686771
 20
420.247550
 30
0.0
 10
354.950186
 20
421.461156
 30
0.0
 10
355.122028
 20
422.563437
 30
0.0
 10
355.209241
 20
423.122866
 30
0.0
 11
355.209241
 21
423.122866
 31
0.0
 11
354.776004
 21
424.724582
 31
0.0
 11
353.637524
 21
425.863139
 31
0.0
 11
352.035652
 21
426.296455
 31
0.0
 11
350.434028
 21
425.863139
 31
0.0
 11
349.295640
 21
424.724582
 31
0.0
 11
348.862416
 21
423.122866
 31
0.0
 11
349.295640
 21
421.521151
 31
0.0
 11
350.434028
 21
420.382593
 31
0.0
 11
352.035652
 21
419.949277
 31
0.0
 11
353.637524
 21
420.382593
 31
0.0
 11
354.776004
 21
421.521151
 31
0.0
 11
355.209241
 21
423.122866
 31
0.0
  0
LINE
  5
1c6
100
AcDbEntity
  8
Layer_1
 62
7
100
AcDbLine
 10
261.548115
 20
340.568384
 30
0.0
 11
261.548115
 21
340.568384
 31
0.0
  0
SPLINE
  5
1c7
100
AcDbEntity
  8
Layer_1
 62
7
100
AcDbSpline
 70
0
 71
3
 72
19
 73
15
 74
13
 40
0.000000
 40
0.000000
 40
0.000000
 40
0.000000
 40
0.784029
 40
1.544616
 40
2.328645
 40
3.112674
 40
3.873261
 40
4.657290
 40
5.441319
 40
6.201906
 40
6.985935
 40
7.769964
 40
8.530551
 40
9.314580
 40
9.314580
 40
9.314580
 40
9.314580
 10
261.548115
 20
340.568384
 30
0.0
 10
261.506942
 20
340.832731
 30
0.0
 10
261.425827
 20
341.353520
 30
0.0
 10
260.828885
 20
341.926910
 30
0.0
 10
260.050185
 20
342.139148
 30
0.0
 10
259.263317
 20
341.926910
 30
0.0
 10
258.690388
 20
341.353520
 30
0.0
 10
258.477993
 20
340.568384
 30
0.0
 10
258.690388
 20
339.783249
 30
0.0
 10
259.263317
 20
339.209859
 30
0.0
 10
260.050185
 20
338.997621
 30
0.0
 10
260.828885
 20
339.209859
 30
0.0
 10
261.425827
 20
339.783249
 30
0.0
 10
261.506942
 20
340.304038
 30
0.0
 10
261.548115
 20
340.568384
 30
0.0
 11
261.548115
 21
340.568384
 31
0.0
 11
261.343478
 21
341.325237
 31
0.0
 11
260.805662
 21
341.863053
 31
0.0
 11
260.048810
 21
342.067690
 31
0.0
 11
259.291958
 21
341.863053
 31
0.0
 11
258.754141
 21
341.325237
 31
0.0
 11
258.549504
 21
340.568384
 31
0.0
 11
258.754141
 21
339.811532
 31
0.0
 11
259.291958
 21
339.273716
 31
0.0
 11
260.048810
 21
339.069079
 31
0.0
 11
260.805662
 21
339.273716
 31
0.0
 11
261.343478
 21
339.811532
 31
0.0
 11
261.548115
 21
340.568384
 31
0.0
  0
LINE
  5
1c8
100
AcDbEntity
  8
Layer_1
 62
7
100
AcDbLine
 10
206.573521
 20
433.525329
 30
0.0
 11
206.573521
 21
433.525329
 31
0.0
  0
SPLINE
  5
1c9
100
AcDbEntity
  8
Layer_1
 62
7
100
AcDbSpline
 70
0
 71
3
 72
19
 73
15
 74
13
 40
0.000000
 40
0.000000
 40
0.000000
 40
0.000000
 40
0.783898
 40
1.544596
 40
2.328494
 40
3.112392
 40
3.873090
 40
4.656988
 40
5.440886
 40
6.201584
 40
6.985482
 40
7.769380
 40
8.530078
 40
9.313976
 40
9.313976
 40
9.313976
 40
9.313976
 10
206.573521
 20
433.525329
 30
0.0
 10
206.532303
 20
433.789620
 30
0.0
 10
206.451088
 20
434.310381
 30
0.0
 10
205.854201
 20
434.883684
 30
0.0
 10
205.075592
 20
435.096168
 30
0.0
 10
204.288805
 20
434.883684
 30
0.0
 10
203.715965
 20
434.310381
 30
0.0
 10
203.503323
 20
433.525329
 30
0.0
 10
203.715965
 20
432.740277
 30
0.0
 10
204.288805
 20
432.166974
 30
0.0
 10
205.075592
 20
431.954489
 30
0.0
 10
205.854201
 20
432.166974
 30
0.0
 10
206.451088
 20
432.740277
 30
0.0
 10
206.532303
 20
433.261038
 30
0.0
 10
206.573521
 20
433.525329
 30
0.0
 11
206.573521
 21
433.525329
 31
0.0
 11
206.368805
 21
434.282024
 31
0.0
 11
205.830910
 21
434.819919
 31
0.0
 11
205.074215
 21
435.024634
 31
0.0
 11
204.317520
 21
434.819919
 31
0.0
 11
203.779625
 21
434.282024
 31
0.0
 11
203.574910
 21
433.525329
 31
0.0
 11
203.779625
 21
432.768634
 31
0.0
 11
204.317520
 21
432.230739
 31
0.0
 11
205.074215
 21
432.026023
 31
0.0
 11
205.830910
 21
432.230739
 31
0.0
 11
206.368805
 21
432.768634
 31
0.0
 11
206.573521
 21
433.525329
 31
0.0
  0
LINE
  5
1ca
100
AcDbEntity
  8
Layer_1
 62
7
100
AcDbLine
 10
261.548115
 20
433.525329
 30
0.0
 11
261.548115
 21
433.525329
 31
0.0
  0
SPLINE
  5
1cb
100
AcDbEntity
  8
Layer_1
 62
7
100
AcDbSpline
 70
0
 71
3
 72
19
 73
15
 74
13
 40
0.000000
 40
0.000000
 40
0.000000
 40
0.000000
 40
0.783878
 40
1.544520
 40
2.328570
 40
3.112619
 40
3.873261
 40
4.657139
 40
5.441017
 40
6.201659
 40
6.985709
 40
7.769758
 40
8.530401
 40
9.314278
 40
9.314278
 40
9.314278
 40
9.314278
 10
261.548115
 20
433.525329
 30
0.0
 10
261.506926
 20
433.789616
 30
0.0
 10
261.425768
 20
434.310357
 30
0.0
 10
260.828905
 20
434.883755
 30
0.0
 10
260.050186
 20
435.096142
 30
0.0
 10
259.263293
 20
434.883755
 30
0.0
 10
258.690460
 20
434.310357
 30
0.0
 10
258.477966
 20
433.525329
 30
0.0
 10
258.690460
 20
432.740301
 30
0.0
 10
259.263293
 20
432.166903
 30
0.0
 10
260.050186
 20
431.954516
 30
0.0
 10
260.828905
 20
432.166903
 30
0.0
 10
261.425768
 20
432.740301
 30
0.0
 10
261.506926
 20
433.261042
 30
0.0
 10
261.548115
 20
433.525329
 30
0.0
 11
261.548115
 21
433.525329
 31
0.0
 11
261.343478
 21
434.282024
 31
0.0
 11
260.805662
 21
434.819919
 31
0.0
 11
260.048810
 21
435.024634
 31
0.0
 11
259.291958
 21
434.819919
 31
0.0
 11
258.754141
 21
434.282024
 31
0.0
 11
258.549504
 21
433.525329
 31
0.0
 11
258.754141
 21
432.768634
 31
0.0
 11
259.291958
 21
432.230739
 31
0.0
 11
260.048810
 21
432.026023
 31
0.0
 11
260.805662
 21
432.230739
 31
0.0
 11
261.343478
 21
432.768634
 31
0.0
 11
261.548115
 21
433.525329
 31
0.0
  0
LINE
  5
1cc
100
AcDbEntity
  8
Layer_1
 62
7
100
AcDbLine
 10
333.499296
 20
348.564446
 30
0.0
 11
333.499296
 21
348.564446
 31
0.0
  0
SPLINE
  5
1cd
100
AcDbEntity
  8
Layer_1
 62
7
100
AcDbSpline
 70
0
 71
3
 72
19
 73
15
 74
13
 40
0.000000
 40
0.000000
 40
0.000000
 40
0.000000
 40
0.784029
 40
1.544616
 40
2.328645
 40
3.112523
 40
3.873165
 40
4.657215
 40
5.441113
 40
6.201811
 40
6.985709
 40
7.769758
 40
8.530401
 40
9.314278
 40
9.314278
 40
9.314278
 40
9.314278
 10
333.499296
 20
348.564446
 30
0.0
 10
333.458123
 20
348.828793
 30
0.0
 10
333.377008
 20
349.349583
 30
0.0
 10
332.780068
 20
349.922964
 30
0.0
 10
332.001410
 20
350.135223
 30
0.0
 10
331.214605
 20
349.922906
 30
0.0
 10
330.641675
 20
349.349605
 30
0.0
 10
330.429112
 20
348.564490
 30
0.0
 10
330.641733
 20
347.779397
 30
0.0
 10
331.214585
 20
347.206083
 30
0.0
 10
332.001410
 20
346.993620
 30
0.0
 10
332.780088
 20
347.206026
 30
0.0
 10
333.376949
 20
347.779416
 30
0.0
 10
333.458107
 20
348.300158
 30
0.0
 10
333.499296
 20
348.564446
 30
0.0
 11
333.499296
 21
348.564446
 31
0.0
 11
333.294659
 21
349.321298
 31
0.0
 11
332.756843
 21
349.859114
 31
0.0
 11
331.999991
 21
350.063751
 31
0.0
 11
331.243295
 21
349.859114
 31
0.0
 11
330.705401
 21
349.321298
 31
0.0
 11
330.500685
 21
348.564446
 31
0.0
 11
330.705401
 21
347.807750
 31
0.0
 11
331.243295
 21
347.269856
 31
0.0
 11
331.999991
 21
347.065140
 31
0.0
 11
332.756843
 21
347.269856
 31
0.0
 11
333.294659
 21
347.807750
 31
0.0
 11
333.499296
 21
348.564446
 31
0.0
  0
LINE
  5
1ce
100
AcDbEntity
  8
Layer_1
 62
7
100
AcDbLine
 10
333.499296
 20
425.529093
 30
0.0
 11
333.499296
 21
425.529093
 31
0.0
  0
SPLINE
  5
1cf
100
AcDbEntity
  8
Layer_1
 62
7
100
AcDbSpline
 70
0
 71
3
 72
19
 73
15
 74
13
 40
0.000000
 40
0.000000
 40
0.000000
 40
0.000000
 40
0.783878
 40
1.544520
 40
2.328570
 40
3.112468
 40
3.873166
 40
4.657064
 40
5.440962
 40
6.201660
 40
6.985558
 40
7.769607
 40
8.530250
 40
9.314127
 40
9.314127
 40
9.314127
 40
9.314127
 10
333.499296
 20
425.529093
 30
0.0
 10
333.458107
 20
425.793381
 30
0.0
 10
333.376949
 20
426.314123
 30
0.0
 10
332.780088
 20
426.887512
 30
0.0
 10
332.001410
 20
427.099919
 30
0.0
 10
331.214583
 20
426.887455
 30
0.0
 10
330.641740
 20
426.314143
 30
0.0
 10
330.429099
 20
425.529093
 30
0.0
 10
330.641740
 20
424.744043
 30
0.0
 10
331.214583
 20
424.170731
 30
0.0
 10
332.001410
 20
423.958267
 30
0.0
 10
332.780088
 20
424.170674
 30
0.0
 10
333.376949
 20
424.744063
 30
0.0
 10
333.458107
 20
425.264805
 30
0.0
 10
333.499296
 20
425.529093
 30
0.0
 11
333.499296
 21
425.529093
 31
0.0
 11
333.294659
 21
426.285788
 31
0.0
 11
332.756843
 21
426.823683
 31
0.0
 11
331.999991
 21
427.028398
 31
0.0
 11
331.243295
 21
426.823683
 31
0.0
 11
330.705401
 21
426.285788
 31
0.0
 11
330.500685
 21
425.529093
 31
0.0
 11
330.705401
 21
424.772398
 31
0.0
 11
331.243295
 21
424.234503
 31
0.0
 11
331.999991
 21
424.029787
 31
0.0
 11
332.756843
 21
424.234503
 31
0.0
 11
333.294659
 21
424.772398
 31
0.0
 11
333.499296
 21
425.529093
 31
0.0
  0
LINE
  5
1d0
100
AcDbEntity
  8
Layer_1
 62
7
100
AcDbLine
 10
298.515382
 20
348.564446
 30
0.0
 11
298.515382
 21
348.564446
 31
0.0
  0
SPLINE
  5
1d1
100
AcDbEntity
  8
Layer_1
 62
7
100
AcDbSpline
 70
0
 71
3
 72
19
 73
15
 74
13
 40
0.000000
 40
0.000000
 40
0.000000
 40
0.000000
 40
0.784029
 40
1.544616
 40
2.328645
 40
3.112523
 40
3.873165
 40
4.657215
 40
5.441113
 40
6.201811
 40
6.985709
 40
7.769758
 40
8.530401
 40
9.314278
 40
9.314278
 40
9.314278
 40
9.314278
 10
298.515382
 20
348.564446
 30
0.0
 10
298.474209
 20
348.828793
 30
0.0
 10
298.393094
 20
349.349583
 30
0.0
 10
297.796154
 20
349.922964
 30
0.0
 10
297.017496
 20
350.135223
 30
0.0
 10
296.230691
 20
349.922906
 30
0.0
 10
295.657761
 20
349.349605
 30
0.0
 10
295.445198
 20
348.564490
 30
0.0
 10
295.657819
 20
347.779397
 30
0.0
 10
296.230671
 20
347.206083
 30
0.0
 10
297.017496
 20
346.993620
 30
0.0
 10
297.796174
 20
347.206026
 30
0.0
 10
298.393035
 20
347.779416
 30
0.0
 10
298.474193
 20
348.300158
 30
0.0
 10
298.515382
 20
348.564446
 30
0.0
 11
298.515382
 21
348.564446
 31
0.0
 11
298.310745
 21
349.321298
 31
0.0
 11
297.772929
 21
349.859114
 31
0.0
 11
297.016077
 21
350.063751
 31
0.0
 11
296.259382
 21
349.859114
 31
0.0
 11
295.721487
 21
349.321298
 31
0.0
 11
295.516771
 21
348.564446
 31
0.0
 11
295.721487
 21
347.807750
 31
0.0
 11
296.259382
 21
347.269856
 31
0.0
 11
297.016077
 21
347.065140
 31
0.0
 11
297.772929
 21
347.269856
 31
0.0
 11
298.310745
 21
347.807750
 31
0.0
 11
298.515382
 21
348.564446
 31
0.0
  0
LINE
  5
1d2
100
AcDbEntity
  8
Layer_1
 62
7
100
AcDbLine
 10
298.515382
 20
425.529093
 30
0.0
 11
298.515382
 21
425.529093
 31
0.0
  0
SPLINE
  5
1d3
100
AcDbEntity
  8
Layer_1
 62
7
100
AcDbSpline
 70
0
 71
3
 72
19
 73
15
 74
13
 40
0.000000
 40
0.000000
 40
0.000000
 40
0.000000
 40
0.783878
 40
1.544520
 40
2.328570
 40
3.112468
 40
3.873166
 40
4.657064
 40
5.440962
 40
6.201660
 40
6.985558
 40
7.769607
 40
8.530250
 40
9.314127
 40
9.314127
 40
9.314127
 40
9.314127
 10
298.515382
 20
425.529093
 30
0.0
 10
298.474193
 20
425.793381
 30
0.0
 10
298.393035
 20
426.314123
 30
0.0
 10
297.796174
 20
426.887512
 30
0.0
 10
297.017497
 20
427.099919
 30
0.0
 10
296.230669
 20
426.887455
 30
0.0
 10
295.657826
 20
426.314143
 30
0.0
 10
295.445185
 20
425.529093
 30
0.0
 10
295.657826
 20
424.744043
 30
0.0
 10
296.230669
 20
424.170731
 30
0.0
 10
297.017497
 20
423.958267
 30
0.0
 10
297.796174
 20
424.170674
 30
0.0
 10
298.393035
 20
424.744063
 30
0.0
 10
298.474193
 20
425.264805
 30
0.0
 10
298.515382
 20
425.529093
 30
0.0
 11
298.515382
 21
425.529093
 31
0.0
 11
298.310745
 21
426.285788
 31
0.0
 11
297.772929
 21
426.823683
 31
0.0
 11
297.016077
 21
427.028398
 31
0.0
 11
296.259382
 21
426.823683
 31
0.0
 11
295.721487
 21
426.285788
 31
0.0
 11
295.516771
 21
425.529093
 31
0.0
 11
295.721487
 21
424.772398
 31
0.0
 11
296.259382
 21
424.234503
 31
0.0
 11
297.016077
 21
424.029787
 31
0.0
 11
297.772929
 21
424.234503
 31
0.0
 11
298.310745
 21
424.772398
 31
0.0
 11
298.515382
 21
425.529093
 31
0.0
  0
LINE
  5
1d4
100
AcDbEntity
  8
Layer_1
 62
7
100
AcDbLine
 10
206.573521
 20
340.568384
 30
0.0
 11
206.573521
 21
340.568384
 31
0.0
  0
SPLINE
  5
1d5
100
AcDbEntity
  8
Layer_1
 62
7
100
AcDbSpline
 70
0
 71
3
 72
19
 73
15
 74
13
 40
0.000000
 40
0.000000
 40
0.000000
 40
0.000000
 40
0.784049
 40
1.544692
 40
2.328570
 40
3.112447
 40
3.873090
 40
4.657139
 40
5.441189
 40
6.201831
 40
6.985709
 40
7.769586
 40
8.530229
 40
9.314278
 40
9.314278
 40
9.314278
 40
9.314278
 10
206.573521
 20
340.568384
 30
0.0
 10
206.532320
 20
340.832735
 30
0.0
 10
206.451147
 20
341.353543
 30
0.0
 10
205.854181
 20
341.926839
 30
0.0
 10
205.075591
 20
342.139175
 30
0.0
 10
204.288829
 20
341.926839
 30
0.0
 10
203.715893
 20
341.353543
 30
0.0
 10
203.503350
 20
340.568384
 30
0.0
 10
203.715893
 20
339.783226
 30
0.0
 10
204.288829
 20
339.209930
 30
0.0
 10
205.075591
 20
338.997594
 30
0.0
 10
205.854181
 20
339.209930
 30
0.0
 10
206.451147
 20
339.783226
 30
0.0
 10
206.532320
 20
340.304034
 30
0.0
 10
206.573521
 20
340.568384
 30
0.0
 11
206.573521
 21
340.568384
 31
0.0
 11
206.368805
 21
341.325237
 31
0.0
 11
205.830910
 21
341.863053
 31
0.0
 11
205.074215
 21
342.067690
 31
0.0
 11
204.317520
 21
341.863053
 31
0.0
 11
203.779625
 21
341.325237
 31
0.0
 11
203.574910
 21
340.568384
 31
0.0
 11
203.779625
 21
339.811532
 31
0.0
 11
204.317520
 21
339.273716
 31
0.0
 11
205.074215
 21
339.069079
 31
0.0
 11
205.830910
 21
339.273716
 31
0.0
 11
206.368805
 21
339.811532
 31
0.0
 11
206.573521
 21
340.568384
 31
0.0
  0
LINE
  5
1d6
100
AcDbEntity
  8
Layer_1
 62
7
100
AcDbLine
 10
309.942518
 20
298.127581
 30
0.0
 11
309.942518
 21
298.127581
 31
0.0
  0
LINE
  5
1d7
100
AcDbEntity
  8
Layer_1
 62
7
100
AcDbLine
 10
319.438237
 20
238.280420
 30
0.0
 11
319.438237
 21
281.980062
 31
0.0
  0
SPLINE
  5
1d8
100
AcDbEntity
  8
Layer_1
 62
7
100
AcDbSpline
 70
0
 71
3
 72
19
 73
15
 74
13
 40
0.000000
 40
0.000000
 40
0.000000
 40
0.000000
 40
0.836211
 40
1.647538
 40
2.483577
 40
3.319768
 40
4.131039
 40
4.967230
 40
5.803420
 40
6.614692
 40
7.450883
 40
8.286922
 40
9.098249
 40
9.934460
 40
9.934460
 40
9.934460
 40
9.934460
 10
309.942518
 20
298.127581
 30
0.0
 10
310.224451
 20
298.171539
 30
0.0
 10
310.779927
 20
298.258148
 30
0.0
 10
311.391381
 20
298.894846
 30
0.0
 10
311.617916
 20
299.725299
 30
0.0
 10
311.391439
 20
300.564493
 30
0.0
 10
310.779907
 20
301.175539
 30
0.0
 10
309.942518
 20
301.402164
 30
0.0
 10
309.105129
 20
301.175539
 30
0.0
 10
308.493597
 20
300.564493
 30
0.0
 10
308.267120
 20
299.725299
 30
0.0
 10
308.493654
 20
298.894846
 30
0.0
 10
309.105109
 20
298.258148
 30
0.0
 10
309.660585
 20
298.171539
 30
0.0
 10
309.942518
 20
298.127581
 30
0.0
 11
309.942518
 21
298.127581
 31
0.0
 11
310.749713
 21
298.345950
 31
0.0
 11
311.323368
 21
298.919685
 31
0.0
 11
311.541660
 21
299.726723
 31
0.0
 11
311.323368
 21
300.533917
 31
0.0
 11
310.749713
 21
301.107573
 31
0.0
 11
309.942518
 21
301.325864
 31
0.0
 11
309.135323
 21
301.107573
 31
0.0
 11
308.561667
 21
300.533917
 31
0.0
 11
308.343376
 21
299.726723
 31
0.0
 11
308.561667
 21
298.919685
 31
0.0
 11
309.135323
 21
298.345950
 31
0.0
 11
309.942518
 21
298.127581
 31
0.0
  0
LINE
  5
1d9
100
AcDbEntity
  8
Layer_1
 62
7
100
AcDbLine
 10
318.438818
 20
282.979868
 30
0.0
 11
294.449576
 21
282.979868
 31
0.0
  0
LINE
  5
1da
100
AcDbEntity
  8
Layer_1
 62
7
100
AcDbLine
 10
294.449576
 20
308.287863
 30
0.0
 11
294.449576
 21
282.979938
 31
0.0
  0
SPLINE
  5
1db
100
AcDbEntity
  8
Layer_1
 62
7
100
AcDbSpline
 70
0
 71
3
 72
10
 73
6
 74
4
 40
0.000000
 40
0.000000
 40
0.000000
 40
0.000000
 40
0.522562
 40
1.029808
 40
1.552306
 40
1.552306
 40
1.552306
 40
1.552306
 10
319.438237
 20
281.980095
 30
0.0
 10
319.410716
 20
282.155208
 30
0.0
 10
319.356479
 20
282.500300
 30
0.0
 10
318.958993
 20
282.898033
 30
0.0
 10
318.613913
 20
282.952321
 30
0.0
 10
318.438818
 20
282.979868
 30
0.0
 11
319.438237
 21
281.980095
 31
0.0
 11
319.301738
 21
282.484515
 31
0.0
 11
318.943146
 21
282.843277
 31
0.0
 11
318.438818
 21
282.979868
 31
0.0
  0
LINE
  5
1dc
100
AcDbEntity
  8
Layer_1
 62
7
100
AcDbLine
 10
323.436268
 20
309.287283
 30
0.0
 11
295.449348
 21
309.287283
 31
0.0
  0
LINE
  5
1dd
100
AcDbEntity
  8
Layer_1
 62
7
100
AcDbLine
 10
323.436268
 20
285.018641
 30
0.0
 11
323.436268
 21
309.287283
 31
0.0
  0
LINE
  5
1de
100
AcDbEntity
  8
Layer_1
 62
7
100
AcDbLine
 10
328.563963
 20
285.018641
 30
0.0
 11
323.436338
 21
285.018641
 31
0.0
  0
LINE
  5
1df
100
AcDbEntity
  8
Layer_1
 62
7
100
AcDbLine
 10
328.563963
 20
285.018641
 30
0.0
 11
328.563963
 21
268.426444
 31
0.0
  0
LINE
  5
1e0
100
AcDbEntity
  8
Layer_1
 62
7
100
AcDbLine
 10
328.563963
 20
268.426373
 30
0.0
 11
323.436338
 21
268.426373
 31
0.0
  0
LINE
  5
1e1
100
AcDbEntity
  8
Layer_1
 62
7
100
AcDbLine
 10
323.436268
 20
251.834105
 30
0.0
 11
323.436268
 21
268.426303
 31
0.0
  0
LINE
  5
1e2
100
AcDbEntity
  8
Layer_1
 62
7
100
AcDbLine
 10
328.563963
 20
251.834105
 30
0.0
 11
323.436338
 21
251.834105
 31
0.0
  0
LINE
  5
1e3
100
AcDbEntity
  8
Layer_1
 62
7
100
AcDbLine
 10
328.563963
 20
251.834105
 30
0.0
 11
328.563963
 21
235.241908
 31
0.0
  0
LINE
  5
1e4
100
AcDbEntity
  8
Layer_1
 62
7
100
AcDbLine
 10
323.436268
 20
210.972527
 30
0.0
 11
323.436268
 21
235.241874
 31
0.0
  0
LINE
  5
1e5
100
AcDbEntity
  8
Layer_1
 62
7
100
AcDbLine
 10
295.449348
 20
210.972527
 30
0.0
 11
323.436268
 21
210.972527
 31
0.0
  0
SPLINE
  5
1e6
100
AcDbEntity
  8
Layer_1
 62
7
100
AcDbSpline
 70
0
 71
3
 72
10
 73
6
 74
4
 40
0.000000
 40
0.000000
 40
0.000000
 40
0.000000
 40
0.522542
 40
1.029732
 40
1.552382
 40
1.552382
 40
1.552382
 40
1.552382
 10
295.449348
 20
309.287283
 30
0.0
 10
295.274239
 20
309.259789
 30
0.0
 10
294.929164
 20
309.205610
 30
0.0
 10
294.531352
 20
308.808148
 30
0.0
 10
294.477106
 20
308.463018
 30
0.0
 10
294.449576
 20
308.287863
 30
0.0
 11
295.449348
 21
309.287283
 31
0.0
 11
294.944928
 21
309.150862
 31
0.0
 11
294.586167
 21
308.792348
 31
0.0
 11
294.449576
 21
308.287863
 31
0.0
  0
LINE
  5
1e7
100
AcDbEntity
  8
Layer_1
 62
7
100
AcDbLine
 10
294.449576
 20
237.280648
 30
0.0
 11
294.449576
 21
211.972370
 31
0.0
  0
LINE
  5
1e8
100
AcDbEntity
  8
Layer_1
 62
7
100
AcDbLine
 10
294.449576
 20
237.280648
 30
0.0
 11
318.438818
 21
237.280648
 31
0.0
  0
SPLINE
  5
1e9
100
AcDbEntity
  8
Layer_1
 62
7
100
AcDbSpline
 70
0
 71
3
 72
10
 73
6
 74
4
 40
0.000000
 40
0.000000
 40
0.000000
 40
0.000000
 40
0.522586
 40
1.029952
 40
1.552539
 40
1.552539
 40
1.552539
 40
1.552539
 10
294.449576
 20
211.972299
 30
0.0
 10
294.477127
 20
211.797180
 30
0.0
 10
294.531427
 20
211.452042
 30
0.0
 10
294.929092
 20
211.054378
 30
0.0
 10
295.274229
 20
211.000078
 30
0.0
 10
295.449348
 20
210.972527
 30
0.0
 11
294.449576
 21
211.972299
 31
0.0
 11
294.586167
 21
211.467879
 31
0.0
 11
294.944928
 21
211.109117
 31
0.0
 11
295.449348
 21
210.972527
 31
0.0
  0
SPLINE
  5
1ea
100
AcDbEntity
  8
Layer_1
 62
7
100
AcDbSpline
 70
0
 71
3
 72
10
 73
6
 74
4
 40
0.000000
 40
0.000000
 40
0.000000
 40
0.000000
 40
0.522457
 40
1.029592
 40
1.552457
 40
1.552457
 40
1.552457
 40
1.552457
 10
318.438818
 20
237.280648
 30
0.0
 10
318.613908
 20
237.308137
 30
0.0
 10
318.958953
 20
237.362311
 30
0.0
 10
319.356596
 20
237.759997
 30
0.0
 10
319.410748
 20
238.105188
 30
0.0
 10
319.438237
 20
238.280420
 30
0.0
 11
318.438818
 21
237.280648
 31
0.0
 11
318.943146
 21
237.417081
 31
0.0
 11
319.301738
 21
237.775686
 31
0.0
 11
319.438237
 21
238.280420
 31
0.0
  0
LINE
  5
1eb
100
AcDbEntity
  8
Layer_1
 62
7
100
AcDbLine
 10
309.942518
 20
218.934154
 30
0.0
 11
309.942518
 21
218.934154
 31
0.0
  0
LINE
  5
1ec
100
AcDbEntity
  8
Layer_1
 62
7
100
AcDbLine
 10
328.563963
 20
235.241838
 30
0.0
 11
323.436338
 21
235.241838
 31
0.0
  0
LINE
  5
1ed
100
AcDbEntity
  8
Layer_1
 62
7
100
AcDbLine
 10
32.476835
 20
205.786465
 30
0.0
 11
33.835382
 21
205.786465
 31
0.0
  0
LINE
  5
1ee
100
AcDbEntity
  8
Layer_1
 62
7
100
AcDbLine
 10
33.835241
 20
205.786465
 30
0.0
 11
33.835241
 21
207.952873
 31
0.0
  0
LINE
  5
1ef
100
AcDbEntity
  8
Layer_1
 62
7
100
AcDbLine
 10
33.835241
 20
207.952718
 30
0.0
 11
32.476694
 21
207.952718
 31
0.0
  0
LINE
  5
1f0
100
AcDbEntity
  8
Layer_1
 62
7
100
AcDbLine
 10
32.476835
 20
207.952718
 30
0.0
 11
32.476835
 21
214.156668
 31
0.0
  0
LINE
  5
1f1
100
AcDbEntity
  8
Layer_1
 62
7
100
AcDbLine
 10
32.476835
 20
214.156668
 30
0.0
 11
29.481399
 21
214.156668
 31
0.0
  0
LINE
  5
1f2
100
AcDbEntity
  8
Layer_1
 62
7
100
AcDbLine
 10
29.481328
 20
214.156668
 30
0.0
 11
29.481328
 21
207.952718
 31
0.0
  0
LINE
  5
1f3
100
AcDbEntity
  8
Layer_1
 62
7
100
AcDbLine
 10
29.481328
 20
207.952718
 30
0.0
 11
28.122781
 21
207.952718
 31
0.0
  0
LINE
  5
1f4
100
AcDbEntity
  8
Layer_1
 62
7
100
AcDbLine
 10
28.122922
 20
207.952718
 30
0.0
 11
28.122922
 21
205.786310
 31
0.0
  0
LINE
  5
1f5
100
AcDbEntity
  8
Layer_1
 62
7
100
AcDbLine
 10
28.122922
 20
205.786465
 30
0.0
 11
29.481470
 21
205.786465
 31
0.0
  0
LINE
  5
1f6
100
AcDbEntity
  8
Layer_1
 62
7
100
AcDbLine
 10
29.481328
 20
205.786465
 30
0.0
 11
29.481328
 21
201.793726
 31
0.0
  0
LINE
  5
1f7
100
AcDbEntity
  8
Layer_1
 62
7
100
AcDbLine
 10
29.481328
 20
201.793557
 30
0.0
 11
3.485487
 21
201.793557
 31
0.0
  0
LINE
  5
1f8
100
AcDbEntity
  8
Layer_1
 62
7
100
AcDbLine
 10
3.485303
 20
201.793557
 30
0.0
 11
3.485303
 21
379.511007
 31
0.0
  0
LINE
  5
1f9
100
AcDbEntity
  8
Layer_1
 62
7
100
AcDbLine
 10
3.485303
 20
379.510917
 30
0.0
 11
29.481145
 21
379.510917
 31
0.0
  0
LINE
  5
1fa
100
AcDbEntity
  8
Layer_1
 62
7
100
AcDbLine
 10
29.481328
 20
375.518037
 30
0.0
 11
29.481328
 21
379.510775
 31
0.0
  0
LINE
  5
1fb
100
AcDbEntity
  8
Layer_1
 62
7
100
AcDbLine
 10
28.122922
 20
375.518037
 30
0.0
 11
29.481470
 21
375.518037
 31
0.0
  0
LINE
  5
1fc
100
AcDbEntity
  8
Layer_1
 62
7
100
AcDbLine
 10
28.122922
 20
373.351769
 30
0.0
 11
28.122922
 21
375.518178
 31
0.0
  0
LINE
  5
1fd
100
AcDbEntity
  8
Layer_1
 62
7
100
AcDbLine
 10
29.481328
 20
373.351769
 30
0.0
 11
28.122781
 21
373.351769
 31
0.0
  0
LINE
  5
1fe
100
AcDbEntity
  8
Layer_1
 62
7
100
AcDbLine
 10
29.481328
 20
367.147853
 30
0.0
 11
29.481328
 21
373.351803
 31
0.0
  0
LINE
  5
1ff
100
AcDbEntity
  8
Layer_1
 62
7
100
AcDbLine
 10
32.476835
 20
367.147853
 30
0.0
 11
29.481399
 21
367.147853
 31
0.0
  0
LINE
  5
200
100
AcDbEntity
  8
Layer_1
 62
7
100
AcDbLine
 10
32.476835
 20
373.351769
 30
0.0
 11
32.476835
 21
367.147819
 31
0.0
  0
LINE
  5
201
100
AcDbEntity
  8
Layer_1
 62
7
100
AcDbLine
 10
33.835241
 20
373.351769
 30
0.0
 11
32.476694
 21
373.351769
 31
0.0
  0
LINE
  5
202
100
AcDbEntity
  8
Layer_1
 62
7
100
AcDbLine
 10
33.835241
 20
375.518037
 30
0.0
 11
33.835241
 21
373.351628
 31
0.0
  0
LINE
  5
203
100
AcDbEntity
  8
Layer_1
 62
7
100
AcDbLine
 10
32.476835
 20
375.518037
 30
0.0
 11
33.835382
 21
375.518037
 31
0.0
  0
LINE
  5
204
100
AcDbEntity
  8
Layer_1
 62
7
100
AcDbLine
 10
32.476835
 20
379.510917
 30
0.0
 11
32.476835
 21
375.518178
 31
0.0
  0
LINE
  5
205
100
AcDbEntity
  8
Layer_1
 62
7
100
AcDbLine
 10
60.963641
 20
384.638575
 30
0.0
 11
60.963641
 21
379.510950
 31
0.0
  0
LINE
  5
206
100
AcDbEntity
  8
Layer_1
 62
7
100
AcDbLine
 10
119.816220
 20
384.638575
 30
0.0
 11
119.816220
 21
379.510950
 31
0.0
  0
LINE
  5
207
100
AcDbEntity
  8
Layer_1
 62
7
100
AcDbLine
 10
119.816220
 20
379.510917
 30
0.0
 11
148.306200
 21
379.510917
 31
0.0
  0
LINE
  5
208
100
AcDbEntity
  8
Layer_1
 62
7
100
AcDbLine
 10
148.306093
 20
375.518037
 30
0.0
 11
148.306093
 21
379.510775
 31
0.0
  0
LINE
  5
209
100
AcDbEntity
  8
Layer_1
 62
7
100
AcDbLine
 10
146.947721
 20
375.518037
 30
0.0
 11
148.306268
 21
375.518037
 31
0.0
  0
LINE
  5
20a
100
AcDbEntity
  8
Layer_1
 62
7
100
AcDbLine
 10
146.947721
 20
373.351769
 30
0.0
 11
146.947721
 21
375.518178
 31
0.0
  0
LINE
  5
20b
100
AcDbEntity
  8
Layer_1
 62
7
100
AcDbLine
 10
148.306093
 20
373.351769
 30
0.0
 11
146.947546
 21
373.351769
 31
0.0
  0
LINE
  5
20c
100
AcDbEntity
  8
Layer_1
 62
7
100
AcDbLine
 10
148.306093
 20
367.147853
 30
0.0
 11
148.306093
 21
373.351803
 31
0.0
  0
LINE
  5
20d
100
AcDbEntity
  8
Layer_1
 62
7
100
AcDbLine
 10
151.301633
 20
367.147853
 30
0.0
 11
148.306197
 21
367.147853
 31
0.0
  0
LINE
  5
20e
100
AcDbEntity
  8
Layer_1
 62
7
100
AcDbLine
 10
151.301633
 20
373.351769
 30
0.0
 11
151.301633
 21
367.147819
 31
0.0
  0
LINE
  5
20f
100
AcDbEntity
  8
Layer_1
 62
7
100
AcDbLine
 10
152.660006
 20
373.351769
 30
0.0
 11
151.301458
 21
373.351769
 31
0.0
  0
LINE
  5
210
100
AcDbEntity
  8
Layer_1
 62
7
100
AcDbLine
 10
152.660006
 20
375.518037
 30
0.0
 11
152.660006
 21
373.351628
 31
0.0
  0
LINE
  5
211
100
AcDbEntity
  8
Layer_1
 62
7
100
AcDbLine
 10
151.301633
 20
375.518037
 30
0.0
 11
152.660181
 21
375.518037
 31
0.0
  0
LINE
  5
212
100
AcDbEntity
  8
Layer_1
 62
7
100
AcDbLine
 10
151.301633
 20
379.510917
 30
0.0
 11
151.301633
 21
375.518178
 31
0.0
  0
LINE
  5
213
100
AcDbEntity
  8
Layer_1
 62
7
100
AcDbLine
 10
151.301633
 20
379.510917
 30
0.0
 11
177.295006
 21
379.510917
 31
0.0
  0
LINE
  5
214
100
AcDbEntity
  8
Layer_1
 62
7
100
AcDbLine
 10
177.294865
 20
379.510917
 30
0.0
 11
177.294865
 21
201.793467
 31
0.0
  0
LINE
  5
215
100
AcDbEntity
  8
Layer_1
 62
7
100
AcDbLine
 10
177.294865
 20
201.793557
 30
0.0
 11
151.301492
 21
201.793557
 31
0.0
  0
LINE
  5
216
100
AcDbEntity
  8
Layer_1
 62
7
100
AcDbLine
 10
151.301633
 20
201.793557
 30
0.0
 11
151.301633
 21
205.786296
 31
0.0
  0
LINE
  5
217
100
AcDbEntity
  8
Layer_1
 62
7
100
AcDbLine
 10
151.301633
 20
205.786465
 30
0.0
 11
152.660181
 21
205.786465
 31
0.0
  0
LINE
  5
218
100
AcDbEntity
  8
Layer_1
 62
7
100
AcDbLine
 10
152.660006
 20
205.786465
 30
0.0
 11
152.660006
 21
207.952873
 31
0.0
  0
LINE
  5
219
100
AcDbEntity
  8
Layer_1
 62
7
100
AcDbLine
 10
152.660006
 20
207.952718
 30
0.0
 11
151.301458
 21
207.952718
 31
0.0
  0
LINE
  5
21a
100
AcDbEntity
  8
Layer_1
 62
7
100
AcDbLine
 10
151.301633
 20
207.952718
 30
0.0
 11
151.301633
 21
214.156668
 31
0.0
  0
LINE
  5
21b
100
AcDbEntity
  8
Layer_1
 62
7
100
AcDbLine
 10
151.301633
 20
214.156668
 30
0.0
 11
148.306197
 21
214.156668
 31
0.0
  0
LINE
  5
21c
100
AcDbEntity
  8
Layer_1
 62
7
100
AcDbLine
 10
148.306093
 20
214.156668
 30
0.0
 11
148.306093
 21
207.952718
 31
0.0
  0
LINE
  5
21d
100
AcDbEntity
  8
Layer_1
 62
7
100
AcDbLine
 10
148.306093
 20
207.952718
 30
0.0
 11
146.947546
 21
207.952718
 31
0.0
  0
LINE
  5
21e
100
AcDbEntity
  8
Layer_1
 62
7
100
AcDbLine
 10
146.947721
 20
207.952718
 30
0.0
 11
146.947721
 21
205.786310
 31
0.0
  0
LINE
  5
21f
100
AcDbEntity
  8
Layer_1
 62
7
100
AcDbLine
 10
146.947721
 20
205.786465
 30
0.0
 11
148.306268
 21
205.786465
 31
0.0
  0
LINE
  5
220
100
AcDbEntity
  8
Layer_1
 62
7
100
AcDbLine
 10
148.306093
 20
205.786465
 30
0.0
 11
148.306093
 21
201.793726
 31
0.0
  0
LINE
  5
221
100
AcDbEntity
  8
Layer_1
 62
7
100
AcDbLine
 10
148.306093
 20
201.793557
 30
0.0
 11
32.476801
 21
201.793557
 31
0.0
  0
LINE
  5
222
100
AcDbEntity
  8
Layer_1
 62
7
100
AcDbLine
 10
32.476835
 20
201.793557
 30
0.0
 11
32.476835
 21
205.786296
 31
0.0
  0
LINE
  5
223
100
AcDbEntity
  8
Layer_1
 62
7
100
AcDbLine
 10
32.476835
 20
379.510917
 30
0.0
 11
60.963641
 21
379.510917
 31
0.0
  0
LINE
  5
224
100
AcDbEntity
  8
Layer_1
 62
7
100
AcDbLine
 10
60.963641
 20
384.638575
 30
0.0
 11
119.816146
 21
384.638575
 31
0.0
  0
LINE
  5
225
100
AcDbEntity
  8
Layer_1
 62
7
100
AcDbLine
 10
229.531649
 20
72.584121
 30
0.0
 11
317.490791
 21
72.584121
 31
0.0
  0
LINE
  5
226
100
AcDbEntity
  8
Layer_1
 62
7
100
AcDbLine
 10
317.490966
 20
72.584121
 30
0.0
 11
317.490966
 21
80.580888
 31
0.0
  0
LINE
  5
227
100
AcDbEntity
  8
Layer_1
 62
7
100
AcDbLine
 10
317.490966
 20
80.580888
 30
0.0
 11
229.531824
 21
80.580888
 31
0.0
  0
LINE
  5
228
100
AcDbEntity
  8
Layer_1
 62
7
100
AcDbLine
 10
229.531649
 20
80.580888
 30
0.0
 11
229.531649
 21
72.584121
 31
0.0
  0
LINE
  5
229
100
AcDbEntity
  8
Layer_1
 62
7
100
AcDbLine
 10
229.531649
 20
88.576949
 30
0.0
 11
317.490791
 21
88.576949
 31
0.0
  0
LINE
  5
22a
100
AcDbEntity
  8
Layer_1
 62
7
100
AcDbLine
 10
317.490966
 20
88.576949
 30
0.0
 11
317.490966
 21
96.573010
 31
0.0
  0
LINE
  5
22b
100
AcDbEntity
  8
Layer_1
 62
7
100
AcDbLine
 10
317.490966
 20
96.573010
 30
0.0
 11
229.531824
 21
96.573010
 31
0.0
  0
LINE
  5
22c
100
AcDbEntity
  8
Layer_1
 62
7
100
AcDbLine
 10
229.531649
 20
96.573010
 30
0.0
 11
229.531649
 21
88.576949
 31
0.0
  0
LINE
  5
22d
100
AcDbEntity
  8
Layer_1
 62
7
100
AcDbLine
 10
229.531649
 20
104.569777
 30
0.0
 11
317.490791
 21
104.569777
 31
0.0
  0
LINE
  5
22e
100
AcDbEntity
  8
Layer_1
 62
7
100
AcDbLine
 10
317.490966
 20
104.569777
 30
0.0
 11
317.490966
 21
112.565838
 31
0.0
  0
LINE
  5
22f
100
AcDbEntity
  8
Layer_1
 62
7
100
AcDbLine
 10
317.490966
 20
112.565838
 30
0.0
 11
229.531824
 21
112.565838
 31
0.0
  0
LINE
  5
230
100
AcDbEntity
  8
Layer_1
 62
7
100
AcDbLine
 10
229.531649
 20
112.565838
 30
0.0
 11
229.531649
 21
104.569777
 31
0.0
  0
LINE
  5
231
100
AcDbEntity
  8
Layer_1
 62
7
100
AcDbLine
 10
325.786078
 20
22.969257
 30
0.0
 11
325.786078
 21
20.802848
 31
0.0
  0
LINE
  5
232
100
AcDbEntity
  8
Layer_1
 62
7
100
AcDbLine
 10
324.427669
 20
22.969257
 30
0.0
 11
325.786217
 21
22.969257
 31
0.0
  0
LINE
  5
233
100
AcDbEntity
  8
Layer_1
 62
7
100
AcDbLine
 10
324.427669
 20
29.173150
 30
0.0
 11
324.427669
 21
22.969200
 31
0.0
  0
LINE
  5
234
100
AcDbEntity
  8
Layer_1
 62
7
100
AcDbLine
 10
321.432164
 20
29.173150
 30
0.0
 11
324.427600
 21
29.173150
 31
0.0
  0
LINE
  5
235
100
AcDbEntity
  8
Layer_1
 62
7
100
AcDbLine
 10
321.432164
 20
22.969257
 30
0.0
 11
321.432164
 21
29.173207
 31
0.0
  0
LINE
  5
236
100
AcDbEntity
  8
Layer_1
 62
7
100
AcDbLine
 10
320.073758
 20
22.969257
 30
0.0
 11
321.432306
 21
22.969257
 31
0.0
  0
LINE
  5
237
100
AcDbEntity
  8
Layer_1
 62
7
100
AcDbLine
 10
320.073758
 20
20.802947
 30
0.0
 11
320.073758
 21
22.969356
 31
0.0
  0
LINE
  5
238
100
AcDbEntity
  8
Layer_1
 62
7
100
AcDbLine
 10
321.432164
 20
20.802947
 30
0.0
 11
320.073617
 21
20.802947
 31
0.0
  0
LINE
  5
239
100
AcDbEntity
  8
Layer_1
 62
7
100
AcDbLine
 10
321.432164
 20
16.810095
 30
0.0
 11
321.432164
 21
20.802834
 31
0.0
  0
LINE
  5
23a
100
AcDbEntity
  8
Layer_1
 62
7
100
AcDbLine
 10
321.432164
 20
16.810095
 30
0.0
 11
302.937789
 21
16.810095
 31
0.0
  0
LINE
  5
23b
100
AcDbEntity
  8
Layer_1
 62
7
100
AcDbLine
 10
302.937859
 20
11.682400
 30
0.0
 11
302.937859
 21
16.810025
 31
0.0
  0
LINE
  5
23c
100
AcDbEntity
  8
Layer_1
 62
7
100
AcDbLine
 10
244.084929
 20
11.682400
 30
0.0
 11
244.084929
 21
16.810025
 31
0.0
  0
LINE
  5
23d
100
AcDbEntity
  8
Layer_1
 62
7
100
AcDbLine
 10
244.084929
 20
16.810095
 30
0.0
 11
225.593377
 21
16.810095
 31
0.0
  0
LINE
  5
23e
100
AcDbEntity
  8
Layer_1
 62
7
100
AcDbLine
 10
225.593554
 20
20.802947
 30
0.0
 11
225.593554
 21
16.810208
 31
0.0
  0
LINE
  5
23f
100
AcDbEntity
  8
Layer_1
 62
7
100
AcDbLine
 10
226.951961
 20
20.802947
 30
0.0
 11
225.593413
 21
20.802947
 31
0.0
  0
LINE
  5
240
100
AcDbEntity
  8
Layer_1
 62
7
100
AcDbLine
 10
226.951961
 20
22.969257
 30
0.0
 11
226.951961
 21
20.802848
 31
0.0
  0
LINE
  5
241
100
AcDbEntity
  8
Layer_1
 62
7
100
AcDbLine
 10
225.593554
 20
22.969257
 30
0.0
 11
226.952102
 21
22.969257
 31
0.0
  0
LINE
  5
242
100
AcDbEntity
  8
Layer_1
 62
7
100
AcDbLine
 10
225.593554
 20
29.173150
 30
0.0
 11
225.593554
 21
22.969200
 31
0.0
  0
LINE
  5
243
100
AcDbEntity
  8
Layer_1
 62
7
100
AcDbLine
 10
222.597870
 20
29.173150
 30
0.0
 11
225.593659
 21
29.173150
 31
0.0
  0
LINE
  5
244
100
AcDbEntity
  8
Layer_1
 62
7
100
AcDbLine
 10
222.597870
 20
22.969257
 30
0.0
 11
222.597870
 21
29.173207
 31
0.0
  0
LINE
  5
245
100
AcDbEntity
  8
Layer_1
 62
7
100
AcDbLine
 10
221.239467
 20
22.969257
 30
0.0
 11
222.598014
 21
22.969257
 31
0.0
  0
LINE
  5
246
100
AcDbEntity
  8
Layer_1
 62
7
100
AcDbLine
 10
221.239467
 20
20.802947
 30
0.0
 11
221.239467
 21
22.969356
 31
0.0
  0
LINE
  5
247
100
AcDbEntity
  8
Layer_1
 62
7
100
AcDbLine
 10
222.597870
 20
20.802947
 30
0.0
 11
221.239323
 21
20.802947
 31
0.0
  0
LINE
  5
248
100
AcDbEntity
  8
Layer_1
 62
7
100
AcDbLine
 10
222.597870
 20
16.810095
 30
0.0
 11
222.597870
 21
20.802834
 31
0.0
  0
LINE
  5
249
100
AcDbEntity
  8
Layer_1
 62
7
100
AcDbLine
 10
222.597870
 20
16.810095
 30
0.0
 11
213.798887
 21
16.810095
 31
0.0
  0
LINE
  5
24a
100
AcDbEntity
  8
Layer_1
 62
7
100
AcDbLine
 10
213.798923
 20
16.810095
 30
0.0
 11
213.798923
 21
194.527898
 31
0.0
  0
LINE
  5
24b
100
AcDbEntity
  8
Layer_1
 62
7
100
AcDbLine
 10
213.798923
 20
194.527938
 30
0.0
 11
222.597907
 21
194.527938
 31
0.0
  0
LINE
  5
24c
100
AcDbEntity
  8
Layer_1
 62
7
100
AcDbLine
 10
222.597870
 20
190.534705
 30
0.0
 11
222.597870
 21
194.527797
 31
0.0
  0
LINE
  5
24d
100
AcDbEntity
  8
Layer_1
 62
7
100
AcDbLine
 10
221.239467
 20
190.534705
 30
0.0
 11
222.598014
 21
190.534705
 31
0.0
  0
LINE
  5
24e
100
AcDbEntity
  8
Layer_1
 62
7
100
AcDbLine
 10
221.239467
 20
188.368790
 30
0.0
 11
221.239467
 21
190.534846
 31
0.0
  0
LINE
  5
24f
100
AcDbEntity
  8
Layer_1
 62
7
100
AcDbLine
 10
222.597870
 20
188.368790
 30
0.0
 11
221.239323
 21
188.368790
 31
0.0
  0
LINE
  5
250
100
AcDbEntity
  8
Layer_1
 62
7
100
AcDbLine
 10
222.597870
 20
182.164522
 30
0.0
 11
222.597870
 21
188.368824
 31
0.0
  0
LINE
  5
251
100
AcDbEntity
  8
Layer_1
 62
7
100
AcDbLine
 10
225.593554
 20
182.164522
 30
0.0
 11
222.597766
 21
182.164522
 31
0.0
  0
LINE
  5
252
100
AcDbEntity
  8
Layer_1
 62
7
100
AcDbLine
 10
225.593554
 20
188.368790
 30
0.0
 11
225.593554
 21
182.164488
 31
0.0
  0
LINE
  5
253
100
AcDbEntity
  8
Layer_1
 62
7
100
AcDbLine
 10
226.951961
 20
188.368790
 30
0.0
 11
225.593413
 21
188.368790
 31
0.0
  0
LINE
  5
254
100
AcDbEntity
  8
Layer_1
 62
7
100
AcDbLine
 10
226.951961
 20
190.534705
 30
0.0
 11
226.951961
 21
188.368649
 31
0.0
  0
LINE
  5
255
100
AcDbEntity
  8
Layer_1
 62
7
100
AcDbLine
 10
225.593554
 20
190.534705
 30
0.0
 11
226.952102
 21
190.534705
 31
0.0
  0
LINE
  5
256
100
AcDbEntity
  8
Layer_1
 62
7
100
AcDbLine
 10
225.593554
 20
194.527938
 30
0.0
 11
225.593554
 21
190.534846
 31
0.0
  0
LINE
  5
257
100
AcDbEntity
  8
Layer_1
 62
7
100
AcDbLine
 10
225.593554
 20
194.527938
 30
0.0
 11
244.085107
 21
194.527938
 31
0.0
  0
LINE
  5
258
100
AcDbEntity
  8
Layer_1
 62
7
100
AcDbLine
 10
244.084929
 20
199.655599
 30
0.0
 11
244.084929
 21
194.527974
 31
0.0
  0
LINE
  5
259
100
AcDbEntity
  8
Layer_1
 62
7
100
AcDbLine
 10
244.084929
 20
199.655599
 30
0.0
 11
302.937788
 21
199.655599
 31
0.0
  0
LINE
  5
25a
100
AcDbEntity
  8
Layer_1
 62
7
100
AcDbLine
 10
302.937859
 20
199.655599
 30
0.0
 11
302.937859
 21
194.527974
 31
0.0
  0
LINE
  5
25b
100
AcDbEntity
  8
Layer_1
 62
7
100
AcDbLine
 10
302.937859
 20
194.527938
 30
0.0
 11
321.432234
 21
194.527938
 31
0.0
  0
LINE
  5
25c
100
AcDbEntity
  8
Layer_1
 62
7
100
AcDbLine
 10
321.432164
 20
190.534705
 30
0.0
 11
321.432164
 21
194.527797
 31
0.0
  0
LINE
  5
25d
100
AcDbEntity
  8
Layer_1
 62
7
100
AcDbLine
 10
320.073758
 20
190.534705
 30
0.0
 11
321.432306
 21
190.534705
 31
0.0
  0
LINE
  5
25e
100
AcDbEntity
  8
Layer_1
 62
7
100
AcDbLine
 10
320.073758
 20
188.368790
 30
0.0
 11
320.073758
 21
190.534846
 31
0.0
  0
LINE
  5
25f
100
AcDbEntity
  8
Layer_1
 62
7
100
AcDbLine
 10
321.432164
 20
188.368790
 30
0.0
 11
320.073617
 21
188.368790
 31
0.0
  0
LINE
  5
260
100
AcDbEntity
  8
Layer_1
 62
7
100
AcDbLine
 10
321.432164
 20
182.164522
 30
0.0
 11
321.432164
 21
188.368824
 31
0.0
  0
LINE
  5
261
100
AcDbEntity
  8
Layer_1
 62
7
100
AcDbLine
 10
324.427669
 20
182.164522
 30
0.0
 11
321.432233
 21
182.164522
 31
0.0
  0
LINE
  5
262
100
AcDbEntity
  8
Layer_1
 62
7
100
AcDbLine
 10
324.427669
 20
188.368790
 30
0.0
 11
324.427669
 21
182.164488
 31
0.0
  0
LINE
  5
263
100
AcDbEntity
  8
Layer_1
 62
7
100
AcDbLine
 10
325.786078
 20
188.368790
 30
0.0
 11
324.427531
 21
188.368790
 31
0.0
  0
LINE
  5
264
100
AcDbEntity
  8
Layer_1
 62
7
100
AcDbLine
 10
325.786078
 20
190.534705
 30
0.0
 11
325.786078
 21
188.368649
 31
0.0
  0
LINE
  5
265
100
AcDbEntity
  8
Layer_1
 62
7
100
AcDbLine
 10
324.427669
 20
190.534705
 30
0.0
 11
325.786217
 21
190.534705
 31
0.0
  0
LINE
  5
266
100
AcDbEntity
  8
Layer_1
 62
7
100
AcDbLine
 10
324.427669
 20
194.527938
 30
0.0
 11
324.427669
 21
190.534846
 31
0.0
  0
LINE
  5
267
100
AcDbEntity
  8
Layer_1
 62
7
100
AcDbLine
 10
324.427669
 20
194.527938
 30
0.0
 11
333.223830
 21
194.527938
 31
0.0
  0
LINE
  5
268
100
AcDbEntity
  8
Layer_1
 62
7
100
AcDbLine
 10
333.223689
 20
194.527938
 30
0.0
 11
333.223689
 21
16.810135
 31
0.0
  0
LINE
  5
269
100
AcDbEntity
  8
Layer_1
 62
7
100
AcDbLine
 10
333.223689
 20
16.810095
 30
0.0
 11
324.427528
 21
16.810095
 31
0.0
  0
LINE
  5
26a
100
AcDbEntity
  8
Layer_1
 62
7
100
AcDbLine
 10
324.427669
 20
20.802947
 30
0.0
 11
324.427669
 21
16.810208
 31
0.0
  0
LINE
  5
26b
100
AcDbEntity
  8
Layer_1
 62
7
100
AcDbLine
 10
325.786078
 20
20.802947
 30
0.0
 11
324.427531
 21
20.802947
 31
0.0
  0
LINE
  5
26c
100
AcDbEntity
  8
Layer_1
 62
7
100
AcDbLine
 10
317.490966
 20
136.554896
 30
0.0
 11
317.490966
 21
144.550957
 31
0.0
  0
LINE
  5
26d
100
AcDbEntity
  8
Layer_1
 62
7
100
AcDbLine
 10
317.490966
 20
144.550968
 30
0.0
 11
229.531824
 21
144.550968
 31
0.0
  0
LINE
  5
26e
100
AcDbEntity
  8
Layer_1
 62
7
100
AcDbLine
 10
229.531649
 20
144.550968
 30
0.0
 11
229.531649
 21
136.554907
 31
0.0
  0
LINE
  5
26f
100
AcDbEntity
  8
Layer_1
 62
7
100
AcDbLine
 10
229.531649
 20
136.554896
 30
0.0
 11
317.490791
 21
136.554896
 31
0.0
  0
LINE
  5
270
100
AcDbEntity
  8
Layer_1
 62
7
100
AcDbLine
 10
317.490966
 20
120.561899
 30
0.0
 11
317.490966
 21
128.558313
 31
0.0
  0
LINE
  5
271
100
AcDbEntity
  8
Layer_1
 62
7
100
AcDbLine
 10
317.490966
 20
128.558496
 30
0.0
 11
229.531824
 21
128.558496
 31
0.0
  0
LINE
  5
272
100
AcDbEntity
  8
Layer_1
 62
7
100
AcDbLine
 10
229.531649
 20
128.558496
 30
0.0
 11
229.531649
 21
120.562082
 31
0.0
  0
LINE
  5
273
100
AcDbEntity
  8
Layer_1
 62
7
100
AcDbLine
 10
229.531649
 20
120.561899
 30
0.0
 11
317.490791
 21
120.561899
 31
0.0
  0
LINE
  5
274
100
AcDbEntity
  8
Layer_1
 62
7
100
AcDbLine
 10
302.937859
 20
11.682400
 30
0.0
 11
244.085001
 21
11.682400
 31
0.0
  0
LINE
  5
275
100
AcDbEntity
  8
Layer_1
 62
7
100
AcDbLine
 10
372.468340
 20
457.375031
 30
0.0
 11
372.468340
 21
466.174015
 31
0.0
  0
LINE
  5
276
100
AcDbEntity
  8
Layer_1
 62
7
100
AcDbLine
 10
194.689188
 20
457.375031
 30
0.0
 11
372.468374
 21
457.375031
 31
0.0
  0
LINE
  5
277
100
AcDbEntity
  8
Layer_1
 62
7
100
AcDbLine
 10
194.689188
 20
466.173981
 30
0.0
 11
194.689188
 21
457.374998
 31
0.0
  0
LINE
  5
278
100
AcDbEntity
  8
Layer_1
 62
7
100
AcDbLine
 10
194.689188
 20
466.173981
 30
0.0
 11
198.683691
 21
466.173981
 31
0.0
  0
LINE
  5
279
100
AcDbEntity
  8
Layer_1
 62
7
100
AcDbLine
 10
198.683620
 20
466.173981
 30
0.0
 11
198.683620
 21
464.815081
 31
0.0
  0
LINE
  5
27a
100
AcDbEntity
  8
Layer_1
 62
7
100
AcDbLine
 10
198.683620
 20
464.815078
 30
0.0
 11
200.850381
 21
464.815078
 31
0.0
  0
LINE
  5
27b
100
AcDbEntity
  8
Layer_1
 62
7
100
AcDbLine
 10
200.850418
 20
464.815078
 30
0.0
 11
200.850418
 21
466.173978
 31
0.0
  0
LINE
  5
27c
100
AcDbEntity
  8
Layer_1
 62
7
100
AcDbLine
 10
200.850418
 20
466.173981
 30
0.0
 11
207.056838
 21
466.173981
 31
0.0
  0
LINE
  5
27d
100
AcDbEntity
  8
Layer_1
 62
7
100
AcDbLine
 10
207.056730
 20
466.173981
 30
0.0
 11
207.056730
 21
469.170475
 31
0.0
  0
LINE
  5
27e
100
AcDbEntity
  8
Layer_1
 62
7
100
AcDbLine
 10
207.056730
 20
469.170543
 30
0.0
 11
200.850311
 21
469.170543
 31
0.0
  0
LINE
  5
27f
100
AcDbEntity
  8
Layer_1
 62
7
100
AcDbLine
 10
200.850418
 20
469.170543
 30
0.0
 11
200.850418
 21
470.529443
 31
0.0
  0
LINE
  5
280
100
AcDbEntity
  8
Layer_1
 62
7
100
AcDbLine
 10
200.850418
 20
470.529446
 30
0.0
 11
198.683657
 21
470.529446
 31
0.0
  0
LINE
  5
281
100
AcDbEntity
  8
Layer_1
 62
7
100
AcDbLine
 10
198.683620
 20
470.529446
 30
0.0
 11
198.683620
 21
469.170546
 31
0.0
  0
LINE
  5
282
100
AcDbEntity
  8
Layer_1
 62
7
100
AcDbLine
 10
198.683620
 20
469.170543
 30
0.0
 11
194.689118
 21
469.170543
 31
0.0
  0
LINE
  5
283
100
AcDbEntity
  8
Layer_1
 62
7
100
AcDbLine
 10
194.689188
 20
487.671375
 30
0.0
 11
194.689188
 21
469.170650
 31
0.0
  0
LINE
  5
284
100
AcDbEntity
  8
Layer_1
 62
7
100
AcDbLine
 10
189.559802
 20
487.671375
 30
0.0
 11
194.689191
 21
487.671375
 31
0.0
  0
LINE
  5
285
100
AcDbEntity
  8
Layer_1
 62
7
100
AcDbLine
 10
189.559802
 20
487.671375
 30
0.0
 11
189.559802
 21
546.544695
 31
0.0
  0
LINE
  5
286
100
AcDbEntity
  8
Layer_1
 62
7
100
AcDbLine
 10
189.559802
 20
546.544624
 30
0.0
 11
194.689191
 21
546.544624
 31
0.0
  0
LINE
  5
287
100
AcDbEntity
  8
Layer_1
 62
7
100
AcDbLine
 10
194.689188
 20
565.042386
 30
0.0
 11
194.689188
 21
546.544483
 31
0.0
  0
LINE
  5
288
100
AcDbEntity
  8
Layer_1
 62
7
100
AcDbLine
 10
194.689188
 20
565.042386
 30
0.0
 11
198.683691
 21
565.042386
 31
0.0
  0
LINE
  5
289
100
AcDbEntity
  8
Layer_1
 62
7
100
AcDbLine
 10
198.683620
 20
565.042386
 30
0.0
 11
198.683620
 21
563.683486
 31
0.0
  0
LINE
  5
28a
100
AcDbEntity
  8
Layer_1
 62
7
100
AcDbLine
 10
198.683620
 20
563.683627
 30
0.0
 11
200.850381
 21
563.683627
 31
0.0
  0
LINE
  5
28b
100
AcDbEntity
  8
Layer_1
 62
7
100
AcDbLine
 10
200.850418
 20
563.683627
 30
0.0
 11
200.850418
 21
565.042527
 31
0.0
  0
LINE
  5
28c
100
AcDbEntity
  8
Layer_1
 62
7
100
AcDbLine
 10
200.850418
 20
565.042386
 30
0.0
 11
207.056838
 21
565.042386
 31
0.0
  0
LINE
  5
28d
100
AcDbEntity
  8
Layer_1
 62
7
100
AcDbLine
 10
207.056730
 20
565.042386
 30
0.0
 11
207.056730
 21
568.038880
 31
0.0
  0
LINE
  5
28e
100
AcDbEntity
  8
Layer_1
 62
7
100
AcDbLine
 10
207.056730
 20
568.038914
 30
0.0
 11
200.850311
 21
568.038914
 31
0.0
  0
LINE
  5
28f
100
AcDbEntity
  8
Layer_1
 62
7
100
AcDbLine
 10
200.850418
 20
568.038914
 30
0.0
 11
200.850418
 21
569.397814
 31
0.0
  0
LINE
  5
290
100
AcDbEntity
  8
Layer_1
 62
7
100
AcDbLine
 10
200.850418
 20
569.397676
 30
0.0
 11
198.683657
 21
569.397676
 31
0.0
  0
LINE
  5
291
100
AcDbEntity
  8
Layer_1
 62
7
100
AcDbLine
 10
198.683620
 20
569.397676
 30
0.0
 11
198.683620
 21
568.038776
 31
0.0
  0
LINE
  5
292
100
AcDbEntity
  8
Layer_1
 62
7
100
AcDbLine
 10
198.683620
 20
568.038914
 30
0.0
 11
194.689118
 21
568.038914
 31
0.0
  0
LINE
  5
293
100
AcDbEntity
  8
Layer_1
 62
7
100
AcDbLine
 10
194.689188
 20
576.841146
 30
0.0
 11
194.689188
 21
568.038988
 31
0.0
  0
LINE
  5
294
100
AcDbEntity
  8
Layer_1
 62
7
100
AcDbLine
 10
372.468340
 20
576.841146
 30
0.0
 11
194.689154
 21
576.841146
 31
0.0
  0
LINE
  5
295
100
AcDbEntity
  8
Layer_1
 62
7
100
AcDbLine
 10
372.468340
 20
568.038914
 30
0.0
 11
372.468340
 21
576.841073
 31
0.0
  0
LINE
  5
296
100
AcDbEntity
  8
Layer_1
 62
7
100
AcDbLine
 10
372.468340
 20
568.038914
 30
0.0
 11
368.473838
 21
568.038914
 31
0.0
  0
LINE
  5
297
100
AcDbEntity
  8
Layer_1
 62
7
100
AcDbLine
 10
368.473767
 20
568.038914
 30
0.0
 11
368.473767
 21
569.397814
 31
0.0
  0
LINE
  5
298
100
AcDbEntity
  8
Layer_1
 62
7
100
AcDbLine
 10
368.473767
 20
569.397676
 30
0.0
 11
366.307006
 21
569.397676
 31
0.0
  0
LINE
  5
299
100
AcDbEntity
  8
Layer_1
 62
7
100
AcDbLine
 10
366.307147
 20
569.397676
 30
0.0
 11
366.307147
 21
568.038776
 31
0.0
  0
LINE
  5
29a
100
AcDbEntity
  8
Layer_1
 62
7
100
AcDbLine
 10
366.307147
 20
568.038914
 30
0.0
 11
360.100728
 21
568.038914
 31
0.0
  0
LINE
  5
29b
100
AcDbEntity
  8
Layer_1
 62
7
100
AcDbLine
 10
360.100798
 20
568.038914
 30
0.0
 11
360.100798
 21
565.042420
 31
0.0
  0
LINE
  5
29c
100
AcDbEntity
  8
Layer_1
 62
7
100
AcDbLine
 10
360.100798
 20
565.042386
 30
0.0
 11
366.307218
 21
565.042386
 31
0.0
  0
LINE
  5
29d
100
AcDbEntity
  8
Layer_1
 62
7
100
AcDbLine
 10
366.307147
 20
565.042386
 30
0.0
 11
366.307147
 21
563.683486
 31
0.0
  0
LINE
  5
29e
100
AcDbEntity
  8
Layer_1
 62
7
100
AcDbLine
 10
366.307147
 20
563.683627
 30
0.0
 11
368.473908
 21
563.683627
 31
0.0
  0
LINE
  5
29f
100
AcDbEntity
  8
Layer_1
 62
7
100
AcDbLine
 10
368.473767
 20
563.683627
 30
0.0
 11
368.473767
 21
565.042527
 31
0.0
  0
LINE
  5
2a0
100
AcDbEntity
  8
Layer_1
 62
7
100
AcDbLine
 10
368.473767
 20
565.042386
 30
0.0
 11
372.468270
 21
565.042386
 31
0.0
  0
LINE
  5
2a1
100
AcDbEntity
  8
Layer_1
 62
7
100
AcDbLine
 10
372.468340
 20
546.544624
 30
0.0
 11
372.468340
 21
565.042527
 31
0.0
  0
LINE
  5
2a2
100
AcDbEntity
  8
Layer_1
 62
7
100
AcDbLine
 10
377.597766
 20
546.544624
 30
0.0
 11
372.468377
 21
546.544624
 31
0.0
  0
LINE
  5
2a3
100
AcDbEntity
  8
Layer_1
 62
7
100
AcDbLine
 10
377.597766
 20
546.544624
 30
0.0
 11
377.597766
 21
487.671305
 31
0.0
  0
LINE
  5
2a4
100
AcDbEntity
  8
Layer_1
 62
7
100
AcDbLine
 10
377.597766
 20
487.671375
 30
0.0
 11
372.468377
 21
487.671375
 31
0.0
  0
LINE
  5
2a5
100
AcDbEntity
  8
Layer_1
 62
7
100
AcDbLine
 10
372.468340
 20
469.170543
 30
0.0
 11
372.468340
 21
487.671268
 31
0.0
  0
LINE
  5
2a6
100
AcDbEntity
  8
Layer_1
 62
7
100
AcDbLine
 10
372.468340
 20
469.170543
 30
0.0
 11
368.473838
 21
469.170543
 31
0.0
  0
LINE
  5
2a7
100
AcDbEntity
  8
Layer_1
 62
7
100
AcDbLine
 10
368.473767
 20
469.170543
 30
0.0
 11
368.473767
 21
470.529443
 31
0.0
  0
LINE
  5
2a8
100
AcDbEntity
  8
Layer_1
 62
7
100
AcDbLine
 10
368.473767
 20
470.529446
 30
0.0
 11
366.307006
 21
470.529446
 31
0.0
  0
LINE
  5
2a9
100
AcDbEntity
  8
Layer_1
 62
7
100
AcDbLine
 10
366.307147
 20
470.529446
 30
0.0
 11
366.307147
 21
469.170546
 31
0.0
  0
LINE
  5
2aa
100
AcDbEntity
  8
Layer_1
 62
7
100
AcDbLine
 10
366.307147
 20
469.170543
 30
0.0
 11
360.100728
 21
469.170543
 31
0.0
  0
LINE
  5
2ab
100
AcDbEntity
  8
Layer_1
 62
7
100
AcDbLine
 10
360.100798
 20
469.170543
 30
0.0
 11
360.100798
 21
466.174049
 31
0.0
  0
LINE
  5
2ac
100
AcDbEntity
  8
Layer_1
 62
7
100
AcDbLine
 10
360.100798
 20
466.173981
 30
0.0
 11
366.307218
 21
466.173981
 31
0.0
  0
LINE
  5
2ad
100
AcDbEntity
  8
Layer_1
 62
7
100
AcDbLine
 10
366.307147
 20
466.173981
 30
0.0
 11
366.307147
 21
464.815081
 31
0.0
  0
LINE
  5
2ae
100
AcDbEntity
  8
Layer_1
 62
7
100
AcDbLine
 10
366.307147
 20
464.815078
 30
0.0
 11
368.473908
 21
464.815078
 31
0.0
  0
LINE
  5
2af
100
AcDbEntity
  8
Layer_1
 62
7
100
AcDbLine
 10
368.473767
 20
464.815078
 30
0.0
 11
368.473767
 21
466.173978
 31
0.0
  0
LINE
  5
2b0
100
AcDbEntity
  8
Layer_1
 62
7
100
AcDbLine
 10
368.473767
 20
466.173981
 30
0.0
 11
372.468270
 21
466.173981
 31
0.0
  0
SPLINE
  5
2b1
100
AcDbEntity
  8
Layer_1
 62
7
100
AcDbSpline
 70
0
 71
3
 72
19
 73
15
 74
13
 40
0.000000
 40
0.000000
 40
0.000000
 40
0.000000
 40
0.836190
 40
1.647462
 40
2.483653
 40
3.319843
 40
4.131115
 40
4.967305
 40
5.803496
 40
6.614768
 40
7.450958
 40
8.287148
 40
9.098420
 40
9.934611
 40
9.934611
 40
9.934611
 40
9.934611
 10
309.942518
 20
218.934154
 30
0.0
 10
310.224447
 20
218.978084
 30
0.0
 10
310.779905
 20
219.064636
 30
0.0
 10
311.391446
 20
219.701308
 30
0.0
 10
311.617903
 20
220.531829
 30
0.0
 10
311.391446
 20
221.371064
 30
0.0
 10
310.779905
 20
221.982112
 30
0.0
 10
309.942518
 20
222.208737
 30
0.0
 10
309.105131
 20
221.982112
 30
0.0
 10
308.493590
 20
221.371064
 30
0.0
 10
308.267133
 20
220.531829
 30
0.0
 10
308.493590
 20
219.701308
 30
0.0
 10
309.105131
 20
219.064636
 30
0.0
 10
309.660588
 20
218.978084
 30
0.0
 10
309.942518
 20
218.934154
 30
0.0
 11
309.942518
 21
218.934154
 31
0.0
 11
310.749713
 21
219.152445
 31
0.0
 11
311.323368
 21
219.726101
 31
0.0
 11
311.541660
 21
220.533296
 31
0.0
 11
311.323368
 21
221.340491
 31
0.0
 11
310.749713
 21
221.914147
 31
0.0
 11
309.942518
 21
222.132438
 31
0.0
 11
309.135323
 21
221.914147
 31
0.0
 11
308.561667
 21
221.340491
 31
0.0
 11
308.343376
 21
220.533296
 31
0.0
 11
308.561667
 21
219.726101
 31
0.0
 11
309.135323
 21
219.152445
 31
0.0
 11
309.942518
 21
218.934154
 31
0.0
  0
LINE
  5
2b2
100
AcDbEntity
  8
Layer_1
 62
7
100
AcDbLine
 10
120.189052
 20
418.027014
 30
0.0
 11
120.189052
 21
418.027014
 31
0.0
  0
SPLINE
  5
2b3
100
AcDbEntity
  8
Layer_1
 62
7
100
AcDbSpline
 70
0
 71
3
 72
19
 73
15
 74
13
 40
0.000000
 40
0.000000
 40
0.000000
 40
0.000000
 40
0.896133
 40
1.765388
 40
2.661178
 40
3.557358
 40
4.426623
 40
5.322738
 40
6.218854
 40
7.088119
 40
7.984299
 40
8.880088
 40
9.749344
 40
10.645477
 40
10.645477
 40
10.645477
 40
10.645477
 10
120.189052
 20
418.027014
 30
0.0
 10
120.141971
 20
418.329157
 30
0.0
 10
120.049222
 20
418.924383
 30
0.0
 10
119.366936
 20
419.579552
 30
0.0
 10
118.477060
 20
419.822102
 30
0.0
 10
117.577788
 20
419.579645
 30
0.0
 10
116.922819
 20
418.924396
 30
0.0
 10
116.680090
 20
418.027014
 30
0.0
 10
116.922819
 20
417.129631
 30
0.0
 10
117.577788
 20
416.474383
 30
0.0
 10
118.477060
 20
416.231926
 30
0.0
 10
119.366936
 20
416.474476
 30
0.0
 10
120.049222
 20
417.129645
 30
0.0
 10
120.141971
 20
417.724870
 30
0.0
 10
120.189052
 20
418.027014
 30
0.0
 11
120.189052
 21
418.027014
 31
0.0
 11
119.955082
 21
418.892064
 31
0.0
 11
119.340347
 21
419.506642
 31
0.0
 11
118.475610
 21
419.740455
 31
0.0
 11
117.610469
 21
419.506642
 31
0.0
 11
116.995721
 21
418.892064
 31
0.0
 11
116.761816
 21
418.027014
 31
0.0
 11
116.995721
 21
417.161963
 31
0.0
 11
117.610469
 21
416.547385
 31
0.0
 11
118.475610
 21
416.313572
 31
0.0
 11
119.340347
 21
416.547385
 31
0.0
 11
119.955082
 21
417.161963
 31
0.0
 11
120.189052
 21
418.027014
 31
0.0
  0
LINE
  5
2b4
100
AcDbEntity
  8
Layer_1
 62
7
100
AcDbLine
 10
171.165444
 20
418.027014
 30
0.0
 11
171.165444
 21
418.027014
 31
0.0
  0
LINE
  5
2b5
100
AcDbEntity
  8
Layer_1
 62
7
100
AcDbLine
 10
121.852682
 20
495.712030
 30
0.0
 11
162.833818
 21
495.712030
 31
0.0
  0
LINE
  5
2b6
100
AcDbEntity
  8
Layer_1
 62
7
100
AcDbLine
 10
121.852682
 20
486.361689
 30
0.0
 11
121.852682
 21
495.712064
 31
0.0
  0
LINE
  5
2b7
100
AcDbEntity
  8
Layer_1
 62
7
100
AcDbLine
 10
162.833818
 20
486.361689
 30
0.0
 11
121.852682
 21
486.361689
 31
0.0
  0
LINE
  5
2b8
100
AcDbEntity
  8
Layer_1
 62
7
100
AcDbLine
 10
162.833818
 20
495.712030
 30
0.0
 11
162.833818
 21
486.361655
 31
0.0
  0
LINE
  5
2b9
100
AcDbEntity
  8
Layer_1
 62
7
100
AcDbLine
 10
121.852682
 20
507.706475
 30
0.0
 11
162.833818
 21
507.706475
 31
0.0
  0
LINE
  5
2ba
100
AcDbEntity
  8
Layer_1
 62
7
100
AcDbLine
 10
121.852682
 20
498.356134
 30
0.0
 11
121.852682
 21
507.706509
 31
0.0
  0
LINE
  5
2bb
100
AcDbEntity
  8
Layer_1
 62
7
100
AcDbLine
 10
162.833818
 20
498.356134
 30
0.0
 11
121.852682
 21
498.356134
 31
0.0
  0
LINE
  5
2bc
100
AcDbEntity
  8
Layer_1
 62
7
100
AcDbLine
 10
162.833818
 20
507.706475
 30
0.0
 11
162.833818
 21
498.356100
 31
0.0
  0
LINE
  5
2bd
100
AcDbEntity
  8
Layer_1
 62
7
100
AcDbLine
 10
32.880009
 20
396.282249
 30
0.0
 11
34.238557
 21
396.282249
 31
0.0
  0
LINE
  5
2be
100
AcDbEntity
  8
Layer_1
 62
7
100
AcDbLine
 10
34.238415
 20
396.282249
 30
0.0
 11
34.238415
 21
398.447952
 31
0.0
  0
LINE
  5
2bf
100
AcDbEntity
  8
Layer_1
 62
7
100
AcDbLine
 10
34.238415
 20
398.447847
 30
0.0
 11
32.879868
 21
398.447847
 31
0.0
  0
LINE
  5
2c0
100
AcDbEntity
  8
Layer_1
 62
7
100
AcDbLine
 10
32.880009
 20
398.447847
 30
0.0
 11
32.880009
 21
404.652503
 31
0.0
  0
LINE
  5
2c1
100
AcDbEntity
  8
Layer_1
 62
7
100
AcDbLine
 10
32.880009
 20
404.652466
 30
0.0
 11
29.884220
 21
404.652466
 31
0.0
  0
LINE
  5
2c2
100
AcDbEntity
  8
Layer_1
 62
7
100
AcDbLine
 10
29.884328
 20
404.652466
 30
0.0
 11
29.884328
 21
398.447810
 31
0.0
  0
LINE
  5
2c3
100
AcDbEntity
  8
Layer_1
 62
7
100
AcDbLine
 10
29.884328
 20
398.447847
 30
0.0
 11
28.526133
 21
398.447847
 31
0.0
  0
LINE
  5
2c4
100
AcDbEntity
  8
Layer_1
 62
7
100
AcDbLine
 10
28.526097
 20
398.447847
 30
0.0
 11
28.526097
 21
396.282144
 31
0.0
  0
LINE
  5
2c5
100
AcDbEntity
  8
Layer_1
 62
7
100
AcDbLine
 10
28.526097
 20
396.282249
 30
0.0
 11
29.884291
 21
396.282249
 31
0.0
  0
LINE
  5
2c6
100
AcDbEntity
  8
Layer_1
 62
7
100
AcDbLine
 10
29.884328
 20
396.282249
 30
0.0
 11
29.884328
 21
392.288804
 31
0.0
  0
LINE
  5
2c7
100
AcDbEntity
  8
Layer_1
 62
7
100
AcDbLine
 10
29.884328
 20
392.288700
 30
0.0
 11
3.888486
 21
392.288700
 31
0.0
  0
LINE
  5
2c8
100
AcDbEntity
  8
Layer_1
 62
7
100
AcDbLine
 10
3.888486
 20
392.288700
 30
0.0
 11
3.888486
 21
570.006855
 31
0.0
  0
LINE
  5
2c9
100
AcDbEntity
  8
Layer_1
 62
7
100
AcDbLine
 10
3.888486
 20
570.006889
 30
0.0
 11
29.884328
 21
570.006889
 31
0.0
  0
LINE
  5
2ca
100
AcDbEntity
  8
Layer_1
 62
7
100
AcDbLine
 10
29.884328
 20
566.013690
 30
0.0
 11
29.884328
 21
570.006782
 31
0.0
  0
LINE
  5
2cb
100
AcDbEntity
  8
Layer_1
 62
7
100
AcDbLine
 10
28.526097
 20
566.013690
 30
0.0
 11
29.884291
 21
566.013690
 31
0.0
  0
LINE
  5
2cc
100
AcDbEntity
  8
Layer_1
 62
7
100
AcDbLine
 10
28.526097
 20
563.847742
 30
0.0
 11
28.526097
 21
566.013798
 31
0.0
  0
LINE
  5
2cd
100
AcDbEntity
  8
Layer_1
 62
7
100
AcDbLine
 10
29.884328
 20
563.847742
 30
0.0
 11
28.526133
 21
563.847742
 31
0.0
  0
LINE
  5
2ce
100
AcDbEntity
  8
Layer_1
 62
7
100
AcDbLine
 10
29.884328
 20
557.643651
 30
0.0
 11
29.884328
 21
563.847601
 31
0.0
  0
LINE
  5
2cf
100
AcDbEntity
  8
Layer_1
 62
7
100
AcDbLine
 10
32.880009
 20
557.643651
 30
0.0
 11
29.884220
 21
557.643651
 31
0.0
  0
LINE
  5
2d0
100
AcDbEntity
  8
Layer_1
 62
7
100
AcDbLine
 10
32.880009
 20
563.847742
 30
0.0
 11
32.880009
 21
557.643792
 31
0.0
  0
LINE
  5
2d1
100
AcDbEntity
  8
Layer_1
 62
7
100
AcDbLine
 10
34.238415
 20
563.847742
 30
0.0
 11
32.879868
 21
563.847742
 31
0.0
  0
LINE
  5
2d2
100
AcDbEntity
  8
Layer_1
 62
7
100
AcDbLine
 10
34.238415
 20
566.013690
 30
0.0
 11
34.238415
 21
563.847635
 31
0.0
  0
LINE
  5
2d3
100
AcDbEntity
  8
Layer_1
 62
7
100
AcDbLine
 10
32.880009
 20
566.013690
 30
0.0
 11
34.238557
 21
566.013690
 31
0.0
  0
LINE
  5
2d4
100
AcDbEntity
  8
Layer_1
 62
7
100
AcDbLine
 10
32.880009
 20
570.006889
 30
0.0
 11
32.880009
 21
566.013798
 31
0.0
  0
LINE
  5
2d5
100
AcDbEntity
  8
Layer_1
 62
7
100
AcDbLine
 10
32.880009
 20
570.006889
 30
0.0
 11
61.366815
 21
570.006889
 31
0.0
  0
LINE
  5
2d6
100
AcDbEntity
  8
Layer_1
 62
7
100
AcDbLine
 10
61.366815
 20
575.134551
 30
0.0
 11
61.366815
 21
570.006926
 31
0.0
  0
LINE
  5
2d7
100
AcDbEntity
  8
Layer_1
 62
7
100
AcDbLine
 10
61.366815
 20
575.134551
 30
0.0
 11
120.219320
 21
575.134551
 31
0.0
  0
LINE
  5
2d8
100
AcDbEntity
  8
Layer_1
 62
7
100
AcDbLine
 10
120.219394
 20
575.134551
 30
0.0
 11
120.219394
 21
570.006926
 31
0.0
  0
LINE
  5
2d9
100
AcDbEntity
  8
Layer_1
 62
7
100
AcDbLine
 10
120.219394
 20
570.006889
 30
0.0
 11
148.709374
 21
570.006889
 31
0.0
  0
LINE
  5
2da
100
AcDbEntity
  8
Layer_1
 62
7
100
AcDbLine
 10
148.709267
 20
566.013690
 30
0.0
 11
148.709267
 21
570.006782
 31
0.0
  0
LINE
  5
2db
100
AcDbEntity
  8
Layer_1
 62
7
100
AcDbLine
 10
147.350895
 20
566.013690
 30
0.0
 11
148.709442
 21
566.013690
 31
0.0
  0
LINE
  5
2dc
100
AcDbEntity
  8
Layer_1
 62
7
100
AcDbLine
 10
147.350895
 20
563.847742
 30
0.0
 11
147.350895
 21
566.013798
 31
0.0
  0
LINE
  5
2dd
100
AcDbEntity
  8
Layer_1
 62
7
100
AcDbLine
 10
148.709267
 20
563.847742
 30
0.0
 11
147.350720
 21
563.847742
 31
0.0
  0
LINE
  5
2de
100
AcDbEntity
  8
Layer_1
 62
7
100
AcDbLine
 10
148.709267
 20
557.643651
 30
0.0
 11
148.709267
 21
563.847601
 31
0.0
  0
LINE
  5
2df
100
AcDbEntity
  8
Layer_1
 62
7
100
AcDbLine
 10
151.704808
 20
557.643651
 30
0.0
 11
148.709372
 21
557.643651
 31
0.0
  0
LINE
  5
2e0
100
AcDbEntity
  8
Layer_1
 62
7
100
AcDbLine
 10
151.704808
 20
563.847742
 30
0.0
 11
151.704808
 21
557.643792
 31
0.0
  0
LINE
  5
2e1
100
AcDbEntity
  8
Layer_1
 62
7
100
AcDbLine
 10
153.063533
 20
563.847742
 30
0.0
 11
151.704633
 21
563.847742
 31
0.0
  0
LINE
  5
2e2
100
AcDbEntity
  8
Layer_1
 62
7
100
AcDbLine
 10
153.063533
 20
566.013690
 30
0.0
 11
153.063533
 21
563.847635
 31
0.0
  0
LINE
  5
2e3
100
AcDbEntity
  8
Layer_1
 62
7
100
AcDbLine
 10
151.704808
 20
566.013690
 30
0.0
 11
153.063708
 21
566.013690
 31
0.0
  0
LINE
  5
2e4
100
AcDbEntity
  8
Layer_1
 62
7
100
AcDbLine
 10
151.704808
 20
570.006889
 30
0.0
 11
151.704808
 21
566.013798
 31
0.0
  0
LINE
  5
2e5
100
AcDbEntity
  8
Layer_1
 62
7
100
AcDbLine
 10
151.704808
 20
570.006889
 30
0.0
 11
177.698180
 21
570.006889
 31
0.0
  0
LINE
  5
2e6
100
AcDbEntity
  8
Layer_1
 62
7
100
AcDbLine
 10
177.698039
 20
570.006889
 30
0.0
 11
177.698039
 21
392.288734
 31
0.0
  0
LINE
  5
2e7
100
AcDbEntity
  8
Layer_1
 62
7
100
AcDbLine
 10
177.698039
 20
392.288700
 30
0.0
 11
151.704667
 21
392.288700
 31
0.0
  0
LINE
  5
2e8
100
AcDbEntity
  8
Layer_1
 62
7
100
AcDbLine
 10
151.704808
 20
392.288700
 30
0.0
 11
151.704808
 21
396.282144
 31
0.0
  0
LINE
  5
2e9
100
AcDbEntity
  8
Layer_1
 62
7
100
AcDbLine
 10
151.704808
 20
396.282249
 30
0.0
 11
153.063708
 21
396.282249
 31
0.0
  0
LINE
  5
2ea
100
AcDbEntity
  8
Layer_1
 62
7
100
AcDbLine
 10
153.063533
 20
396.282249
 30
0.0
 11
153.063533
 21
398.447952
 31
0.0
  0
LINE
  5
2eb
100
AcDbEntity
  8
Layer_1
 62
7
100
AcDbLine
 10
153.063533
 20
398.447847
 30
0.0
 11
151.704633
 21
398.447847
 31
0.0
  0
LINE
  5
2ec
100
AcDbEntity
  8
Layer_1
 62
7
100
AcDbLine
 10
151.704808
 20
398.447847
 30
0.0
 11
151.704808
 21
404.652503
 31
0.0
  0
LINE
  5
2ed
100
AcDbEntity
  8
Layer_1
 62
7
100
AcDbLine
 10
151.704808
 20
404.652466
 30
0.0
 11
148.709372
 21
404.652466
 31
0.0
  0
LINE
  5
2ee
100
AcDbEntity
  8
Layer_1
 62
7
100
AcDbLine
 10
148.709267
 20
404.652466
 30
0.0
 11
148.709267
 21
398.447810
 31
0.0
  0
LINE
  5
2ef
100
AcDbEntity
  8
Layer_1
 62
7
100
AcDbLine
 10
148.709267
 20
398.447847
 30
0.0
 11
147.350720
 21
398.447847
 31
0.0
  0
LINE
  5
2f0
100
AcDbEntity
  8
Layer_1
 62
7
100
AcDbLine
 10
147.350895
 20
398.447847
 30
0.0
 11
147.350895
 21
396.282144
 31
0.0
  0
LINE
  5
2f1
100
AcDbEntity
  8
Layer_1
 62
7
100
AcDbLine
 10
147.350895
 20
396.282249
 30
0.0
 11
148.709442
 21
396.282249
 31
0.0
  0
LINE
  5
2f2
100
AcDbEntity
  8
Layer_1
 62
7
100
AcDbLine
 10
148.709267
 20
396.282249
 30
0.0
 11
148.709267
 21
392.288804
 31
0.0
  0
LINE
  5
2f3
100
AcDbEntity
  8
Layer_1
 62
7
100
AcDbLine
 10
148.709267
 20
392.288700
 30
0.0
 11
120.219287
 21
392.288700
 31
0.0
  0
LINE
  5
2f4
100
AcDbEntity
  8
Layer_1
 62
7
100
AcDbLine
 10
120.219394
 20
387.161710
 30
0.0
 11
120.219394
 21
392.288629
 31
0.0
  0
LINE
  5
2f5
100
AcDbEntity
  8
Layer_1
 62
7
100
AcDbLine
 10
120.219394
 20
387.161710
 30
0.0
 11
61.366888
 21
387.161710
 31
0.0
  0
LINE
  5
2f6
100
AcDbEntity
  8
Layer_1
 62
7
100
AcDbLine
 10
61.366815
 20
387.161710
 30
0.0
 11
61.366815
 21
392.288629
 31
0.0
  0
LINE
  5
2f7
100
AcDbEntity
  8
Layer_1
 62
7
100
AcDbLine
 10
61.366815
 20
392.288700
 30
0.0
 11
32.880009
 21
392.288700
 31
0.0
  0
LINE
  5
2f8
100
AcDbEntity
  8
Layer_1
 62
7
100
AcDbLine
 10
32.880009
 20
392.288700
 30
0.0
 11
32.880009
 21
396.282144
 31
0.0
  0
LINE
  5
2f9
100
AcDbEntity
  8
Layer_1
 62
7
100
AcDbLine
 10
136.186714
 20
431.898340
 30
0.0
 11
136.186714
 21
481.701390
 31
0.0
  0
LINE
  5
2fa
100
AcDbEntity
  8
Layer_1
 62
7
100
AcDbLine
 10
162.496562
 20
431.898340
 30
0.0
 11
136.186748
 21
431.898340
 31
0.0
  0
LINE
  5
2fb
100
AcDbEntity
  8
Layer_1
 62
7
100
AcDbLine
 10
162.496562
 20
481.701498
 30
0.0
 11
162.496562
 21
431.898448
 31
0.0
  0
LINE
  5
2fc
100
AcDbEntity
  8
Layer_1
 62
7
100
AcDbLine
 10
136.186714
 20
481.701498
 30
0.0
 11
162.496528
 21
481.701498
 31
0.0
  0
SPLINE
  5
2fd
100
AcDbEntity
  8
Layer_1
 62
7
100
AcDbSpline
 70
0
 71
3
 72
19
 73
15
 74
13
 40
0.000000
 40
0.000000
 40
0.000000
 40
0.000000
 40
0.896133
 40
1.765388
 40
2.661178
 40
3.557446
 40
4.426831
 40
5.322971
 40
6.219110
 40
7.088495
 40
7.984764
 40
8.880553
 40
9.749808
 40
10.645941
 40
10.645941
 40
10.645941
 40
10.645941
 10
171.165444
 20
418.027014
 30
0.0
 10
171.118363
 20
418.329157
 30
0.0
 10
171.025613
 20
418.924382
 30
0.0
 10
170.343329
 20
419.579553
 30
0.0
 10
169.453418
 20
419.822106
 30
0.0
 10
168.554095
 20
419.579624
 30
0.0
 10
167.898966
 20
418.924449
 30
0.0
 10
167.656079
 20
418.027014
 30
0.0
 10
167.898966
 20
417.129578
 30
0.0
 10
168.554095
 20
416.474403
 30
0.0
 10
169.453418
 20
416.231922
 30
0.0
 10
170.343329
 20
416.474475
 30
0.0
 10
171.025613
 20
417.129645
 30
0.0
 10
171.118363
 20
417.724870
 30
0.0
 10
171.165444
 20
418.027014
 30
0.0
 11
171.165444
 21
418.027014
 31
0.0
 11
170.931474
 21
418.892064
 31
0.0
 11
170.316739
 21
419.506642
 31
0.0
 11
169.452002
 21
419.740455
 31
0.0
 11
168.586769
 21
419.506642
 31
0.0
 11
167.971851
 21
418.892064
 31
0.0
 11
167.737855
 21
418.027014
 31
0.0
 11
167.971851
 21
417.161963
 31
0.0
 11
168.586769
 21
416.547385
 31
0.0
 11
169.452002
 21
416.313572
 31
0.0
 11
170.316739
 21
416.547385
 31
0.0
 11
170.931474
 21
417.161963
 31
0.0
 11
171.165444
 21
418.027014
 31
0.0
  0
LINE
  5
2fe
100
AcDbEntity
  8
Layer_1
 62
7
100
AcDbLine
 10
171.165444
 20
531.474878
 30
0.0
 11
171.165444
 21
531.474878
 31
0.0
  0
LINE
  5
2ff
100
AcDbEntity
  8
Layer_1
 62
7
100
AcDbLine
 10
121.852682
 20
522.345378
 30
0.0
 11
121.852682
 21
531.695400
 31
0.0
  0
LINE
  5
300
100
AcDbEntity
  8
Layer_1
 62
7
100
AcDbLine
 10
162.833818
 20
522.345378
 30
0.0
 11
121.852682
 21
522.345378
 31
0.0
  0
LINE
  5
301
100
AcDbEntity
  8
Layer_1
 62
7
100
AcDbLine
 10
162.833818
 20
531.695364
 30
0.0
 11
162.833818
 21
522.345342
 31
0.0
  0
LINE
  5
302
100
AcDbEntity
  8
Layer_1
 62
7
100
AcDbLine
 10
121.852682
 20
531.695364
 30
0.0
 11
162.833818
 21
531.695364
 31
0.0
  0
LINE
  5
303
100
AcDbEntity
  8
Layer_1
 62
7
100
AcDbLine
 10
121.852682
 20
510.350578
 30
0.0
 11
121.852682
 21
519.700953
 31
0.0
  0
LINE
  5
304
100
AcDbEntity
  8
Layer_1
 62
7
100
AcDbLine
 10
162.833818
 20
510.350578
 30
0.0
 11
121.852682
 21
510.350578
 31
0.0
  0
LINE
  5
305
100
AcDbEntity
  8
Layer_1
 62
7
100
AcDbLine
 10
162.833818
 20
519.700919
 30
0.0
 11
162.833818
 21
510.350544
 31
0.0
  0
LINE
  5
306
100
AcDbEntity
  8
Layer_1
 62
7
100
AcDbLine
 10
121.852682
 20
519.700919
 30
0.0
 11
162.833818
 21
519.700919
 31
0.0
  0
LINE
  5
307
100
AcDbEntity
  8
Layer_1
 62
7
100
AcDbLine
 10
57.980961
 20
409.200689
 30
0.0
 11
57.980961
 21
396.364164
 31
0.0
  0
LINE
  5
308
100
AcDbEntity
  8
Layer_1
 62
7
100
AcDbLine
 10
44.671539
 20
409.200689
 30
0.0
 11
57.981139
 21
409.200689
 31
0.0
  0
LINE
  5
309
100
AcDbEntity
  8
Layer_1
 62
7
100
AcDbLine
 10
44.671539
 20
396.364271
 30
0.0
 11
44.671539
 21
409.200796
 31
0.0
  0
LINE
  5
30a
100
AcDbEntity
  8
Layer_1
 62
7
100
AcDbLine
 10
57.980961
 20
396.364271
 30
0.0
 11
44.671361
 21
396.364271
 31
0.0
  0
SPLINE
  5
30b
100
AcDbEntity
  8
Layer_1
 62
7
100
AcDbSpline
 70
0
 71
3
 72
19
 73
15
 74
13
 40
0.000000
 40
0.000000
 40
0.000000
 40
0.000000
 40
0.895981
 40
1.765292
 40
2.661102
 40
3.557391
 40
4.426831
 40
5.322820
 40
6.218959
 40
7.088344
 40
7.984613
 40
8.880402
 40
9.749657
 40
10.645790
 40
10.645790
 40
10.645790
 40
10.645790
 10
171.165444
 20
531.474878
 30
0.0
 10
171.118347
 20
531.776962
 30
0.0
 10
171.025554
 20
532.372139
 30
0.0
 10
170.343349
 20
533.027318
 30
0.0
 10
169.453419
 20
533.270018
 30
0.0
 10
168.554073
 20
533.027389
 30
0.0
 10
167.899030
 20
532.372204
 30
0.0
 10
167.656065
 20
531.474834
 30
0.0
 10
167.898973
 20
530.577440
 30
0.0
 10
168.554093
 20
529.922268
 30
0.0
 10
169.453419
 20
529.679785
 30
0.0
 10
170.343329
 20
529.922338
 30
0.0
 10
171.025613
 20
530.577509
 30
0.0
 10
171.118363
 20
531.172734
 30
0.0
 10
171.165444
 20
531.474878
 30
0.0
 11
171.165444
 21
531.474878
 31
0.0
 11
170.931474
 21
532.339771
 31
0.0
 11
170.316739
 21
532.954428
 31
0.0
 11
169.452002
 21
533.188319
 31
0.0
 11
168.586769
 21
532.954428
 31
0.0
 11
167.971851
 21
532.339771
 31
0.0
 11
167.737855
 21
531.474878
 31
0.0
 11
167.971851
 21
530.609827
 31
0.0
 11
168.586769
 21
529.995249
 31
0.0
 11
169.452002
 21
529.761436
 31
0.0
 11
170.316739
 21
529.995249
 31
0.0
 11
170.931474
 21
530.609827
 31
0.0
 11
171.165444
 21
531.474878
 31
0.0
  0
LINE
  5
30c
100
AcDbEntity
  8
Layer_1
 62
7
100
AcDbLine
 10
120.189052
 20
531.474878
 30
0.0
 11
120.189052
 21
531.474878
 31
0.0
  0
SPLINE
  5
30d
100
AcDbEntity
  8
Layer_1
 62
7
100
AcDbSpline
 70
0
 71
3
 72
19
 73
15
 74
13
 40
0.000000
 40
0.000000
 40
0.000000
 40
0.000000
 40
0.895981
 40
1.765292
 40
2.661102
 40
3.557303
 40
4.426623
 40
5.322587
 40
6.218703
 40
7.087968
 40
7.984148
 40
8.879937
 40
9.749193
 40
10.645326
 40
10.645326
 40
10.645326
 40
10.645326
 10
120.189052
 20
531.474878
 30
0.0
 10
120.141955
 20
531.776962
 30
0.0
 10
120.049163
 20
532.372139
 30
0.0
 10
119.366956
 20
533.027317
 30
0.0
 10
118.477061
 20
533.270014
 30
0.0
 10
117.577766
 20
533.027410
 30
0.0
 10
116.922884
 20
532.372151
 30
0.0
 10
116.680076
 20
531.474834
 30
0.0
 10
116.922826
 20
530.577493
 30
0.0
 10
117.577786
 20
529.922247
 30
0.0
 10
118.477061
 20
529.679790
 30
0.0
 10
119.366936
 20
529.922339
 30
0.0
 10
120.049222
 20
530.577509
 30
0.0
 10
120.141971
 20
531.172734
 30
0.0
 10
120.189052
 20
531.474878
 30
0.0
 11
120.189052
 21
531.474878
 31
0.0
 11
119.955082
 21
532.339771
 31
0.0
 11
119.340347
 21
532.954428
 31
0.0
 11
118.475610
 21
533.188319
 31
0.0
 11
117.610469
 21
532.954428
 31
0.0
 11
116.995721
 21
532.339771
 31
0.0
 11
116.761816
 21
531.474878
 31
0.0
 11
116.995721
 21
530.609827
 31
0.0
 11
117.610469
 21
529.995249
 31
0.0
 11
118.475610
 21
529.761436
 31
0.0
 11
119.340347
 21
529.995249
 31
0.0
 11
119.955082
 21
530.609827
 31
0.0
 11
120.189052
 21
531.474878
 31
0.0
  0
LINE
  5
30e
100
AcDbEntity
  8
Layer_1
 62
7
100
AcDbLine
 10
35.073040
 20
177.600731
 30
0.0
 11
35.073040
 21
177.600731
 31
0.0
  0
SPLINE
  5
30f
100
AcDbEntity
  8
Layer_1
 62
7
100
AcDbSpline
 70
0
 71
3
 72
19
 73
15
 74
13
 40
0.000000
 40
0.000000
 40
0.000000
 40
0.000000
 40
2.440857
 40
4.809076
 40
7.249760
 40
9.690294
 40
12.058568
 40
14.499446
 40
16.940171
 40
19.308501
 40
21.749055
 40
24.189760
 40
26.558035
 40
28.998740
 40
28.998740
 40
28.998740
 40
28.998740
 10
35.073040
 20
177.600731
 30
0.0
 10
34.944765
 20
178.423684
 30
0.0
 10
34.692034
 20
180.045099
 30
0.0
 10
32.833557
 20
181.830082
 30
0.0
 10
30.409411
 20
182.491304
 30
0.0
 10
27.959842
 20
181.830024
 30
0.0
 10
26.176185
 20
180.045120
 30
0.0
 10
25.514276
 20
177.600776
 30
0.0
 10
26.176242
 20
175.156453
 30
0.0
 10
27.959822
 20
173.371537
 30
0.0
 10
30.409411
 20
172.710110
 30
0.0
 10
32.833577
 20
173.371480
 30
0.0
 10
34.691975
 20
175.156471
 30
0.0
 10
34.944749
 20
176.777838
 30
0.0
 10
35.073040
 20
177.600731
 30
0.0
 11
35.073040
 21
177.600731
 31
0.0
 11
34.435740
 21
179.956921
 31
0.0
 11
32.761117
 21
181.631466
 31
0.0
 11
30.405084
 21
182.268687
 31
0.0
 11
28.049208
 21
181.631466
 31
0.0
 11
26.374507
 21
179.956921
 31
0.0
 11
25.737129
 21
177.600731
 31
0.0
 11
26.374507
 21
175.244698
 31
0.0
 11
28.049208
 21
173.570075
 31
0.0
 11
30.405084
 21
172.932776
 31
0.0
 11
32.761117
 21
173.570075
 31
0.0
 11
34.435740
 21
175.244698
 31
0.0
 11
35.073040
 21
177.600731
 31
0.0
  0
LINE
  5
310
100
AcDbEntity
  8
Layer_1
 62
7
100
AcDbLine
 10
185.092811
 20
177.600731
 30
0.0
 11
185.092811
 21
177.600731
 31
0.0
  0
SPLINE
  5
311
100
AcDbEntity
  8
Layer_1
 62
7
100
AcDbSpline
 70
0
 71
3
 72
19
 73
15
 74
13
 40
0.000000
 40
0.000000
 40
0.000000
 40
0.000000
 40
2.440877
 40
4.809152
 40
7.249685
 40
9.690370
 40
12.058589
 40
14.499446
 40
16.940151
 40
19.308425
 40
21.749131
 40
24.189684
 40
26.558014
 40
28.998740
 40
28.998740
 40
28.998740
 40
28.998740
 10
185.092811
 20
177.600731
 30
0.0
 10
184.964509
 20
178.423687
 30
0.0
 10
184.711721
 20
180.045118
 30
0.0
 10
182.853215
 20
181.830025
 30
0.0
 10
180.429096
 20
182.491304
 30
0.0
 10
177.979503
 20
181.830082
 30
0.0
 10
176.195858
 20
180.045100
 30
0.0
 10
175.534096
 20
177.600776
 30
0.0
 10
176.195915
 20
175.156473
 30
0.0
 10
177.979483
 20
173.371480
 30
0.0
 10
180.429096
 20
172.710110
 30
0.0
 10
182.853235
 20
173.371537
 30
0.0
 10
184.711662
 20
175.156452
 30
0.0
 10
184.964493
 20
176.777835
 30
0.0
 10
185.092811
 20
177.600731
 30
0.0
 11
185.092811
 21
177.600731
 31
0.0
 11
184.455433
 21
179.956921
 31
0.0
 11
182.780732
 21
181.631466
 31
0.0
 11
180.424856
 21
182.268687
 31
0.0
 11
178.068823
 21
181.631466
 31
0.0
 11
176.394200
 21
179.956921
 31
0.0
 11
175.756900
 21
177.600731
 31
0.0
 11
176.394200
 21
175.244698
 31
0.0
 11
178.068823
 21
173.570075
 31
0.0
 11
180.424856
 21
172.932776
 31
0.0
 11
182.780732
 21
173.570075
 31
0.0
 11
184.455433
 21
175.244698
 31
0.0
 11
185.092811
 21
177.600731
 31
0.0
  0
LINE
  5
312
100
AcDbEntity
  8
Layer_1
 62
7
100
AcDbLine
 10
35.073040
 20
82.588447
 30
0.0
 11
35.073040
 21
82.588447
 31
0.0
  0
SPLINE
  5
313
100
AcDbEntity
  8
Layer_1
 62
7
100
AcDbSpline
 70
0
 71
3
 72
19
 73
15
 74
13
 40
0.000000
 40
0.000000
 40
0.000000
 40
0.000000
 40
2.440705
 40
4.808980
 40
7.249685
 40
9.690239
 40
12.058569
 40
14.499295
 40
16.940172
 40
19.308446
 40
21.748980
 40
24.189664
 40
26.557884
 40
28.998740
 40
28.998740
 40
28.998740
 40
28.998740
 10
35.073040
 20
82.588447
 30
0.0
 10
34.944749
 20
83.411341
 30
0.0
 10
34.691975
 20
85.032707
 30
0.0
 10
32.833577
 20
86.817699
 30
0.0
 10
30.409411
 20
87.479068
 30
0.0
 10
27.959822
 20
86.817642
 30
0.0
 10
26.176242
 20
85.032725
 30
0.0
 10
25.514276
 20
82.588403
 30
0.0
 10
26.176185
 20
80.144058
 30
0.0
 10
27.959842
 20
78.359154
 30
0.0
 10
30.409411
 20
77.697875
 30
0.0
 10
32.833557
 20
78.359097
 30
0.0
 10
34.692034
 20
80.144080
 30
0.0
 10
34.944765
 20
81.765495
 30
0.0
 10
35.073040
 20
82.588447
 30
0.0
 11
35.073040
 21
82.588447
 31
0.0
 11
34.435740
 21
84.944480
 31
0.0
 11
32.761117
 21
86.619103
 31
0.0
 11
30.405084
 21
87.256403
 31
0.0
 11
28.049208
 21
86.619103
 31
0.0
 11
26.374507
 21
84.944480
 31
0.0
 11
25.737129
 21
82.588447
 31
0.0
 11
26.374507
 21
80.232257
 31
0.0
 11
28.049208
 21
78.557713
 31
0.0
 11
30.405084
 21
77.920492
 31
0.0
 11
32.761117
 21
78.557713
 31
0.0
 11
34.435740
 21
80.232257
 31
0.0
 11
35.073040
 21
82.588447
 31
0.0
  0
LINE
  5
314
100
AcDbEntity
  8
Layer_1
 62
7
100
AcDbLine
 10
185.092811
 20
82.588447
 30
0.0
 11
185.092811
 21
82.588447
 31
0.0
  0
LINE
  5
315
100
AcDbEntity
  8
Layer_1
 62
7
100
AcDbLine
 10
191.790794
 20
196.909095
 30
0.0
 11
19.018230
 21
196.909095
 31
0.0
  0
SPLINE
  5
316
100
AcDbEntity
  8
Layer_1
 62
7
100
AcDbSpline
 70
0
 71
3
 72
19
 73
15
 74
13
 40
0.000000
 40
0.000000
 40
0.000000
 40
0.000000
 40
2.440726
 40
4.809056
 40
7.249610
 40
9.690315
 40
12.058589
 40
14.499295
 40
16.940151
 40
19.308370
 40
21.749055
 40
24.189588
 40
26.557863
 40
28.998740
 40
28.998740
 40
28.998740
 40
28.998740
 10
185.092811
 20
82.588447
 30
0.0
 10
184.964493
 20
83.411343
 30
0.0
 10
184.711662
 20
85.032727
 30
0.0
 10
182.853235
 20
86.817641
 30
0.0
 10
180.429096
 20
87.479068
 30
0.0
 10
177.979483
 20
86.817699
 30
0.0
 10
176.195915
 20
85.032705
 30
0.0
 10
175.534096
 20
82.588403
 30
0.0
 10
176.195858
 20
80.144078
 30
0.0
 10
177.979503
 20
78.359097
 30
0.0
 10
180.429096
 20
77.697875
 30
0.0
 10
182.853215
 20
78.359154
 30
0.0
 10
184.711721
 20
80.144060
 30
0.0
 10
184.964509
 20
81.765492
 30
0.0
 10
185.092811
 20
82.588447
 30
0.0
 11
185.092811
 21
82.588447
 31
0.0
 11
184.455433
 21
84.944480
 31
0.0
 11
182.780732
 21
86.619103
 31
0.0
 11
180.424856
 21
87.256403
 31
0.0
 11
178.068823
 21
86.619103
 31
0.0
 11
176.394200
 21
84.944480
 31
0.0
 11
175.756900
 21
82.588447
 31
0.0
 11
176.394200
 21
80.232257
 31
0.0
 11
178.068823
 21
78.557713
 31
0.0
 11
180.424856
 21
77.920492
 31
0.0
 11
182.780732
 21
78.557713
 31
0.0
 11
184.455433
 21
80.232257
 31
0.0
 11
185.092811
 21
82.588447
 31
0.0
  0
LINE
  5
317
100
AcDbEntity
  8
Layer_1
 62
7
100
AcDbLine
 10
204.492485
 20
76.113056
 30
0.0
 11
204.492485
 21
184.207342
 31
0.0
  0
SPLINE
  5
318
100
AcDbEntity
  8
Layer_1
 62
7
100
AcDbSpline
 70
0
 71
3
 72
10
 73
6
 74
4
 40
0.000000
 40
0.000000
 40
0.000000
 40
0.000000
 40
6.641232
 40
13.085489
 40
19.726721
 40
19.726721
 40
19.726721
 40
19.726721
 10
204.492485
 20
184.207413
 30
0.0
 10
204.143120
 20
186.433089
 30
0.0
 10
203.454753
 20
190.818430
 30
0.0
 10
198.401738
 20
195.871444
 30
0.0
 10
194.016397
 20
196.559812
 30
0.0
 10
191.790721
 20
196.909176
 30
0.0
 11
204.492485
 21
184.207413
 31
0.0
 11
202.758321
 21
190.618234
 31
0.0
 11
198.201542
 21
195.175012
 31
0.0
 11
191.790721
 21
196.909176
 31
0.0
  0
LINE
  5
319
100
AcDbEntity
  8
Layer_1
 62
7
100
AcDbLine
 10
19.018194
 20
63.411701
 30
0.0
 11
191.790757
 21
63.411701
 31
0.0
  0
SPLINE
  5
31a
100
AcDbEntity
  8
Layer_1
 62
7
100
AcDbSpline
 70
0
 71
3
 72
10
 73
6
 74
4
 40
0.000000
 40
0.000000
 40
0.000000
 40
0.000000
 40
6.641228
 40
13.085421
 40
19.726413
 40
19.726413
 40
19.726413
 40
19.726413
 10
191.790794
 20
63.411701
 30
0.0
 10
194.016466
 20
63.761065
 30
0.0
 10
198.401779
 20
64.449427
 30
0.0
 10
203.454784
 20
69.502286
 30
0.0
 10
204.143182
 20
73.887519
 30
0.0
 10
204.492558
 20
76.113112
 30
0.0
 11
191.790794
 21
63.411701
 31
0.0
 11
198.201616
 21
65.145852
 31
0.0
 11
202.758394
 21
69.702539
 31
0.0
 11
204.492558
 21
76.113112
 31
0.0
  0
LINE
  5
31b
100
AcDbEntity
  8
Layer_1
 62
7
100
AcDbLine
 10
6.316500
 20
184.207413
 30
0.0
 11
6.316500
 21
76.113126
 31
0.0
  0
SPLINE
  5
31c
100
AcDbEntity
  8
Layer_1
 62
7
100
AcDbSpline
 70
0
 71
3
 72
10
 73
6
 74
4
 40
0.000000
 40
0.000000
 40
0.000000
 40
0.000000
 40
6.640992
 40
13.085185
 40
19.726413
 40
19.726413
 40
19.726413
 40
19.726413
 10
6.316500
 20
76.113056
 30
0.0
 10
6.665876
 20
73.887463
 30
0.0
 10
7.354275
 20
69.502230
 30
0.0
 10
12.407279
 20
64.449370
 30
0.0
 10
16.792592
 20
63.761008
 30
0.0
 10
19.018264
 20
63.411645
 30
0.0
 11
6.316500
 21
76.113056
 31
0.0
 11
8.050664
 21
69.702483
 31
0.0
 11
12.607443
 21
65.145796
 31
0.0
 11
19.018264
 21
63.411645
 31
0.0
  0
LINE
  5
31d
100
AcDbEntity
  8
Layer_1
 62
7
100
AcDbLine
 10
13.317276
 20
100.716568
 30
0.0
 11
18.448076
 21
100.716568
 31
0.0
  0
LINE
  5
31e
100
AcDbEntity
  8
Layer_1
 62
7
100
AcDbLine
 10
18.448020
 20
100.716568
 30
0.0
 11
18.448020
 21
159.604352
 31
0.0
  0
LINE
  5
31f
100
AcDbEntity
  8
Layer_1
 62
7
100
AcDbLine
 10
18.448020
 20
159.604239
 30
0.0
 11
13.317220
 21
159.604239
 31
0.0
  0
LINE
  5
320
100
AcDbEntity
  8
Layer_1
 62
7
100
AcDbLine
 10
13.317276
 20
159.604239
 30
0.0
 11
13.317276
 21
100.716455
 31
0.0
  0
SPLINE
  5
321
100
AcDbEntity
  8
Layer_1
 62
7
100
AcDbSpline
 70
0
 71
3
 72
10
 73
6
 74
4
 40
0.000000
 40
0.000000
 40
0.000000
 40
0.000000
 40
6.641232
 40
13.085489
 40
19.726721
 40
19.726721
 40
19.726721
 40
19.726721
 10
19.018194
 20
196.909095
 30
0.0
 10
16.792517
 20
196.559730
 30
0.0
 10
12.407176
 20
195.871362
 30
0.0
 10
7.354162
 20
190.818348
 30
0.0
 10
6.665794
 20
186.433007
 30
0.0
 10
6.316430
 20
184.207331
 30
0.0
 11
19.018194
 21
196.909095
 31
0.0
 11
12.607372
 21
195.174930
 31
0.0
 11
8.050594
 21
190.618152
 31
0.0
 11
6.316430
 21
184.207331
 31
0.0
  0
LINE
  5
322
100
AcDbEntity
  8
Layer_1
 62
7
100
AcDbLine
 10
17.377974
 20
80.713984
 30
0.0
 11
17.377974
 21
80.713984
 31
0.0
  0
SPLINE
  5
323
100
AcDbEntity
  8
Layer_1
 62
7
100
AcDbSpline
 70
0
 71
3
 72
19
 73
15
 74
13
 40
0.000000
 40
0.000000
 40
0.000000
 40
0.000000
 40
0.784496
 40
1.545693
 40
2.330190
 40
3.114598
 40
3.875674
 40
4.660147
 40
5.444619
 40
6.205696
 40
6.990104
 40
7.774600
 40
8.535797
 40
9.320294
 40
9.320294
 40
9.320294
 40
9.320294
 10
17.377974
 20
80.713984
 30
0.0
 10
17.336743
 20
80.978480
 30
0.0
 10
17.255505
 20
81.499619
 30
0.0
 10
16.658177
 20
82.073355
 30
0.0
 10
15.879021
 20
82.285902
 30
0.0
 10
15.091702
 20
82.073377
 30
0.0
 10
14.518588
 20
81.499565
 30
0.0
 10
14.306038
 20
80.713984
 30
0.0
 10
14.518588
 20
79.928402
 30
0.0
 10
15.091702
 20
79.354591
 30
0.0
 10
15.879021
 20
79.142065
 30
0.0
 10
16.658177
 20
79.354612
 30
0.0
 10
17.255505
 20
79.928349
 30
0.0
 10
17.336743
 20
80.449487
 30
0.0
 10
17.377974
 20
80.713984
 30
0.0
 11
17.377974
 21
80.713984
 31
0.0
 11
17.173141
 21
81.471267
 31
0.0
 11
16.634894
 21
82.009514
 31
0.0
 11
15.877611
 21
82.214348
 31
0.0
 11
15.120419
 21
82.009514
 31
0.0
 11
14.582341
 21
81.471267
 31
0.0
 11
14.377599
 21
80.713984
 31
0.0
 11
14.582341
 21
79.956700
 31
0.0
 11
15.120419
 21
79.418453
 31
0.0
 11
15.877611
 21
79.213620
 31
0.0
 11
16.634894
 21
79.418453
 31
0.0
 11
17.173141
 21
79.956700
 31
0.0
 11
17.377974
 21
80.713984
 31
0.0
  0
LINE
  5
324
100
AcDbEntity
  8
Layer_1
 62
7
100
AcDbLine
 10
17.377974
 20
179.606823
 30
0.0
 11
17.377974
 21
179.606823
 31
0.0
  0
SPLINE
  5
325
100
AcDbEntity
  8
Layer_1
 62
7
100
AcDbSpline
 70
0
 71
3
 72
19
 73
15
 74
13
 40
0.000000
 40
0.000000
 40
0.000000
 40
0.000000
 40
0.784496
 40
1.545693
 40
2.330190
 40
3.114598
 40
3.875674
 40
4.660147
 40
5.444619
 40
6.205696
 40
6.990104
 40
7.774600
 40
8.535797
 40
9.320294
 40
9.320294
 40
9.320294
 40
9.320294
 10
17.377974
 20
179.606823
 30
0.0
 10
17.336743
 20
179.871320
 30
0.0
 10
17.255505
 20
180.392458
 30
0.0
 10
16.658177
 20
180.966195
 30
0.0
 10
15.879021
 20
181.178742
 30
0.0
 10
15.091702
 20
180.966216
 30
0.0
 10
14.518588
 20
180.392405
 30
0.0
 10
14.306038
 20
179.606823
 30
0.0
 10
14.518588
 20
178.821242
 30
0.0
 10
15.091702
 20
178.247431
 30
0.0
 10
15.879021
 20
178.034905
 30
0.0
 10
16.658177
 20
178.247452
 30
0.0
 10
17.255505
 20
178.821189
 30
0.0
 10
17.336743
 20
179.342327
 30
0.0
 10
17.377974
 20
179.606823
 30
0.0
 11
17.377974
 21
179.606823
 31
0.0
 11
17.173141
 21
180.364107
 31
0.0
 11
16.634894
 21
180.902354
 31
0.0
 11
15.877611
 21
181.107187
 31
0.0
 11
15.120419
 21
180.902354
 31
0.0
 11
14.582341
 21
180.364107
 31
0.0
 11
14.377599
 21
179.606823
 31
0.0
 11
14.582341
 21
178.849540
 31
0.0
 11
15.120419
 21
178.311293
 31
0.0
 11
15.877611
 21
178.106460
 31
0.0
 11
16.634894
 21
178.311293
 31
0.0
 11
17.173141
 21
178.849540
 31
0.0
 11
17.377974
 21
179.606823
 31
0.0
  0
LINE
  5
326
100
AcDbEntity
  8
Layer_1
 62
7
100
AcDbLine
 10
196.431337
 20
179.606823
 30
0.0
 11
196.431337
 21
179.606823
 31
0.0
  0
LINE
  5
327
100
AcDbEntity
  8
Layer_1
 62
7
100
AcDbLine
 10
197.491364
 20
159.604239
 30
0.0
 11
192.360917
 21
159.604239
 31
0.0
  0
LINE
  5
328
100
AcDbEntity
  8
Layer_1
 62
7
100
AcDbLine
 10
192.360951
 20
159.604239
 30
0.0
 11
192.360951
 21
100.716455
 31
0.0
  0
LINE
  5
329
100
AcDbEntity
  8
Layer_1
 62
7
100
AcDbLine
 10
192.360951
 20
100.716568
 30
0.0
 11
197.491398
 21
100.716568
 31
0.0
  0
LINE
  5
32a
100
AcDbEntity
  8
Layer_1
 62
7
100
AcDbLine
 10
197.491364
 20
100.716568
 30
0.0
 11
197.491364
 21
159.604352
 31
0.0
  0
SPLINE
  5
32b
100
AcDbEntity
  8
Layer_1
 62
7
100
AcDbSpline
 70
0
 71
3
 72
19
 73
15
 74
13
 40
0.000000
 40
0.000000
 40
0.000000
 40
0.000000
 40
0.784476
 40
1.545617
 40
2.330265
 40
3.114522
 40
3.875654
 40
4.660147
 40
5.444640
 40
6.205772
 40
6.990029
 40
7.774676
 40
8.535818
 40
9.320294
 40
9.320294
 40
9.320294
 40
9.320294
 10
196.431337
 20
179.606823
 30
0.0
 10
196.390134
 20
179.871318
 30
0.0
 10
196.308953
 20
180.392438
 30
0.0
 10
195.711653
 20
180.966252
 30
0.0
 10
194.932471
 20
181.178742
 30
0.0
 10
194.145176
 20
180.966159
 30
0.0
 10
193.572049
 20
180.392425
 30
0.0
 10
193.359353
 20
179.606823
 30
0.0
 10
193.572049
 20
178.821222
 30
0.0
 10
194.145176
 20
178.247488
 30
0.0
 10
194.932471
 20
178.034905
 30
0.0
 10
195.711653
 20
178.247395
 30
0.0
 10
196.308953
 20
178.821208
 30
0.0
 10
196.390134
 20
179.342329
 30
0.0
 10
196.431337
 20
179.606823
 30
0.0
 11
196.431337
 21
179.606823
 31
0.0
 11
196.226583
 21
180.364107
 31
0.0
 11
195.688414
 21
180.902354
 31
0.0
 11
194.930974
 21
181.107187
 31
0.0
 11
194.173939
 21
180.902354
 31
0.0
 11
193.635783
 21
180.364107
 31
0.0
 11
193.430962
 21
179.606823
 31
0.0
 11
193.635783
 21
178.849540
 31
0.0
 11
194.173939
 21
178.311293
 31
0.0
 11
194.930974
 21
178.106460
 31
0.0
 11
195.688414
 21
178.311293
 31
0.0
 11
196.226583
 21
178.849540
 31
0.0
 11
196.431337
 21
179.606823
 31
0.0
  0
LINE
  5
32c
100
AcDbEntity
  8
Layer_1
 62
7
100
AcDbLine
 10
196.431337
 20
80.713984
 30
0.0
 11
196.431337
 21
80.713984
 31
0.0
  0
LINE
  5
32d
100
AcDbEntity
  8
Layer_1
 62
7
100
AcDbLine
 10
75.960831
 20
75.543221
 30
0.0
 11
75.960831
 21
70.412421
 31
0.0
  0
LINE
  5
32e
100
AcDbEntity
  8
Layer_1
 62
7
100
AcDbLine
 10
75.960831
 20
70.412449
 30
0.0
 11
134.848614
 21
70.412449
 31
0.0
  0
LINE
  5
32f
100
AcDbEntity
  8
Layer_1
 62
7
100
AcDbLine
 10
134.848507
 20
70.412449
 30
0.0
 11
134.848507
 21
75.543249
 31
0.0
  0
LINE
  5
330
100
AcDbEntity
  8
Layer_1
 62
7
100
AcDbLine
 10
134.848507
 20
75.543221
 30
0.0
 11
75.960724
 21
75.543221
 31
0.0
  0
SPLINE
  5
331
100
AcDbEntity
  8
Layer_1
 62
7
100
AcDbSpline
 70
0
 71
3
 72
19
 73
15
 74
13
 40
0.000000
 40
0.000000
 40
0.000000
 40
0.000000
 40
0.784476
 40
1.545617
 40
2.330265
 40
3.114522
 40
3.875654
 40
4.660147
 40
5.444640
 40
6.205772
 40
6.990029
 40
7.774676
 40
8.535818
 40
9.320294
 40
9.320294
 40
9.320294
 40
9.320294
 10
196.431337
 20
80.713984
 30
0.0
 10
196.390134
 20
80.978478
 30
0.0
 10
196.308953
 20
81.499599
 30
0.0
 10
195.711653
 20
82.073412
 30
0.0
 10
194.932471
 20
82.285902
 30
0.0
 10
194.145176
 20
82.073319
 30
0.0
 10
193.572049
 20
81.499585
 30
0.0
 10
193.359353
 20
80.713984
 30
0.0
 10
193.572049
 20
79.928382
 30
0.0
 10
194.145176
 20
79.354648
 30
0.0
 10
194.932471
 20
79.142065
 30
0.0
 10
195.711653
 20
79.354555
 30
0.0
 10
196.308953
 20
79.928369
 30
0.0
 10
196.390134
 20
80.449489
 30
0.0
 10
196.431337
 20
80.713984
 30
0.0
 11
196.431337
 21
80.713984
 31
0.0
 11
196.226583
 21
81.471267
 31
0.0
 11
195.688414
 21
82.009514
 31
0.0
 11
194.930974
 21
82.214348
 31
0.0
 11
194.173939
 21
82.009514
 31
0.0
 11
193.635783
 21
81.471267
 31
0.0
 11
193.430962
 21
80.713984
 31
0.0
 11
193.635783
 21
79.956700
 31
0.0
 11
194.173939
 21
79.418453
 31
0.0
 11
194.930974
 21
79.213620
 31
0.0
 11
195.688414
 21
79.418453
 31
0.0
 11
196.226583
 21
79.956700
 31
0.0
 11
196.431337
 21
80.713984
 31
0.0
  0
LINE
  5
332
100
AcDbEntity
  8
Layer_1
 62
7
100
AcDbLine
 10
47.507079
 20
187.616657
 30
0.0
 11
47.507079
 21
187.616657
 31
0.0
  0
SPLINE
  5
333
100
AcDbEntity
  8
Layer_1
 62
7
100
AcDbSpline
 70
0
 71
3
 72
19
 73
15
 74
13
 40
0.000000
 40
0.000000
 40
0.000000
 40
0.000000
 40
0.810633
 40
1.597293
 40
2.407926
 40
3.218471
 40
4.005010
 40
4.815619
 40
5.626228
 40
6.412768
 40
7.223312
 40
8.033946
 40
8.820605
 40
9.631238
 40
9.631238
 40
9.631238
 40
9.631238
 10
47.507079
 20
187.616657
 30
0.0
 10
47.464452
 20
187.889961
 30
0.0
 10
47.380459
 20
188.428487
 30
0.0
 10
46.763210
 20
189.021342
 30
0.0
 10
45.958078
 20
189.241091
 30
0.0
 10
45.144505
 20
189.021364
 30
0.0
 10
44.552288
 20
188.428434
 30
0.0
 10
44.332530
 20
187.616657
 30
0.0
 10
44.552288
 20
186.804880
 30
0.0
 10
45.144505
 20
186.211950
 30
0.0
 10
45.958078
 20
185.992223
 30
0.0
 10
46.763210
 20
186.211972
 30
0.0
 10
47.380459
 20
186.804827
 30
0.0
 10
47.464452
 20
187.343353
 30
0.0
 10
47.507079
 20
187.616657
 30
0.0
 11
47.507079
 21
187.616657
 31
0.0
 11
47.295373
 21
188.399157
 31
0.0
 11
46.739121
 21
188.955409
 31
0.0
 11
45.956621
 21
189.167115
 31
0.0
 11
45.174212
 21
188.955409
 31
0.0
 11
44.618130
 21
188.399157
 31
0.0
 11
44.406515
 21
187.616657
 31
0.0
 11
44.618130
 21
186.834157
 31
0.0
 11
45.174212
 21
186.277905
 31
0.0
 11
45.956621
 21
186.066199
 31
0.0
 11
46.739121
 21
186.277905
 31
0.0
 11
47.295373
 21
186.834157
 31
0.0
 11
47.507079
 21
187.616657
 31
0.0
  0
LINE
  5
334
100
AcDbEntity
  8
Layer_1
 62
7
100
AcDbLine
 10
101.854827
 20
122.819620
 30
0.0
 11
101.854827
 21
122.819620
 31
0.0
  0
SPLINE
  5
335
100
AcDbEntity
  8
Layer_1
 62
7
100
AcDbSpline
 70
0
 71
3
 72
19
 73
15
 74
13
 40
0.000000
 40
0.000000
 40
0.000000
 40
0.000000
 40
0.810613
 40
1.597217
 40
2.408001
 40
3.218243
 40
4.004893
 40
4.815544
 40
5.626345
 40
6.412940
 40
7.223162
 40
8.033926
 40
8.820474
 40
9.631238
 40
9.631238
 40
9.631238
 40
9.631238
 10
101.854827
 20
122.819620
 30
0.0
 10
101.812228
 20
123.092922
 30
0.0
 10
101.728291
 20
123.631432
 30
0.0
 10
101.111073
 20
124.224355
 30
0.0
 10
100.305956
 20
124.444068
 30
0.0
 10
99.492475
 20
124.224206
 30
0.0
 10
98.900226
 20
123.631436
 30
0.0
 10
98.680195
 20
122.819576
 30
0.0
 10
98.900168
 20
122.007693
 30
0.0
 10
99.492495
 20
121.414936
 30
0.0
 10
100.305956
 20
121.195221
 30
0.0
 10
101.111053
 20
121.414785
 30
0.0
 10
101.728350
 20
122.007701
 30
0.0
 10
101.812244
 20
122.546259
 30
0.0
 10
101.854827
 20
122.819620
 30
0.0
 11
101.854827
 21
122.819620
 31
0.0
 11
101.643199
 21
123.602120
 31
0.0
 11
101.087026
 21
124.158373
 31
0.0
 11
100.304369
 21
124.370078
 31
0.0
 11
99.522273
 21
124.158373
 31
0.0
 11
98.966034
 21
123.602120
 31
0.0
 11
98.754263
 21
122.819620
 31
0.0
 11
98.966034
 21
122.036963
 31
0.0
 11
99.522273
 21
121.480789
 31
0.0
 11
100.304369
 21
121.269162
 31
0.0
 11
101.087026
 21
121.480789
 31
0.0
 11
101.643199
 21
122.036963
 31
0.0
 11
101.854827
 21
122.819620
 31
0.0
  0
LINE
  5
336
100
AcDbEntity
  8
Layer_1
 62
7
100
AcDbLine
 10
176.794631
 20
144.612594
 30
0.0
 11
176.794631
 21
144.612594
 31
0.0
  0
SPLINE
  5
337
100
AcDbEntity
  8
Layer_1
 62
7
100
AcDbSpline
 70
0
 71
3
 72
19
 73
15
 74
13
 40
0.000000
 40
0.000000
 40
0.000000
 40
0.000000
 40
0.810461
 40
1.597121
 40
2.407926
 40
3.218188
 40
4.004894
 40
4.815393
 40
5.626194
 40
6.412789
 40
7.223011
 40
8.033775
 40
8.820323
 40
9.631087
 40
9.631087
 40
9.631087
 40
9.631087
 10
176.794631
 20
144.612594
 30
0.0
 10
176.752016
 20
144.885837
 30
0.0
 10
176.668037
 20
145.424299
 30
0.0
 10
176.050897
 20
146.017230
 30
0.0
 10
175.245761
 20
146.237090
 30
0.0
 10
174.432258
 20
146.017081
 30
0.0
 10
173.840094
 20
145.424302
 30
0.0
 10
173.619986
 20
144.612506
 30
0.0
 10
173.839980
 20
143.800665
 30
0.0
 10
174.432297
 20
143.207911
 30
0.0
 10
175.245761
 20
142.988195
 30
0.0
 10
176.050857
 20
143.207760
 30
0.0
 10
176.668154
 20
143.800675
 30
0.0
 10
176.752048
 20
144.339233
 30
0.0
 10
176.794631
 20
144.612594
 30
0.0
 11
176.794631
 21
144.612594
 31
0.0
 11
176.583004
 21
145.394938
 31
0.0
 11
176.026830
 21
145.951268
 31
0.0
 11
175.244173
 21
146.163053
 31
0.0
 11
174.462078
 21
145.951268
 31
0.0
 11
173.905839
 21
145.394938
 31
0.0
 11
173.694067
 21
144.612594
 31
0.0
 11
173.905839
 21
143.829937
 31
0.0
 11
174.462078
 21
143.273763
 31
0.0
 11
175.244173
 21
143.062136
 31
0.0
 11
176.026830
 21
143.273763
 31
0.0
 11
176.583004
 21
143.829937
 31
0.0
 11
176.794631
 21
144.612594
 31
0.0
  0
LINE
  5
338
100
AcDbEntity
  8
Layer_1
 62
7
100
AcDbLine
 10
47.507079
 20
73.241925
 30
0.0
 11
47.507079
 21
73.241925
 31
0.0
  0
SPLINE
  5
339
100
AcDbEntity
  8
Layer_1
 62
7
100
AcDbSpline
 70
0
 71
3
 72
19
 73
15
 74
13
 40
0.000000
 40
0.000000
 40
0.000000
 40
0.000000
 40
0.810482
 40
1.597197
 40
2.407850
 40
3.218416
 40
4.005010
 40
4.815468
 40
5.626229
 40
6.412713
 40
7.223237
 40
8.033850
 40
8.820454
 40
9.631238
 40
9.631238
 40
9.631238
 40
9.631238
 10
47.507079
 20
73.241925
 30
0.0
 10
47.464436
 20
73.515170
 30
0.0
 10
47.380400
 20
74.053647
 30
0.0
 10
46.763230
 20
74.646510
 30
0.0
 10
45.958078
 20
74.866407
 30
0.0
 10
45.144486
 20
74.646533
 30
0.0
 10
44.552345
 20
74.053590
 30
0.0
 10
44.332530
 20
73.241836
 30
0.0
 10
44.552231
 20
72.430037
 30
0.0
 10
45.144525
 20
71.837119
 30
0.0
 10
45.958078
 20
71.617539
 30
0.0
 10
46.763190
 20
71.837140
 30
0.0
 10
47.380518
 20
72.429987
 30
0.0
 10
47.464468
 20
72.968561
 30
0.0
 10
47.507079
 20
73.241925
 30
0.0
 11
47.507079
 21
73.241925
 31
0.0
 11
47.295373
 21
74.024268
 31
0.0
 11
46.739121
 21
74.580599
 31
0.0
 11
45.956621
 21
74.792383
 31
0.0
 11
45.174212
 21
74.580599
 31
0.0
 11
44.618130
 21
74.024268
 31
0.0
 11
44.406515
 21
73.241925
 31
0.0
 11
44.618130
 21
72.459267
 31
0.0
 11
45.174212
 21
71.903094
 31
0.0
 11
45.956621
 21
71.691466
 31
0.0
 11
46.739121
 21
71.903094
 31
0.0
 11
47.295373
 21
72.459267
 31
0.0
 11
47.507079
 21
73.241925
 31
0.0
  0
LINE
  5
33a
100
AcDbEntity
  8
Layer_1
 62
7
100
AcDbLine
 10
166.402506
 20
187.616657
 30
0.0
 11
166.402506
 21
187.616657
 31
0.0
  0
SPLINE
  5
33b
100
AcDbEntity
  8
Layer_1
 62
7
100
AcDbSpline
 70
0
 71
3
 72
19
 73
15
 74
13
 40
0.000000
 40
0.000000
 40
0.000000
 40
0.000000
 40
0.810633
 40
1.597293
 40
2.407926
 40
3.218319
 40
4.004914
 40
4.815544
 40
5.626173
 40
6.412768
 40
7.223162
 40
8.033795
 40
8.820454
 40
9.631087
 40
9.631087
 40
9.631087
 40
9.631087
 10
166.402506
 20
187.616657
 30
0.0
 10
166.359879
 20
187.889962
 30
0.0
 10
166.275886
 20
188.428489
 30
0.0
 10
165.658639
 20
189.021335
 30
0.0
 10
164.853549
 20
189.241105
 30
0.0
 10
164.040042
 20
189.021299
 30
0.0
 10
163.447814
 20
188.428455
 30
0.0
 10
163.227909
 20
187.616657
 30
0.0
 10
163.447814
 20
186.804859
 30
0.0
 10
164.040042
 20
186.212014
 30
0.0
 10
164.853549
 20
185.992209
 30
0.0
 10
165.658639
 20
186.211979
 30
0.0
 10
166.275886
 20
186.804825
 30
0.0
 10
166.359879
 20
187.343352
 30
0.0
 10
166.402506
 20
187.616657
 30
0.0
 11
166.402506
 21
187.616657
 31
0.0
 11
166.190800
 21
188.399157
 31
0.0
 11
165.634548
 21
188.955409
 31
0.0
 11
164.852048
 21
189.167115
 31
0.0
 11
164.069796
 21
188.955409
 31
0.0
 11
163.513635
 21
188.399157
 31
0.0
 11
163.301942
 21
187.616657
 31
0.0
 11
163.513635
 21
186.834157
 31
0.0
 11
164.069796
 21
186.277905
 31
0.0
 11
164.852048
 21
186.066199
 31
0.0
 11
165.634548
 21
186.277905
 31
0.0
 11
166.190800
 21
186.834157
 31
0.0
 11
166.402506
 21
187.616657
 31
0.0
  0
LINE
  5
33c
100
AcDbEntity
  8
Layer_1
 62
7
100
AcDbLine
 10
181.943319
 20
92.281567
 30
0.0
 11
181.943319
 21
92.281567
 31
0.0
  0
SPLINE
  5
33d
100
AcDbEntity
  8
Layer_1
 62
7
100
AcDbSpline
 70
0
 71
3
 72
19
 73
15
 74
13
 40
0.000000
 40
0.000000
 40
0.000000
 40
0.000000
 40
0.810633
 40
1.597293
 40
2.407926
 40
3.218319
 40
4.004914
 40
4.815544
 40
5.626325
 40
6.412864
 40
7.223237
 40
8.033850
 40
8.820454
 40
9.631238
 40
9.631238
 40
9.631238
 40
9.631238
 10
181.943319
 20
92.281567
 30
0.0
 10
181.900691
 20
92.554872
 30
0.0
 10
181.816698
 20
93.093399
 30
0.0
 10
181.199451
 20
93.686245
 30
0.0
 10
180.394361
 20
93.906014
 30
0.0
 10
179.580856
 20
93.686210
 30
0.0
 10
178.988619
 20
93.093363
 30
0.0
 10
178.768735
 20
92.281523
 30
0.0
 10
178.988562
 20
91.469660
 30
0.0
 10
179.580876
 20
90.876826
 30
0.0
 10
180.394361
 20
90.657168
 30
0.0
 10
181.199431
 20
90.876790
 30
0.0
 10
181.816757
 20
91.469628
 30
0.0
 10
181.900708
 20
92.008203
 30
0.0
 10
181.943319
 20
92.281567
 30
0.0
 11
181.943319
 21
92.281567
 31
0.0
 11
181.731613
 21
93.064067
 31
0.0
 11
181.175361
 21
93.620319
 31
0.0
 11
180.392860
 21
93.832025
 31
0.0
 11
179.610608
 21
93.620319
 31
0.0
 11
179.054447
 21
93.064067
 31
0.0
 11
178.842755
 21
92.281567
 31
0.0
 11
179.054447
 21
91.498910
 31
0.0
 11
179.610608
 21
90.942736
 31
0.0
 11
180.392860
 21
90.731109
 31
0.0
 11
181.175361
 21
90.942736
 31
0.0
 11
181.731613
 21
91.498910
 31
0.0
 11
181.943319
 21
92.281567
 31
0.0
  0
LINE
  5
33e
100
AcDbEntity
  8
Layer_1
 62
7
100
AcDbLine
 10
166.402506
 20
73.241925
 30
0.0
 11
166.402506
 21
73.241925
 31
0.0
  0
SPLINE
  5
33f
100
AcDbEntity
  8
Layer_1
 62
7
100
AcDbSpline
 70
0
 71
3
 72
19
 73
15
 74
13
 40
0.000000
 40
0.000000
 40
0.000000
 40
0.000000
 40
0.810482
 40
1.597197
 40
2.407850
 40
3.218264
 40
4.004914
 40
4.815393
 40
5.626174
 40
6.412713
 40
7.223086
 40
8.033699
 40
8.820303
 40
9.631087
 40
9.631087
 40
9.631087
 40
9.631087
 10
166.402506
 20
73.241925
 30
0.0
 10
166.359863
 20
73.515170
 30
0.0
 10
166.275827
 20
74.053649
 30
0.0
 10
165.658659
 20
74.646503
 30
0.0
 10
164.853549
 20
74.866421
 30
0.0
 10
164.040022
 20
74.646469
 30
0.0
 10
163.447871
 20
74.053612
 30
0.0
 10
163.227909
 20
73.241836
 30
0.0
 10
163.447757
 20
72.430016
 30
0.0
 10
164.040062
 20
71.837184
 30
0.0
 10
164.853549
 20
71.617525
 30
0.0
 10
165.658619
 20
71.837147
 30
0.0
 10
166.275945
 20
72.429986
 30
0.0
 10
166.359896
 20
72.968561
 30
0.0
 10
166.402506
 20
73.241925
 30
0.0
 11
166.402506
 21
73.241925
 31
0.0
 11
166.190800
 21
74.024268
 31
0.0
 11
165.634548
 21
74.580599
 31
0.0
 11
164.852048
 21
74.792383
 31
0.0
 11
164.069796
 21
74.580599
 31
0.0
 11
163.513635
 21
74.024268
 31
0.0
 11
163.301942
 21
73.241925
 31
0.0
 11
163.513635
 21
72.459267
 31
0.0
 11
164.069796
 21
71.903094
 31
0.0
 11
164.852048
 21
71.691466
 31
0.0
 11
165.634548
 21
71.903094
 31
0.0
 11
166.190800
 21
72.459267
 31
0.0
 11
166.402506
 21
73.241925
 31
0.0
  0
LINE
  5
340
100
AcDbEntity
  8
Layer_1
 62
7
100
AcDbLine
 10
133.608990
 20
93.605867
 30
0.0
 11
133.608990
 21
93.605867
 31
0.0
  0
SPLINE
  5
341
100
AcDbEntity
  8
Layer_1
 62
7
100
AcDbSpline
 70
0
 71
3
 72
19
 73
15
 74
13
 40
0.000000
 40
0.000000
 40
0.000000
 40
0.000000
 40
0.810461
 40
1.597121
 40
2.407926
 40
3.218188
 40
4.004894
 40
4.815393
 40
5.626194
 40
6.412789
 40
7.223011
 40
8.033775
 40
8.820323
 40
9.631087
 40
9.631087
 40
9.631087
 40
9.631087
 10
133.608990
 20
93.605867
 30
0.0
 10
133.566374
 20
93.879110
 30
0.0
 10
133.482395
 20
94.417571
 30
0.0
 10
132.865255
 20
95.010503
 30
0.0
 10
132.060119
 20
95.230363
 30
0.0
 10
131.246616
 20
95.010353
 30
0.0
 10
130.654453
 20
94.417574
 30
0.0
 10
130.434344
 20
93.605778
 30
0.0
 10
130.654338
 20
92.793938
 30
0.0
 10
131.246656
 20
92.201183
 30
0.0
 10
132.060120
 20
91.981467
 30
0.0
 10
132.865215
 20
92.201032
 30
0.0
 10
133.482513
 20
92.793948
 30
0.0
 10
133.566407
 20
93.332505
 30
0.0
 10
133.608990
 20
93.605867
 30
0.0
 11
133.608990
 21
93.605867
 31
0.0
 11
133.397362
 21
94.388210
 31
0.0
 11
132.841188
 21
94.944541
 31
0.0
 11
132.058531
 21
95.156325
 31
0.0
 11
131.276436
 21
94.944541
 31
0.0
 11
130.720197
 21
94.388210
 31
0.0
 11
130.508426
 21
93.605867
 31
0.0
 11
130.720197
 21
92.823209
 31
0.0
 11
131.276436
 21
92.267036
 31
0.0
 11
132.058531
 21
92.055408
 31
0.0
 11
132.841188
 21
92.267036
 31
0.0
 11
133.397362
 21
92.823209
 31
0.0
 11
133.608990
 21
93.605867
 31
0.0
  0
ENDSEC
  0
SECTION
  2
OBJECTS
  0
DICTIONARY
  5
C
330
0
100
AcDbDictionary
  3
ACAD_GROUP
350
D
  3
ACAD_MLINESTYLE
350
17
  0
DICTIONARY
  5
D
330
C
100
AcDbDictionary
  0
DICTIONARY
  5
1A
330
C
100
AcDbDictionary
  0
DICTIONARY
  5
17
330
C
100
AcDbDictionary
  3
STANDARD
350
18
  0
DICTIONARY
  5
19
330
C
100
AcDbDictionary
  0
ENDSEC
  0
EOF
